M48
METRIC,LZ,000.000
;FILE_FORMAT=3:3
;TYPE=PLATED
;Layer: PTH_Through
;EasyEDA v6.5.40, 2024-05-11 17:08:49
;43c8e0cd1118455ea74be200e722eb6b,361a7d54fb4a4915a4e9984872de9782,10
;Gerber Generator version 0.2
;Holesize 1 = 0.501 mm
T01C0.501
;Holesize 2 = 0.966 mm
T02C0.966
;Holesize 3 = 1.000 mm
T03C1.000
;Holesize 4 = 1.501 mm
T04C1.501
;Holesize 5 = 2.000 mm
T05C2.000
%
G05
G90
T01
X028323Y-088884
X043055Y-088902
X026291Y-092313
X022862Y-090299
X024132Y-085219
X027940Y-076327
X050802Y-091696
X050800Y-076327
X017782Y-094490
X020320Y-077597
X020322Y-093158
X038100Y-077597
X025400Y-078867
X039370Y-078867
X048262Y-092331
X026797Y-080137
X054610Y-080137
X055880Y-081407
X028321Y-081407
X057152Y-089029
X060960Y-093345
X071120Y-082677
X072390Y-083947
X073662Y-090299
X077216Y-094361
X034544Y-088392
X126110Y-019050
X121919Y-031877
X131190Y-042799
X109219Y-046355
X129920Y-040259
X101599Y-043688
X091439Y-040640
X128650Y-037338
X127888Y-019050
X131444Y-019050
X129666Y-019050
X121919Y-062484
X126110Y-049657
X091439Y-071247
X101599Y-074295
X109219Y-076962
X131190Y-073406
X128650Y-067945
X129920Y-070866
X129666Y-049657
X131444Y-049657
X127888Y-049657
X126110Y-049657
X134619Y-050800
X138429Y-030480
X138429Y-021590
X045720Y-100711
X039497Y-101092
X036957Y-103505
X073660Y-011303
X127000Y-011430
X031623Y-086487
X129500Y-104101
X132040Y-101561
X134619Y-100290
X104139Y-116840
X106806Y-097790
X111759Y-119380
X111759Y-093980
X109219Y-093980
X163830Y-099695
X172719Y-096520
X063500Y-111760
X102742Y-119380
X058420Y-119380
X068580Y-111760
X142113Y-017272
X088860Y-099021
X116839Y-093980
X137159Y-093980
X063500Y-099060
X138429Y-063500
X109220Y-127000
X025275Y-089646
T02
X086360Y-019050
X096520Y-019050
X106680Y-019051
X116840Y-019051
T03
X027940Y-017272
X025400Y-018542
X027940Y-019812
X025400Y-021082
X027940Y-022352
X025400Y-023622
X060960Y-017272
X058420Y-018542
X060960Y-019812
X058420Y-021082
X060960Y-022352
X058420Y-023622
X077470Y-017272
X074930Y-018542
X077470Y-019812
X074930Y-021082
X077470Y-022352
X074930Y-023622
X027940Y-032512
X025400Y-033782
X027940Y-035052
X025400Y-036322
X027940Y-037592
X025400Y-038862
X044450Y-032512
X041910Y-033782
X044450Y-035052
X041910Y-036322
X044450Y-037592
X041910Y-038862
X027940Y-047752
X025400Y-049022
X027940Y-050292
X025400Y-051562
X027940Y-052832
X025400Y-054102
X044450Y-047752
X041910Y-049022
X044450Y-050292
X041910Y-051562
X044450Y-052832
X041910Y-054102
X060960Y-047752
X058420Y-049022
X060960Y-050292
X058420Y-051562
X060960Y-052832
X058420Y-054102
X077470Y-047752
X074930Y-049022
X077470Y-050292
X074930Y-051562
X077470Y-052832
X074930Y-054102
X027940Y-062992
X025400Y-064262
X027940Y-065532
X025400Y-066802
X027940Y-068072
X025400Y-069342
X044450Y-062992
X041910Y-064262
X044450Y-065532
X041910Y-066802
X044450Y-068072
X041910Y-069342
X060960Y-062992
X058420Y-064262
X060960Y-065532
X058420Y-066802
X060960Y-068072
X058420Y-069342
X077470Y-062992
X074930Y-064262
X077470Y-065532
X074930Y-066802
X077470Y-068072
X074930Y-069342
X060960Y-032512
X058420Y-033782
X060960Y-035052
X058420Y-036322
X060960Y-037592
X058420Y-038862
X077470Y-032512
X074930Y-033782
X077470Y-035052
X074930Y-036322
X077470Y-037592
X074930Y-038862
X044450Y-017272
X041910Y-018542
X044450Y-019812
X041910Y-021082
X044450Y-022352
X041910Y-023622
X086360Y-021590
X096520Y-021590
X088900Y-078740
X091440Y-078740
X093980Y-078740
X096520Y-078740
X099060Y-078740
X101600Y-078740
X106680Y-130610
X106680Y-133150
X106680Y-021591
X116840Y-021591
X086360Y-036831
X086360Y-034291
X096520Y-036831
X096520Y-034291
X106680Y-036831
X106680Y-034291
X116840Y-036831
X116840Y-034291
X086360Y-052071
X086360Y-049531
X096520Y-052071
X096520Y-049531
X096520Y-130709
X096520Y-133249
X106680Y-052071
X106680Y-049531
X086360Y-130811
X086360Y-133351
X116840Y-052071
X116840Y-049531
X086360Y-067311
X086360Y-064771
X096520Y-067311
X096520Y-064771
X106680Y-067311
X106680Y-064771
X116840Y-067311
X116840Y-064771
X010160Y-099060
X010160Y-101600
X010160Y-104140
X010160Y-106680
X010160Y-123825
X093520Y-142240
X096520Y-142240
X099520Y-142240
X079121Y-002159
X060960Y-010160
X078232Y-005207
X106680Y-005207
X047878Y-064262
X038354Y-002540
X040658Y-002540
X047738Y-018568
X047785Y-033781
X047833Y-049023
X031242Y-068072
X031242Y-052826
X031242Y-037587
X031242Y-022358
X031242Y-007620
X028956Y-007620
X022860Y-101600
X047454Y-109220
X083820Y-086360
X021463Y-106680
X110617Y-081534
X176910Y-104140
X087503Y-111125
X170179Y-068580
X157480Y-063500
X157479Y-054654
X119380Y-088900
X106679Y-088900
X153161Y-042164
X086360Y-019057
X096520Y-019057
X106680Y-019057
X116840Y-019057
X157479Y-025400
X142239Y-012700
X144779Y-017780
X147319Y-030480
X170179Y-081280
X017780Y-111760
X157479Y-027940
X026670Y-007620
X036042Y-002559
X031242Y-024596
X031242Y-039823
X031242Y-055064
X031242Y-070310
X047878Y-061976
X047833Y-046737
X047833Y-049022
X047785Y-031495
X047785Y-033782
X047738Y-016282
X047738Y-018542
X175259Y-081280
X149860Y-099060
X147320Y-106680
X134619Y-109220
T04
X005080Y-007584
X005080Y-002576
X149860Y-088936
X149860Y-093944
X170179Y-124461
X170179Y-114301
X170179Y-119381
X045720Y-129540
X045720Y-124460
X022940Y-121880
X027940Y-121880
X032940Y-121880
X032940Y-116880
X027940Y-116880
X022940Y-116880
T05
X167640Y-032512
X167640Y-104705
X143289Y-126782
X150287Y-126782
X157289Y-126782
X090170Y-142240
X102870Y-142240
M30
