M48
METRIC,LZ,000.000
;FILE_FORMAT=3:3
;TYPE=NON_PLATED
;Layer: NPTH_Through
;EasyEDA v6.5.40, 2024-05-11 17:08:49
;43c8e0cd1118455ea74be200e722eb6b,361a7d54fb4a4915a4e9984872de9782,10
;Gerber Generator version 0.2
;Holesize 1 = 3.000 mm
T01C3.000
;Holesize 2 = 4.000 mm
T02C4.000
%
G05
G90
T01
X019050Y-015367
X019050Y-025527
X052070Y-015367
X052070Y-025527
X068580Y-015367
X068580Y-025527
X019050Y-030607
X019050Y-040767
X035560Y-030607
X035560Y-040767
X019050Y-045847
X019050Y-056007
X035560Y-045847
X035560Y-056007
X052070Y-045847
X052070Y-056007
X068580Y-045847
X068580Y-056007
X019050Y-061087
X019050Y-071247
X035560Y-061087
X035560Y-071247
X052070Y-061087
X052070Y-071247
X068580Y-061087
X068580Y-071247
X052070Y-030607
X052070Y-040767
X068580Y-030607
X068580Y-040767
X035560Y-015367
X035560Y-025527
T02
X008000Y-133000
X008000Y-019000
X172000Y-019000
X172000Y-133000
M30
