G04 Layer: BottomSolderMaskLayer*
G04 EasyEDA v6.5.40, 2024-05-11 17:08:49*
G04 43c8e0cd1118455ea74be200e722eb6b,361a7d54fb4a4915a4e9984872de9782,10*
G04 Gerber Generator version 0.2*
G04 Scale: 100 percent, Rotated: No, Reflected: No *
G04 Dimensions in millimeters *
G04 leading zeros omitted , absolute positions ,4 integer and 5 decimal *
%FSLAX45Y45*%
%MOMM*%

%AMMACRO1*1,1,$1,$2,$3*1,1,$1,$4,$5*1,1,$1,0-$2,0-$3*1,1,$1,0-$4,0-$5*20,1,$1,$2,$3,$4,$5,0*20,1,$1,$4,$5,0-$2,0-$3,0*20,1,$1,0-$2,0-$3,0-$4,0-$5,0*20,1,$1,0-$4,0-$5,$2,$3,0*4,1,4,$2,$3,$4,$5,0-$2,0-$3,0-$4,0-$5,$2,$3,0*%
%ADD10R,1.4712X1.7032*%
%ADD11C,1.7032*%
%ADD12C,1.7526*%
%ADD13MACRO1,0.1016X-1.6X2X1.6X2*%
%ADD14C,3.1016*%
%ADD15C,4.1016*%
%ADD16C,1.6764*%
%ADD17MACRO1,0.1016X0.7874X-0.7874X-0.7874X-0.7874*%
%ADD18R,1.6096X1.6096*%
%ADD19C,1.6096*%
%ADD20C,2.6000*%
%ADD21C,2.1000*%
%ADD22C,3.1000*%
%ADD23C,1.2032*%
%ADD24C,2.2032*%
%ADD25C,1.8542*%
%ADD26C,0.0102*%

%LPD*%
D10*
G01*
X2793974Y-1727200D03*
D11*
G01*
X2540000Y-1854200D03*
G01*
X2794000Y-1981200D03*
G01*
X2540000Y-2108200D03*
G01*
X2794000Y-2235200D03*
G01*
X2540000Y-2362200D03*
D10*
G01*
X6095974Y-1727200D03*
D11*
G01*
X5842000Y-1854200D03*
G01*
X6096000Y-1981200D03*
G01*
X5842000Y-2108200D03*
G01*
X6096000Y-2235200D03*
G01*
X5842000Y-2362200D03*
D10*
G01*
X7746974Y-1727200D03*
D11*
G01*
X7492974Y-1854200D03*
G01*
X7746974Y-1981200D03*
G01*
X7492974Y-2108200D03*
G01*
X7746974Y-2235200D03*
G01*
X7492974Y-2362200D03*
D10*
G01*
X2793974Y-3251200D03*
D11*
G01*
X2540000Y-3378200D03*
G01*
X2794000Y-3505200D03*
G01*
X2540000Y-3632200D03*
G01*
X2794000Y-3759200D03*
G01*
X2540000Y-3886200D03*
D10*
G01*
X4444974Y-3251200D03*
D11*
G01*
X4191000Y-3378200D03*
G01*
X4445000Y-3505200D03*
G01*
X4191000Y-3632200D03*
G01*
X4445000Y-3759200D03*
G01*
X4191000Y-3886200D03*
D10*
G01*
X2793974Y-4775200D03*
D11*
G01*
X2540000Y-4902200D03*
G01*
X2794000Y-5029200D03*
G01*
X2540000Y-5156200D03*
G01*
X2794000Y-5283200D03*
G01*
X2540000Y-5410200D03*
D10*
G01*
X4444974Y-4775200D03*
D11*
G01*
X4191000Y-4902200D03*
G01*
X4445000Y-5029200D03*
G01*
X4191000Y-5156200D03*
G01*
X4445000Y-5283200D03*
G01*
X4191000Y-5410200D03*
D10*
G01*
X6095974Y-4775200D03*
D11*
G01*
X5842000Y-4902200D03*
G01*
X6096000Y-5029200D03*
G01*
X5842000Y-5156200D03*
G01*
X6096000Y-5283200D03*
G01*
X5842000Y-5410200D03*
D10*
G01*
X7746974Y-4775200D03*
D11*
G01*
X7492974Y-4902200D03*
G01*
X7746974Y-5029200D03*
G01*
X7492974Y-5156200D03*
G01*
X7746974Y-5283200D03*
G01*
X7492974Y-5410200D03*
D10*
G01*
X2793974Y-6299200D03*
D11*
G01*
X2540000Y-6426200D03*
G01*
X2794000Y-6553200D03*
G01*
X2540000Y-6680200D03*
G01*
X2794000Y-6807200D03*
G01*
X2540000Y-6934200D03*
D10*
G01*
X4444974Y-6299200D03*
D11*
G01*
X4191000Y-6426200D03*
G01*
X4445000Y-6553200D03*
G01*
X4191000Y-6680200D03*
G01*
X4445000Y-6807200D03*
G01*
X4191000Y-6934200D03*
D10*
G01*
X6095974Y-6299200D03*
D11*
G01*
X5842000Y-6426200D03*
G01*
X6096000Y-6553200D03*
G01*
X5842000Y-6680200D03*
G01*
X6096000Y-6807200D03*
G01*
X5842000Y-6934200D03*
D10*
G01*
X7746974Y-6299200D03*
D11*
G01*
X7492974Y-6426200D03*
G01*
X7746974Y-6553200D03*
G01*
X7492974Y-6680200D03*
G01*
X7746974Y-6807200D03*
G01*
X7492974Y-6934200D03*
D10*
G01*
X6095974Y-3251200D03*
D11*
G01*
X5842000Y-3378200D03*
G01*
X6096000Y-3505200D03*
G01*
X5842000Y-3632200D03*
G01*
X6096000Y-3759200D03*
G01*
X5842000Y-3886200D03*
D10*
G01*
X7746974Y-3251200D03*
D11*
G01*
X7492974Y-3378200D03*
G01*
X7746974Y-3505200D03*
G01*
X7492974Y-3632200D03*
G01*
X7746974Y-3759200D03*
G01*
X7492974Y-3886200D03*
D10*
G01*
X4444974Y-1727200D03*
D11*
G01*
X4191000Y-1854200D03*
G01*
X4445000Y-1981200D03*
G01*
X4191000Y-2108200D03*
G01*
X4445000Y-2235200D03*
G01*
X4191000Y-2362200D03*
D12*
G01*
X8635974Y-2159000D03*
G01*
X8635974Y-1905000D03*
G01*
X9651974Y-2159000D03*
G01*
X9651974Y-1905000D03*
D13*
G01*
X16764000Y-10470499D03*
G01*
X16764000Y-3245500D03*
D14*
G01*
X16764000Y-3251200D03*
G01*
X16764000Y-10470489D03*
G01*
X508000Y-758444D03*
G01*
X508000Y-257555D03*
G01*
X14986000Y-8893555D03*
G01*
X14986000Y-9394444D03*
D15*
G01*
X14328924Y-12678204D03*
G01*
X15028669Y-12678204D03*
G01*
X15728922Y-12678204D03*
D14*
G01*
X17017852Y-12446091D03*
G01*
X17017852Y-11430091D03*
G01*
X17017852Y-11938091D03*
G01*
X4572000Y-12954000D03*
G01*
X4572000Y-12446000D03*
D16*
G01*
X8890000Y-7874000D03*
G01*
X9144000Y-7874000D03*
G01*
X9398000Y-7874000D03*
G01*
X9652000Y-7874000D03*
G01*
X9906000Y-7874000D03*
D17*
G01*
X10160000Y-7874000D03*
D12*
G01*
X10668000Y-13060984D03*
G01*
X10668000Y-13314984D03*
G01*
X10668000Y-2159050D03*
G01*
X10668000Y-1905050D03*
G01*
X11684000Y-2159050D03*
G01*
X11684000Y-1905050D03*
G01*
X8636000Y-3683050D03*
G01*
X8636000Y-3429050D03*
G01*
X9652000Y-3683050D03*
G01*
X9652000Y-3429050D03*
G01*
X10668000Y-3683050D03*
G01*
X10668000Y-3429050D03*
G01*
X11684000Y-3683050D03*
G01*
X11684000Y-3429050D03*
G01*
X8636000Y-5207050D03*
G01*
X8636000Y-4953050D03*
G01*
X9652000Y-5207050D03*
G01*
X9652000Y-4953050D03*
G01*
X9652000Y-13070890D03*
G01*
X9652000Y-13324890D03*
G01*
X10668000Y-5207050D03*
G01*
X10668000Y-4953050D03*
G01*
X8636000Y-13081050D03*
G01*
X8636000Y-13335050D03*
G01*
X11684000Y-5207050D03*
G01*
X11684000Y-4953050D03*
G01*
X8636000Y-6731050D03*
G01*
X8636000Y-6477050D03*
G01*
X9652000Y-6731050D03*
G01*
X9652000Y-6477050D03*
G01*
X10668000Y-6731050D03*
G01*
X10668000Y-6477050D03*
G01*
X11684000Y-6731050D03*
G01*
X11684000Y-6477050D03*
D18*
G01*
X1016000Y-9906000D03*
D19*
G01*
X1016000Y-10160000D03*
G01*
X1016000Y-10414000D03*
G01*
X1016000Y-10668000D03*
G01*
X1016000Y-12382500D03*
D20*
G01*
X2293995Y-12187976D03*
G01*
X2793994Y-12187976D03*
G01*
X3293993Y-12187976D03*
G01*
X3293993Y-11687977D03*
G01*
X2793994Y-11687977D03*
G01*
X2293995Y-11687977D03*
D21*
G01*
X9352000Y-14224000D03*
G01*
X9652000Y-14224000D03*
G01*
X9951999Y-14224000D03*
D22*
G01*
X9017000Y-14224000D03*
G01*
X10287000Y-14224000D03*
D23*
G01*
X2832303Y-8888374D03*
G01*
X4305503Y-8890152D03*
G01*
X2629103Y-9231274D03*
G01*
X2286203Y-9029852D03*
G01*
X2413203Y-8521852D03*
G01*
X2794000Y-7632674D03*
G01*
X5080203Y-9169552D03*
G01*
X5080000Y-7632674D03*
G01*
X1778203Y-9448952D03*
G01*
X2032000Y-7759674D03*
G01*
X2032203Y-9315780D03*
G01*
X3810000Y-7759674D03*
G01*
X2540000Y-7886674D03*
G01*
X3937000Y-7886674D03*
G01*
X4826203Y-9233052D03*
G01*
X2679700Y-8013674D03*
G01*
X5461000Y-8013674D03*
G01*
X5588000Y-8140674D03*
G01*
X2832100Y-8140674D03*
G01*
X5715203Y-8902852D03*
G01*
X6096000Y-9334474D03*
G01*
X7112000Y-8267674D03*
G01*
X7239000Y-8394674D03*
G01*
X7366203Y-9029852D03*
G01*
X7721574Y-9436074D03*
G01*
X3454400Y-8839174D03*
G01*
X12611074Y-1905000D03*
G01*
X12191974Y-3187700D03*
G01*
X13119074Y-4279900D03*
G01*
X10921974Y-4635500D03*
G01*
X12992074Y-4025900D03*
G01*
X10159974Y-4368800D03*
G01*
X9143974Y-4064000D03*
G01*
X12865074Y-3733800D03*
G01*
X12788874Y-1905000D03*
G01*
X13144474Y-1905000D03*
G01*
X12966674Y-1905000D03*
G01*
X12191974Y-6248400D03*
G01*
X12611074Y-4965700D03*
G01*
X9143974Y-7124700D03*
G01*
X10159974Y-7429500D03*
G01*
X10921974Y-7696200D03*
G01*
X13119074Y-7340600D03*
G01*
X12865074Y-6794500D03*
G01*
X12992074Y-7086600D03*
G01*
X12966674Y-4965700D03*
G01*
X13144474Y-4965700D03*
G01*
X12788874Y-4965700D03*
G01*
X12611074Y-4965700D03*
G01*
X13461974Y-5080000D03*
G01*
X13842974Y-3048000D03*
G01*
X13842974Y-2159000D03*
G01*
X4572000Y-10071074D03*
G01*
X3949700Y-10109174D03*
G01*
X3695700Y-10350474D03*
D24*
G01*
X7912074Y-215900D03*
G01*
X6096000Y-1016000D03*
G01*
X7823174Y-520700D03*
G01*
X10668000Y-520700D03*
D23*
G01*
X7365974Y-1130300D03*
G01*
X12699974Y-1143000D03*
D24*
G01*
X4787889Y-6426187D03*
G01*
X3835392Y-254000D03*
G01*
X4065803Y-254000D03*
G01*
X4773828Y-1856765D03*
G01*
X4778552Y-3378098D03*
G01*
X4783302Y-4902301D03*
G01*
X3124194Y-6807187D03*
G01*
X3124200Y-5282539D03*
G01*
X3124200Y-3758641D03*
G01*
X3124200Y-2235809D03*
G01*
X3124200Y-762000D03*
G01*
X2895594Y-761997D03*
D23*
G01*
X3162300Y-8648674D03*
D24*
G01*
X2285994Y-10159979D03*
G01*
X4745456Y-10921974D03*
G01*
X8381982Y-8635982D03*
D23*
G01*
X12950037Y-10410037D03*
G01*
X13204037Y-10156037D03*
G01*
X13461974Y-10028936D03*
D24*
G01*
X2146294Y-10667979D03*
D23*
G01*
X10413974Y-11683974D03*
G01*
X10680674Y-9778974D03*
D24*
G01*
X11061677Y-8153384D03*
D23*
G01*
X11175974Y-11937974D03*
G01*
X11175977Y-9397982D03*
G01*
X10921974Y-9397974D03*
G01*
X16383000Y-9969500D03*
G01*
X17271974Y-9651974D03*
D24*
G01*
X17691074Y-10413974D03*
D23*
G01*
X6349987Y-11175977D03*
G01*
X10274279Y-11937974D03*
G01*
X5841989Y-11937979D03*
D24*
G01*
X8750282Y-11112477D03*
D23*
G01*
X6857987Y-11175977D03*
G01*
X14211300Y-1727200D03*
G01*
X8886040Y-9902037D03*
G01*
X11683977Y-9397982D03*
G01*
X13715972Y-9397982D03*
D24*
G01*
X17017966Y-6857987D03*
G01*
X15747992Y-6350010D03*
G01*
X15747966Y-5465338D03*
D23*
G01*
X6349987Y-9905979D03*
G01*
X13842972Y-6349989D03*
D24*
G01*
X11937977Y-8889982D03*
G01*
X10667918Y-8889982D03*
G01*
X15316169Y-4216392D03*
D25*
G01*
X8635974Y-1905688D03*
G01*
X9651974Y-1905688D03*
G01*
X10668000Y-1905690D03*
G01*
X11683987Y-1905690D03*
D24*
G01*
X15747969Y-2539994D03*
G01*
X14223972Y-1269997D03*
G01*
X14477972Y-1777997D03*
G01*
X14731969Y-3047994D03*
G01*
X17017966Y-8127984D03*
G01*
X1777997Y-11175977D03*
D23*
G01*
X10922000Y-12700000D03*
D24*
G01*
X15747969Y-2793994D03*
G01*
X2666994Y-761997D03*
G01*
X3604262Y-255915D03*
G01*
X3124200Y-2459616D03*
G01*
X3124197Y-3982239D03*
G01*
X3124200Y-5506346D03*
G01*
X3124194Y-7030994D03*
G01*
X4787889Y-6197587D03*
G01*
X4783302Y-4673701D03*
G01*
X4783302Y-4902197D03*
G01*
X4778552Y-3149498D03*
G01*
X4778552Y-3378197D03*
G01*
X4773828Y-1628165D03*
G01*
X4773828Y-1854197D03*
D23*
G01*
X2527508Y-8964584D03*
D24*
G01*
X17525964Y-8127984D03*
G01*
X14986000Y-9906000D03*
G01*
X14732000Y-10668000D03*
G01*
X13461972Y-10921977D03*
M02*
