G04 Layer: TopLayer*
G04 EasyEDA v6.5.40, 2024-05-11 17:08:49*
G04 43c8e0cd1118455ea74be200e722eb6b,361a7d54fb4a4915a4e9984872de9782,10*
G04 Gerber Generator version 0.2*
G04 Scale: 100 percent, Rotated: No, Reflected: No *
G04 Dimensions in millimeters *
G04 leading zeros omitted , absolute positions ,4 integer and 5 decimal *
%FSLAX45Y45*%
%MOMM*%

%AMMACRO1*21,1,$1,$2,0,0,$3*%
%ADD10C,1.0000*%
%ADD11C,1.5000*%
%ADD12C,0.5000*%
%ADD13C,0.3000*%
%ADD14C,2.0000*%
%ADD15C,3.0000*%
%ADD16C,0.2540*%
%ADD17C,0.9000*%
%ADD18MACRO1,1.728X1.485X0.0000*%
%ADD19R,1.7280X1.4850*%
%ADD20R,1.1000X3.2000*%
%ADD21R,3.2000X1.1000*%
%ADD22MACRO1,1.728X1.485X-90.0000*%
%ADD23MACRO1,1.728X1.485X90.0000*%
%ADD24R,4.0000X1.0200*%
%ADD25R,8.4000X10.0000*%
%ADD26R,0.5320X1.0720*%
%ADD27O,0.3999992X1.499997*%
%ADD28R,1.0720X0.5320*%
%ADD29R,2.0000X0.3800*%
%ADD30R,2.5000X1.1000*%
%ADD31MACRO1,3.6X2.34X-90.0000*%
%ADD32O,0.6020054X2.2310090000000002*%
%ADD33R,2.0000X2.8000*%
%ADD34R,3.5000X4.0000*%
%ADD35R,4.5000X2.5000*%
%ADD36R,1.8000X1.0008*%
%ADD37R,1.0008X1.8000*%
%ADD38MACRO1,1.701X1.2075X0.0000*%
%ADD39R,1.7010X1.2075*%
%ADD40MACRO1,1.701X1.2075X-90.0000*%
%ADD41MACRO1,1.701X1.2075X90.0000*%
%ADD42R,2.0000X2.4000*%
%ADD43R,2.4000X2.0000*%
%ADD44R,0.7000X1.2500*%
%ADD45R,1.2500X0.7000*%
%ADD46R,1.2680X1.5000*%
%ADD47C,1.6510*%
%ADD48C,4.0000*%
%ADD49C,1.5748*%
%ADD50R,1.5748X1.5748*%
%ADD51R,1.5080X1.5080*%
%ADD52C,1.5080*%
%ADD53C,2.5000*%
%ADD54C,0.0146*%

%LPD*%
G36*
X12283998Y-762000D02*
G01*
X12537998Y-1016000D01*
X12699034Y-1016000D01*
X12699949Y-762000D01*
G37*
D10*
X13830300Y-7886700D02*
G01*
X13830300Y-8623300D01*
X13970000Y-8763000D01*
X13970000Y-9906000D01*
X11176000Y-12700000D01*
X10922000Y-12700000D01*
X17691061Y-4940231D02*
G01*
X17741861Y-4889431D01*
X17741861Y-2667000D01*
X17432553Y-2667000D01*
D11*
X16103569Y-2425694D02*
G01*
X16103579Y-431802D01*
D12*
X15133853Y-762000D02*
G01*
X15087574Y-808278D01*
X15087574Y-850900D01*
X14211274Y-1727200D01*
D13*
X8512809Y-10536936D02*
G01*
X4457700Y-10528300D01*
X4318000Y-10668000D01*
X2667000Y-10668000D01*
X2667000Y-9779000D01*
X2540000Y-9652000D01*
X1524000Y-9652000D01*
X1524000Y-8636000D01*
X1016000Y-8636000D01*
D14*
X393700Y-10922000D02*
G01*
X393700Y-6464287D01*
X393700Y-6438887D01*
X7492984Y-6934197D02*
G01*
X7365984Y-6934184D01*
X7238984Y-6807197D01*
X6095984Y-6807197D01*
D10*
X6349987Y-360121D02*
G01*
X6354500Y-355600D01*
X7277084Y-355600D01*
X5842000Y-348742D02*
G01*
X5853376Y-360118D01*
X6349987Y-360118D01*
D15*
X1780542Y-758446D02*
G01*
X1784095Y-762000D01*
X2667000Y-762000D01*
D10*
X7112000Y-13716000D02*
G01*
X6858000Y-13970000D01*
X2159000Y-13970000D01*
X1524000Y-13335000D01*
X1524000Y-11684000D01*
X1528063Y-11688063D01*
X2293874Y-11688063D01*
X2293995Y-12187976D02*
G01*
X2285994Y-12195977D01*
X2285994Y-13461972D01*
X2539994Y-13715972D01*
X6349987Y-13715972D01*
X6857984Y-13207974D01*
X6857987Y-11175977D01*
X2793994Y-12187976D02*
G01*
X2793994Y-13207974D01*
X3047992Y-13461972D01*
X5841989Y-13461972D01*
X6349987Y-12953974D01*
X6349987Y-11175977D01*
X3293993Y-11687977D02*
G01*
X3746500Y-11684000D01*
X3809992Y-11683977D01*
X4030413Y-11671277D01*
X7111984Y-13715972D02*
G01*
X8636000Y-13716000D01*
X11176000Y-13716000D01*
X14986000Y-9906000D01*
D14*
X15728950Y-12678155D02*
G01*
X15726663Y-12052300D01*
X10414000Y-1524254D02*
G01*
X12954000Y-1524000D01*
X13220700Y-1257300D01*
X13271500Y-1257300D01*
X13302741Y-1270000D01*
X13970000Y-1270000D01*
X13970000Y-1088389D01*
X10414000Y-1256029D02*
G01*
X10414000Y-1841500D01*
D12*
X16128961Y-10528282D02*
G01*
X16128961Y-10159982D01*
D14*
X13303224Y-761492D02*
G01*
X13629104Y-435610D01*
X16065474Y-438152D01*
D10*
X11175974Y-11937974D02*
G01*
X10274279Y-11937974D01*
D12*
X9972040Y-10799114D02*
G01*
X9972040Y-11968048D01*
X9651974Y-12288113D01*
D10*
X7746972Y-6478546D02*
G01*
X11683974Y-6478549D01*
X8127745Y-6478523D02*
G01*
X8128000Y-8636000D01*
X8382000Y-8636000D01*
D11*
X17691064Y-5499089D02*
G01*
X17691064Y-7873984D01*
D14*
X7746984Y-6807197D02*
G01*
X7619984Y-6934197D01*
X7492984Y-6934197D01*
D10*
X8635979Y-6476994D02*
G01*
X11683984Y-6476994D01*
D12*
X16764000Y-9791192D02*
G01*
X16764000Y-9398000D01*
X8635982Y-7526576D02*
G01*
X8996098Y-7526576D01*
X9143982Y-7378692D01*
X9143982Y-7124692D01*
D14*
X14731974Y-3048000D02*
G01*
X14731969Y-3301992D01*
X14477972Y-1777997D02*
G01*
X14477972Y-1904997D01*
D10*
X13842974Y-2159000D02*
G01*
X14042364Y-1959610D01*
X14731974Y-1959610D01*
D15*
X2720847Y-762000D02*
G01*
X3569970Y-762000D01*
D12*
X9651974Y-2920994D02*
G01*
X9676429Y-2896539D01*
X12509474Y-2896539D01*
D10*
X14985974Y-8069981D02*
G01*
X14986000Y-8128000D01*
X15494000Y-8128000D01*
X15494000Y-6604000D01*
X15747992Y-6350010D01*
X5384800Y-10922000D02*
G01*
X5549920Y-10756879D01*
X7696184Y-10756879D01*
X8115282Y-11175977D01*
X8127984Y-11175977D01*
X10668000Y-13314984D02*
G01*
X11068964Y-13314984D01*
X13461972Y-10921977D01*
X10668000Y-13315007D02*
G01*
X8127984Y-13309574D01*
X8127984Y-11175977D01*
X8686782Y-11175977D01*
X8750282Y-11112477D01*
X16000996Y-9651994D02*
G01*
X15747954Y-9651994D01*
X14731969Y-10667979D01*
D12*
X12191974Y-9397982D02*
G01*
X11683977Y-9397982D01*
X11937979Y-9397982D02*
G01*
X13715972Y-9397974D01*
X13715977Y-9398000D01*
D14*
X14986000Y-7169912D02*
G01*
X14363672Y-7175484D01*
X14363700Y-8267700D01*
X14986000Y-8890000D01*
X14986000Y-8893555D01*
D10*
X1778000Y-11175974D02*
G01*
X1778000Y-10921994D01*
X2794000Y-11688063D02*
G01*
X3043936Y-11938000D01*
X3809992Y-11937977D01*
X3809992Y-12953974D01*
X4572000Y-12954000D01*
X4326178Y-11671274D02*
G01*
X4571987Y-11671274D01*
X4571987Y-11937974D01*
X4572000Y-12446000D02*
G01*
X4572000Y-12192000D01*
X4571989Y-11937977D01*
X1016000Y-9906000D02*
G01*
X393700Y-9906000D01*
X393700Y-10922000D01*
X4745481Y-10922000D01*
D14*
X16251961Y-11429977D02*
G01*
X17017964Y-11429969D01*
X16763966Y-3809992D02*
G01*
X16763959Y-4597410D01*
D11*
X17691064Y-7873984D02*
G01*
X17525964Y-8039084D01*
X17525964Y-8127984D01*
D14*
X17691064Y-5499089D02*
G01*
X17691064Y-4838689D01*
X17438370Y-4585970D01*
X17272000Y-4585970D01*
X16763964Y-4571989D02*
G01*
X17271961Y-4571989D01*
X16484566Y-3809992D02*
G01*
X16764000Y-3810000D01*
D15*
X508000Y-257555D02*
G01*
X1689100Y-257555D01*
X3604262Y-255915D01*
D10*
X5333989Y-12847853D02*
G01*
X5333989Y-13207974D01*
X5587989Y-13207974D01*
X5841987Y-12953977D01*
X5841989Y-11937979D01*
X17017974Y-8127974D02*
G01*
X17144974Y-8254974D01*
X17144974Y-8475395D01*
D14*
X16255966Y-2793994D02*
G01*
X16243274Y-2781274D01*
X16713200Y-3251200D01*
X16764000Y-3251200D01*
X17018000Y-12446000D02*
G01*
X16510000Y-12446000D01*
X16510000Y-13208000D01*
X15032177Y-13208000D01*
X15032177Y-12678206D01*
D12*
X8889982Y-9131282D02*
G01*
X8886027Y-9140037D01*
X8512936Y-9140037D01*
X8889972Y-7873974D02*
G01*
X8889982Y-9131282D01*
X10283063Y-9267037D02*
G01*
X10791032Y-9267037D01*
X10921977Y-9397982D01*
D16*
X3162495Y-9063182D02*
G01*
X2286208Y-9066171D01*
X3162482Y-8998163D02*
G01*
X2502108Y-9002671D01*
D13*
X5587989Y-10159979D02*
G01*
X5587989Y-10159979D01*
X5588000Y-9728200D01*
X4192524Y-9728200D01*
X4002531Y-9538208D01*
D16*
X4317984Y-9385284D02*
G01*
X3982501Y-9388149D01*
D13*
X4146250Y-9453138D02*
G01*
X3982501Y-9453138D01*
X5952490Y-10037063D02*
G01*
X5715000Y-10037063D01*
X5715000Y-9639300D01*
X4332477Y-9639300D01*
X4146295Y-9453118D01*
D16*
X4318182Y-9321957D02*
G01*
X3982501Y-9323148D01*
X4253430Y-9322081D02*
G01*
X4483381Y-9322081D01*
X4622784Y-9461484D01*
X7721597Y-9461484D01*
X7721597Y-9436077D01*
D13*
X5943600Y-9652000D02*
G01*
X5842000Y-9550400D01*
X4483100Y-9550400D01*
X4318000Y-9385300D01*
D16*
X3162482Y-9193171D02*
G01*
X2629108Y-9193171D01*
D13*
X5460984Y-8013684D02*
G01*
X2679697Y-8013684D01*
D16*
X3162495Y-8933200D02*
G01*
X2832295Y-8926471D01*
D13*
X2539997Y-7886684D02*
G01*
X3936997Y-7886684D01*
X2031997Y-7759684D02*
G01*
X3809997Y-7759684D01*
D16*
X2794195Y-9256671D02*
G01*
X2692595Y-9358271D01*
X2019508Y-9358271D01*
D13*
X5079984Y-7632684D02*
G01*
X3279114Y-7632684D01*
X2793997Y-7632684D01*
D12*
X15747992Y-6350010D02*
G01*
X16154145Y-5943854D01*
X16350995Y-5956807D02*
G01*
X17378172Y-5956807D01*
X17378172Y-6350000D01*
D10*
X17136795Y-2667000D02*
G01*
X16903674Y-2433878D01*
X16403848Y-2433878D01*
X16403848Y-2031987D01*
X16319500Y-5727700D02*
G01*
X16319500Y-5537200D01*
X16065500Y-5537200D01*
X14986000Y-6616700D01*
X14986000Y-7170420D01*
X16319466Y-5727687D02*
G01*
X16281366Y-5727687D01*
D14*
X2793997Y-3759197D02*
G01*
X2666997Y-3886197D01*
X2539997Y-3886197D01*
X749297Y-6426187D02*
G01*
X393700Y-6426187D01*
X2540000Y-6426200D02*
G01*
X584200Y-6426200D01*
X2540000Y-6934200D02*
G01*
X2362212Y-6934200D01*
X2235200Y-6807187D01*
X1320800Y-6807187D01*
X1015974Y-7112012D01*
X1015997Y-7924784D01*
X2539997Y-6426197D02*
G01*
X7492984Y-6426197D01*
X2539997Y-3378197D02*
G01*
X4778552Y-3378197D01*
X4773828Y-1856765D02*
G01*
X4773828Y-1628165D01*
X4778552Y-3378098D02*
G01*
X4778552Y-3149498D01*
X4783302Y-4902301D02*
G01*
X4783302Y-4673701D01*
X4787889Y-6426187D02*
G01*
X4787889Y-6197587D01*
X4190984Y-6934197D02*
G01*
X4063984Y-6934184D01*
X3936997Y-6807197D01*
X2793997Y-6807197D01*
X3124194Y-6807187D02*
G01*
X3124194Y-7030994D01*
X3124200Y-5282539D02*
G01*
X3124200Y-5506346D01*
X3124200Y-3758641D02*
G01*
X3124200Y-3982448D01*
X3124200Y-2235809D02*
G01*
X3124200Y-2459616D01*
D15*
X2667000Y-762000D02*
G01*
X2720924Y-762000D01*
D14*
X7492984Y-1854197D02*
G01*
X8254984Y-1854197D01*
D10*
X7746984Y-1905688D02*
G01*
X11683987Y-1905690D01*
D14*
X4190984Y-2362197D02*
G01*
X4063984Y-2362197D01*
X3936997Y-2235197D01*
X2793997Y-2235197D01*
X2539997Y-1854197D02*
G01*
X7492984Y-1854197D01*
X7492984Y-4902197D02*
G01*
X7746984Y-4901681D01*
D10*
X7746972Y-4952456D02*
G01*
X11683974Y-4952458D01*
D14*
X7492984Y-5410197D02*
G01*
X7365984Y-5410197D01*
X7238984Y-5283197D01*
X6095984Y-5283197D01*
X4444984Y-5283197D02*
G01*
X4317984Y-5410197D01*
X4190984Y-5410197D01*
X2793997Y-5283197D02*
G01*
X2666997Y-5410197D01*
X2539997Y-5410197D01*
X4190984Y-5410197D02*
G01*
X4063984Y-5410197D01*
X3936997Y-5283197D01*
X2793997Y-5283197D01*
D15*
X508000Y-758444D02*
G01*
X2032000Y-758444D01*
X2286000Y-762000D01*
X3604262Y-255915D02*
G01*
X5841987Y-254000D01*
D14*
X2539997Y-4902197D02*
G01*
X4783302Y-4902197D01*
X4783302Y-4902197D02*
G01*
X7492984Y-4902197D01*
X14363672Y-4571989D02*
G01*
X14360143Y-6546087D01*
X14986000Y-6546087D01*
D10*
X16582364Y-7619997D02*
G01*
X16415207Y-7452840D01*
X16415207Y-6604000D01*
D14*
X17017966Y-6857987D02*
G01*
X16509966Y-6857987D01*
X15747974Y-2540000D02*
G01*
X15747969Y-2692394D01*
X15076881Y-2699257D01*
X16001966Y-3378192D02*
G01*
X15323032Y-2699257D01*
X13970000Y-2699257D01*
D10*
X13716000Y-5747257D02*
G01*
X14033500Y-5747257D01*
X14046172Y-3555992D01*
X14312900Y-2699257D01*
X15316169Y-4483089D02*
G01*
X15316200Y-4216400D01*
X16000996Y-9821781D02*
G01*
X16000996Y-9428589D01*
X16582390Y-8636000D02*
G01*
X16002000Y-9216389D01*
X16001966Y-9410682D01*
D14*
X16582364Y-8635972D02*
G01*
X16582364Y-7619997D01*
D10*
X16415209Y-6604000D02*
G01*
X16415207Y-6349997D01*
X16415207Y-6858000D01*
D12*
X3295139Y-9817102D02*
G01*
X3162495Y-9684458D01*
X3162495Y-9548238D01*
D10*
X3295141Y-9817074D02*
G01*
X3295141Y-10109174D01*
X3949700Y-10109174D01*
X4745481Y-10922000D02*
G01*
X5384800Y-10922000D01*
X5458968Y-11000231D01*
X5458968Y-12097004D01*
D12*
X10413974Y-12298095D02*
G01*
X10411459Y-11937974D01*
X11175974Y-11937974D01*
D10*
X1015997Y-9067779D02*
G01*
X1015997Y-9935911D01*
X16370266Y-2476494D02*
G01*
X16403848Y-2412507D01*
X16403848Y-2031989D01*
X16403848Y-2031989D02*
G01*
X16403848Y-2412507D01*
X16108095Y-2032000D02*
G01*
X16108095Y-2031987D01*
X16108090Y-2031987D01*
X14731974Y-1959610D02*
G01*
X14731961Y-1959612D01*
X15493969Y-744783D02*
G01*
X15387853Y-762000D01*
X15133848Y-762000D01*
D12*
X13944572Y-431802D02*
G01*
X14714220Y-428083D01*
D10*
X16870095Y-6349997D02*
G01*
X16418559Y-6349997D01*
X15653212Y-4571994D02*
G01*
X15653212Y-5079989D01*
X15479958Y-5079989D01*
X15316174Y-4216400D02*
G01*
X15311653Y-4211878D01*
X14985969Y-4211881D01*
X14985974Y-4211878D02*
G01*
X15334721Y-4571994D01*
X15503662Y-2879887D02*
G01*
X15323032Y-2699257D01*
X15312367Y-2612392D01*
X14731974Y-2612392D01*
D12*
X9652000Y-13071094D02*
G01*
X9652000Y-12583921D01*
D14*
X10414000Y-1256029D02*
G01*
X10414000Y-1270000D01*
X9143982Y-1269997D01*
D10*
X12699974Y-1143000D02*
G01*
X12617221Y-1060246D01*
X12617221Y-962253D01*
X12617145Y-962177D01*
X12617145Y-962177D01*
X12617145Y-962177D01*
X12699974Y-1143000D02*
G01*
X12697152Y-762000D01*
X12699974Y-1143000D02*
G01*
X12283970Y-762000D01*
X14838095Y-762000D02*
G01*
X14511703Y-1088392D01*
X13969974Y-1088392D01*
D14*
X13303224Y-761492D02*
G01*
X13113232Y-762000D01*
X12283970Y-762000D01*
D10*
X10668000Y-8890000D02*
G01*
X10282936Y-8890000D01*
X11937977Y-8889982D02*
G01*
X11937977Y-8566513D01*
X11843232Y-8635974D02*
G01*
X11980974Y-8498232D01*
X11980974Y-8357971D01*
X11980976Y-7897977D02*
G01*
X13830272Y-7886684D01*
X13842974Y-6349987D01*
X15748000Y-5465318D02*
G01*
X15879318Y-5334000D01*
X17272000Y-5334000D01*
X17271956Y-5065976D01*
D12*
X17017961Y-9791682D02*
G01*
X16858965Y-9791067D01*
D10*
X14985974Y-3916121D02*
G01*
X14985974Y-3703878D01*
X14985974Y-3703878D01*
X14732000Y-3703828D02*
G01*
X14732000Y-4318000D01*
X14846808Y-4432807D01*
X14846269Y-4444992D01*
X14363669Y-4521192D02*
G01*
X14617052Y-4521179D01*
D12*
X14360240Y-4825687D02*
G01*
X14363672Y-4571989D01*
D10*
X14731969Y-3703881D02*
G01*
X15239969Y-3703881D01*
X15239969Y-3408123D02*
G01*
X14731969Y-3408123D01*
X15239969Y-3408123D02*
G01*
X15549300Y-3408123D01*
X15659069Y-3517892D01*
X15653212Y-3523749D01*
X15653212Y-4571994D01*
X4572000Y-12446000D02*
G01*
X4572000Y-12192000D01*
X5209031Y-12192000D01*
D14*
X16001966Y-3378192D02*
G01*
X16002000Y-3904742D01*
X16002000Y-4572000D01*
X16183609Y-4572000D01*
D10*
X16128961Y-10159982D02*
G01*
X15747974Y-10159982D01*
X15747974Y-10921974D01*
X16890961Y-10921974D01*
X17144961Y-10667982D01*
X17144961Y-9905982D01*
D12*
X16103574Y-9791674D02*
G01*
X16668973Y-9791067D01*
D10*
X17378088Y-5841997D02*
G01*
X17378088Y-6349997D01*
X17165827Y-6350000D02*
G01*
X17373600Y-6350000D01*
X17378172Y-6345428D01*
X17378172Y-6096000D01*
X14985974Y-8893533D02*
G01*
X14993719Y-8885788D01*
X14993719Y-8634333D01*
D14*
X15493982Y-8635987D02*
G01*
X14729459Y-8633460D01*
X14985974Y-8893533D02*
G01*
X15243515Y-8635992D01*
X15929569Y-8635992D01*
D12*
X16418559Y-6349997D02*
G01*
X16255966Y-6349987D01*
X16255974Y-5956909D01*
D10*
X16002000Y-10502900D02*
G01*
X16002000Y-10668000D01*
X16764000Y-10668000D01*
X16764000Y-10502900D01*
X16763974Y-10470464D01*
X15929559Y-7619974D02*
G01*
X16096716Y-7452817D01*
X16096726Y-6603974D01*
D14*
X14999975Y-5079989D02*
G01*
X14985979Y-5093985D01*
X14985979Y-5645980D01*
X15929569Y-7619972D02*
G01*
X15929569Y-8635992D01*
D10*
X17271974Y-9651974D02*
G01*
X17271961Y-9334482D01*
X17271964Y-8889982D02*
G01*
X17271964Y-9340349D01*
X17271961Y-8889982D02*
G01*
X17153135Y-8771153D01*
X17144974Y-8771153D01*
D12*
X8512936Y-9902037D02*
G01*
X8886040Y-9902037D01*
X11175977Y-9397982D02*
G01*
X11175977Y-9143982D01*
X11175977Y-9143982D02*
G01*
X10667979Y-9143982D01*
X14858966Y-4571987D02*
G01*
X15334721Y-4571994D01*
X14999970Y-5080000D02*
G01*
X14846884Y-4926888D01*
X14846884Y-4673854D01*
X14617065Y-4476978D02*
G01*
X14617065Y-4565142D01*
X4572000Y-10071100D02*
G01*
X5079989Y-10071079D01*
X5079989Y-10401279D01*
D10*
X1015974Y-8275878D02*
G01*
X1016000Y-8275904D01*
X1016000Y-8742121D01*
D13*
X8534382Y-10413979D02*
G01*
X5079989Y-10413979D01*
D10*
X1683257Y-9906000D02*
G01*
X2032000Y-9906000D01*
X2286000Y-10160000D01*
X1671878Y-10286672D02*
G01*
X1777682Y-10286672D01*
X2146300Y-10655287D01*
X2146300Y-10667974D01*
X13715974Y-2699252D02*
G01*
X13900833Y-2699252D01*
X13987693Y-2612389D01*
X14731974Y-2612389D01*
D12*
X16865574Y-9994874D02*
G01*
X16865574Y-10502874D01*
X16383000Y-9969500D02*
G01*
X16383000Y-10160000D01*
X16764000Y-10160000D01*
X16763974Y-10020881D01*
X17144961Y-9905982D02*
G01*
X17030661Y-9791682D01*
X17017961Y-9791682D01*
D10*
X17691061Y-10413982D02*
G01*
X17685209Y-10408127D01*
X17685209Y-9397987D01*
D13*
X6349987Y-9778979D02*
G01*
X6349987Y-9905979D01*
X6349987Y-9905979D01*
X8512809Y-9774936D02*
G01*
X6349987Y-9778979D01*
D10*
X8381974Y-8635974D02*
G01*
X8381982Y-9004282D01*
X8381982Y-9004282D02*
G01*
X8547079Y-9004282D01*
D12*
X8635974Y-12593853D02*
G01*
X8636000Y-12593878D01*
X8636000Y-13080974D01*
D10*
X8750274Y-11112474D02*
G01*
X8750274Y-10807674D01*
X8805824Y-10752150D01*
D13*
X2895854Y-9688576D02*
G01*
X2895854Y-10528300D01*
X3848100Y-10528300D01*
X4546600Y-9829800D01*
X5207000Y-9829800D01*
X5207000Y-10282936D01*
X8512809Y-10282936D01*
X8512916Y-9647930D02*
G01*
X5943600Y-9652000D01*
D10*
X5334000Y-12552095D02*
G01*
X5458965Y-12427130D01*
X5458965Y-12286970D01*
X1016000Y-9905974D02*
G01*
X1364734Y-9905974D01*
D13*
X8521682Y-10032979D02*
G01*
X5952365Y-10037048D01*
D10*
X1016000Y-10159974D02*
G01*
X1016000Y-10413974D01*
D12*
X3719829Y-8685276D02*
G01*
X3683508Y-8648700D01*
X3162300Y-8648700D01*
X3613655Y-9817102D02*
G01*
X3670482Y-9760275D01*
X3670482Y-8685171D01*
X3924482Y-8685171D01*
X3982514Y-8743177D01*
X3982514Y-8773073D01*
D14*
X16226561Y-12052274D02*
G01*
X16340866Y-11937969D01*
X17017964Y-11937969D01*
X14328924Y-12678204D02*
G01*
X14325572Y-12674851D01*
X14325572Y-12191974D01*
X15087569Y-11429977D01*
X15751987Y-11429977D01*
D10*
X7746984Y-3428992D02*
G01*
X11683987Y-3428994D01*
X8635979Y-1905000D02*
G01*
X11683984Y-1905000D01*
X7366000Y-1130300D02*
G01*
X7201154Y-965454D01*
X7201154Y-948181D01*
D14*
X10413972Y-776020D02*
G01*
X11069952Y-776020D01*
X11083973Y-762000D01*
D17*
X8153384Y-596900D02*
G01*
X7819184Y-601629D01*
D10*
X8335187Y-932174D02*
G01*
X7619984Y-939797D01*
X7277100Y-355600D02*
G01*
X7417054Y-495554D01*
X7683754Y-762254D01*
X8335263Y-762254D01*
X7619984Y-939797D02*
G01*
X7332578Y-652391D01*
X7201093Y-652391D01*
X8335192Y-422168D02*
G01*
X8118342Y-422168D01*
X7912074Y-215900D01*
X8335187Y-762175D02*
G01*
X9445185Y-762175D01*
X8409490Y-1103624D02*
G01*
X9091482Y-1106520D01*
X6830440Y-652388D02*
G01*
X6693093Y-652388D01*
X6693093Y-948148D02*
G01*
X7201093Y-948148D01*
X7201093Y-652388D02*
G01*
X6693093Y-652388D01*
X6349987Y-655878D02*
G01*
X6353467Y-652398D01*
X6693103Y-652398D01*
D14*
X5841987Y-761997D02*
G01*
X6095987Y-1015997D01*
X4050029Y-762000D02*
G01*
X5842000Y-762000D01*
D16*
X2984754Y-9453371D02*
G01*
X2984500Y-10287000D01*
X3048000Y-10350500D01*
X3682992Y-10350479D01*
D12*
X13232625Y-4838700D02*
G01*
X13704255Y-4838700D01*
X13715984Y-4826970D01*
D10*
X13703269Y-5765787D02*
G01*
X13423869Y-5765787D01*
X13703269Y-2717794D02*
G01*
X13423869Y-2717794D01*
D12*
X12890474Y-2183457D02*
G01*
X12890474Y-2476494D01*
X12941274Y-2527294D01*
X13398474Y-2527294D01*
X13398474Y-2896542D01*
X13715984Y-5747235D02*
G01*
X13969972Y-5747235D01*
X13271474Y-1778000D02*
G01*
X13842972Y-1778000D01*
X13842972Y-2158994D01*
D10*
X13715974Y-2380736D02*
G01*
X13715974Y-2285992D01*
X13842972Y-2158994D01*
X13715984Y-5428719D02*
G01*
X13715984Y-3174982D01*
X13842972Y-3047994D01*
D12*
X13398474Y-5244160D02*
G01*
X13398474Y-5143487D01*
X13461972Y-5079989D01*
X12763439Y-5486422D02*
G01*
X12763439Y-5944570D01*
X12191964Y-5227855D02*
G01*
X12191964Y-5486427D01*
X12763439Y-5486422D01*
X12192000Y-2179828D02*
G01*
X12192000Y-2438400D01*
X12763474Y-2438394D01*
X13715984Y-5747235D02*
G01*
X13715984Y-5702272D01*
X13398484Y-5702272D01*
X13398484Y-5944519D01*
X13715974Y-2699257D02*
G01*
X13715974Y-2654294D01*
X13398474Y-2654294D01*
X13398474Y-2896542D01*
X12763474Y-2183457D02*
G01*
X12763474Y-1879066D01*
X13144474Y-2183457D02*
G01*
X13144474Y-1905000D01*
X13017500Y-5092700D02*
G01*
X12966700Y-5041900D01*
X12966700Y-4965700D01*
X12890474Y-5244157D02*
G01*
X12890474Y-5537194D01*
X12941274Y-5587994D01*
X13398474Y-5587994D01*
X13398474Y-5957242D01*
X12509474Y-5244157D02*
G01*
X12509474Y-5156194D01*
X12445974Y-5092694D01*
X13271500Y-5244084D02*
G01*
X13271474Y-5460994D01*
X13411200Y-5461000D01*
X13715974Y-5461000D01*
X13715974Y-5441442D01*
X13144474Y-5244157D02*
G01*
X13144474Y-4965700D01*
X13017474Y-5244157D02*
G01*
X13017474Y-5092694D01*
X12636474Y-5232394D02*
G01*
X12636474Y-4965694D01*
X12445974Y-5092694D02*
G01*
X12445974Y-4838700D01*
X13271474Y-4838700D01*
X13271474Y-5244157D01*
X13271474Y-7526578D02*
G01*
X13271474Y-5957242D01*
X11683987Y-7526578D02*
G01*
X13271474Y-7526578D01*
X12890474Y-6045194D02*
G01*
X12890474Y-6793544D01*
X13017474Y-5957242D02*
G01*
X13017474Y-7085644D01*
X13144474Y-5957242D02*
G01*
X13144474Y-7378694D01*
X10794979Y-7696189D02*
G01*
X10921977Y-7696189D01*
X10668000Y-7526528D02*
G01*
X10668000Y-7581900D01*
X10794979Y-7696189D01*
X9651974Y-7526578D02*
G01*
X10062895Y-7526578D01*
X10159979Y-7429492D01*
X8635982Y-4465876D02*
G01*
X8996098Y-4465876D01*
X9143982Y-4317992D01*
X9143982Y-4063992D01*
X8635979Y-6002578D02*
G01*
X8635979Y-6248392D01*
X12191974Y-6248392D01*
X12636474Y-5957242D02*
G01*
X12636474Y-5689594D01*
X10932413Y-5676900D02*
G01*
X11157458Y-5678678D01*
X12636500Y-5689600D01*
X9651974Y-5981694D02*
G01*
X9676429Y-5957239D01*
X12509474Y-5957239D01*
X12636474Y-5232394D02*
G01*
X12636474Y-4965694D01*
X8635979Y-2941878D02*
G01*
X8635979Y-3187692D01*
X12191974Y-3187692D01*
X13271500Y-2183384D02*
G01*
X13271474Y-2400294D01*
X13411200Y-2400300D01*
X13715974Y-2400300D01*
X13715974Y-2380742D01*
X13271474Y-5244160D02*
G01*
X13271449Y-5461071D01*
X13411174Y-5461076D01*
X13715949Y-5461076D01*
X13715949Y-5441518D01*
D10*
X11684000Y-5207002D02*
G01*
X11811000Y-5207002D01*
X12085827Y-4932174D01*
X12192000Y-4932174D01*
X11684000Y-2159000D02*
G01*
X11811000Y-2159000D01*
X12085827Y-1884171D01*
X12192000Y-1884171D01*
X10667972Y-5207000D02*
G01*
X10667966Y-5577586D01*
X10667989Y-2158997D02*
G01*
X10667984Y-2529583D01*
D12*
X11683987Y-4465878D02*
G01*
X13271474Y-4465878D01*
X10932391Y-2616194D02*
G01*
X12636474Y-2628894D01*
X12966674Y-1905000D02*
G01*
X12966674Y-1981194D01*
X13017474Y-2031994D01*
X13017474Y-2183457D02*
G01*
X13017474Y-2031994D01*
X12445974Y-2031994D02*
G01*
X12445974Y-1778000D01*
X13271474Y-1778000D01*
X13271474Y-2183457D01*
X12636474Y-2171694D02*
G01*
X12636474Y-1904994D01*
X12509474Y-2183457D02*
G01*
X12509474Y-2095494D01*
X12445974Y-2031994D01*
X12509474Y-2183457D02*
G01*
X12509474Y-2140836D01*
X13271474Y-4465878D02*
G01*
X13271474Y-2896542D01*
X12890474Y-2984494D02*
G01*
X12890474Y-3732844D01*
X13017474Y-2896542D02*
G01*
X13017474Y-4024944D01*
X13144474Y-2896542D02*
G01*
X13144474Y-4317994D01*
X12763474Y-2438394D02*
G01*
X12763474Y-2896542D01*
X12636474Y-2896542D02*
G01*
X12636474Y-2628894D01*
X9651974Y-4465878D02*
G01*
X10062895Y-4465878D01*
X10159979Y-4368792D01*
X10668000Y-4465828D02*
G01*
X10668000Y-4521200D01*
X10794979Y-4635489D01*
X10794979Y-4635489D02*
G01*
X10921977Y-4635489D01*
D10*
X11683966Y-6730994D02*
G01*
X11683966Y-7218116D01*
X10667972Y-6730994D02*
G01*
X10667972Y-7218116D01*
X9651974Y-6730994D02*
G01*
X9651974Y-7218116D01*
X8635979Y-6730994D02*
G01*
X8635979Y-7218116D01*
X9651974Y-5207000D02*
G01*
X9651974Y-5694121D01*
X8635979Y-5207002D02*
G01*
X8635979Y-5694123D01*
X11683989Y-3682997D02*
G01*
X11683989Y-4170118D01*
X10667974Y-3682997D02*
G01*
X10667974Y-4170118D01*
X9651972Y-3682997D02*
G01*
X9651972Y-4170118D01*
X8635982Y-3682994D02*
G01*
X8635982Y-4170118D01*
X9651974Y-2159000D02*
G01*
X9651974Y-2646121D01*
X9651974Y-2646121D01*
X8635979Y-2159000D02*
G01*
X8635979Y-2646121D01*
X8635979Y-4953002D02*
G01*
X11683984Y-4953002D01*
D16*
X3441697Y-8801084D02*
G01*
X3086110Y-8801084D01*
X3162495Y-8868194D02*
G01*
X2959295Y-8862971D01*
X4572182Y-8991757D02*
G01*
X4673782Y-8902857D01*
X5715182Y-8902857D01*
X5080195Y-9118757D02*
G01*
X3940792Y-9128914D01*
X3162495Y-9128170D02*
G01*
X1904997Y-9134558D01*
X1904997Y-9134558D02*
G01*
X1902962Y-8270984D01*
D13*
X1904997Y-8267684D02*
G01*
X7111984Y-8267684D01*
D16*
X2158997Y-8686784D02*
G01*
X2157199Y-8396414D01*
X3162495Y-9453156D02*
G01*
X2984682Y-9453882D01*
X7366182Y-9055257D02*
G01*
X4033301Y-9063146D01*
X2959295Y-8862847D02*
G01*
X2959295Y-8685047D01*
X2161750Y-8685047D01*
X2161750Y-8685047D02*
G01*
X2159208Y-8685047D01*
X4572182Y-8991757D02*
G01*
X3982501Y-8998158D01*
X4254695Y-8723396D02*
G01*
X4254695Y-8748796D01*
X4146250Y-8868155D01*
X4774168Y-9182928D02*
G01*
X4826182Y-9233057D01*
X4826182Y-9182257D02*
G01*
X3982501Y-9193184D01*
X2756082Y-9447171D02*
G01*
X1778208Y-9448957D01*
X3162495Y-9258185D02*
G01*
X2794195Y-9256671D01*
X4254695Y-8748809D02*
G01*
X4254695Y-8521981D01*
X2413208Y-8521857D01*
X2883095Y-9320171D02*
G01*
X2755635Y-9447171D01*
X3162495Y-9323092D02*
G01*
X3162495Y-9320296D01*
X2883095Y-9320171D01*
X3162495Y-9388180D02*
G01*
X2998734Y-9388180D01*
X4305495Y-8890157D02*
G01*
X4305495Y-8933157D01*
X3982501Y-8933157D01*
X4146250Y-8868155D02*
G01*
X3982501Y-8868155D01*
X4432482Y-9256671D02*
G01*
X3982501Y-9258160D01*
D13*
X2158997Y-8394684D02*
G01*
X7238984Y-8394684D01*
X2832097Y-8140684D02*
G01*
X5587984Y-8140684D01*
D14*
X5841984Y-6934197D02*
G01*
X5714984Y-6934184D01*
X5587984Y-6807197D01*
X4444984Y-6807197D01*
X5841984Y-5410197D02*
G01*
X5714984Y-5410197D01*
X5587984Y-5283197D01*
X4444984Y-5283197D01*
X7492984Y-3886197D02*
G01*
X7365984Y-3886197D01*
X7238984Y-3759197D01*
X6095984Y-3759197D01*
X5841984Y-3886197D02*
G01*
X5714984Y-3886197D01*
X5587984Y-3759197D01*
X4444984Y-3759197D01*
X4190984Y-3886197D02*
G01*
X4063984Y-3886197D01*
X3936997Y-3759197D01*
X2793997Y-3759197D01*
X4778552Y-3378197D02*
G01*
X7492984Y-3378197D01*
X5841984Y-2362197D02*
G01*
X5714984Y-2362197D01*
X5587984Y-2235197D01*
X4444984Y-2235197D01*
X7492984Y-2362197D02*
G01*
X7365984Y-2362197D01*
X7238984Y-2235197D01*
X6095984Y-2235197D01*
X6095984Y-6807197D02*
G01*
X5968984Y-6934197D01*
X5841984Y-6934197D01*
X4444984Y-6807197D02*
G01*
X4317984Y-6934197D01*
X4190984Y-6934197D01*
X2793997Y-6807197D02*
G01*
X2666997Y-6934197D01*
X2539997Y-6934197D01*
X6095984Y-5283197D02*
G01*
X5968984Y-5410197D01*
X5841984Y-5410197D01*
X7746984Y-5283197D02*
G01*
X7619984Y-5410197D01*
X7492984Y-5410197D01*
X7746984Y-3759197D02*
G01*
X7619984Y-3886197D01*
X7492984Y-3886197D01*
X6095984Y-3759197D02*
G01*
X5968984Y-3886197D01*
X5841984Y-3886197D01*
X4444984Y-3759197D02*
G01*
X4317984Y-3886197D01*
X4190984Y-3886197D01*
X2793997Y-2235197D02*
G01*
X2666997Y-2362197D01*
X2539997Y-2362197D01*
X4444984Y-2235197D02*
G01*
X4317984Y-2362197D01*
X4190984Y-2362197D01*
X6095984Y-2235197D02*
G01*
X5968984Y-2362197D01*
X5841984Y-2362197D01*
X7746984Y-2235197D02*
G01*
X7619984Y-2362197D01*
X7492984Y-2362197D01*
X7492984Y-6426197D02*
G01*
X7746984Y-6425681D01*
D10*
X7746972Y-6299103D02*
G01*
X7746972Y-6553085D01*
X5841984Y-6426197D02*
G01*
X6095984Y-6425681D01*
X6095972Y-6299103D02*
G01*
X6095972Y-6553085D01*
X4190984Y-6426197D02*
G01*
X4444984Y-6425681D01*
X4444972Y-6299103D02*
G01*
X4444972Y-6553085D01*
X2539997Y-6426197D02*
G01*
X2793997Y-6425681D01*
X2793972Y-6299103D02*
G01*
X2793972Y-6553085D01*
X7746972Y-4775103D02*
G01*
X7746972Y-5029085D01*
X5841984Y-4902197D02*
G01*
X6095984Y-4901681D01*
X6095972Y-4775103D02*
G01*
X6095972Y-5029085D01*
X4190984Y-4902197D02*
G01*
X4444984Y-4901681D01*
X4444972Y-4775103D02*
G01*
X4444972Y-5029085D01*
X2539997Y-4902197D02*
G01*
X2793997Y-4901681D01*
X2793972Y-4775103D02*
G01*
X2793972Y-5029085D01*
D14*
X7492984Y-3378197D02*
G01*
X7746984Y-3377681D01*
D10*
X7746972Y-3251116D02*
G01*
X7746972Y-3505090D01*
X5841984Y-3378197D02*
G01*
X6095984Y-3377681D01*
X6095972Y-3251116D02*
G01*
X6095972Y-3505090D01*
X4190984Y-3378197D02*
G01*
X4444984Y-3377681D01*
X4444972Y-3251116D02*
G01*
X4444972Y-3505090D01*
X2539997Y-3378197D02*
G01*
X2793997Y-3377681D01*
X2793972Y-3251116D02*
G01*
X2793972Y-3505090D01*
X2793972Y-1727116D02*
G01*
X2793972Y-1981090D01*
X4190984Y-1854197D02*
G01*
X4444984Y-1853681D01*
X4444972Y-1727116D02*
G01*
X4444972Y-1981090D01*
X5841984Y-1854197D02*
G01*
X6095984Y-1853681D01*
X6095972Y-1727116D02*
G01*
X6095972Y-1981090D01*
X7746984Y-1727215D02*
G01*
X7746984Y-1981197D01*
X6095984Y-1981197D02*
G01*
X6095984Y-1727215D01*
D16*
X4432546Y-9256776D02*
G01*
X4672070Y-9256776D01*
X4787897Y-9372602D01*
X6095997Y-9372602D01*
X6095997Y-9334477D01*
X2895795Y-9688471D02*
G01*
X2895795Y-9434471D01*
X2933895Y-9396371D01*
X2951091Y-9388154D01*
X2998746Y-9388154D01*
D13*
X8512916Y-10155930D02*
G01*
X5588000Y-10161270D01*
D10*
X10159974Y-7873974D02*
G01*
X10283037Y-7997037D01*
X10283037Y-8988856D01*
D12*
X9906000Y-7874000D02*
G01*
X9906000Y-9393936D01*
X10282936Y-9393936D01*
X9397972Y-7873974D02*
G01*
X9397972Y-10286972D01*
X9651979Y-10540979D01*
X9655921Y-10537037D01*
X10283063Y-10537037D01*
X12763474Y-5244157D02*
G01*
X12763474Y-4939766D01*
X10283063Y-10410037D02*
G01*
X12950032Y-10410037D01*
X12953974Y-10413979D01*
X10283063Y-10156037D02*
G01*
X13204032Y-10156037D01*
X13207974Y-10159979D01*
X13171584Y-10028936D02*
G01*
X13461972Y-10028936D01*
D10*
X1376113Y-10286974D02*
G01*
X1016000Y-10286664D01*
D12*
X10283068Y-10664037D02*
G01*
X10413974Y-10794944D01*
X10413974Y-11683974D01*
X10283190Y-10028936D02*
G01*
X13208000Y-10028936D01*
X10680674Y-9778974D02*
G01*
X10557611Y-9902037D01*
X10283063Y-9902037D01*
D16*
X11524716Y-8635974D02*
G01*
X11386977Y-8498235D01*
X11386977Y-8170986D01*
X11386977Y-8127974D01*
D10*
X11980925Y-8128000D02*
G01*
X11429977Y-8127984D01*
D12*
X9143972Y-7873974D02*
G01*
X9143982Y-9258282D01*
X9140027Y-9267037D01*
X8512936Y-9267037D01*
X9652000Y-7874000D02*
G01*
X9652000Y-9520936D01*
X10282936Y-9520936D01*
X10713211Y-9143982D02*
G01*
X10667979Y-9143982D01*
X10283063Y-9140037D01*
X9845040Y-10799114D02*
G01*
X9845040Y-11089030D01*
X8635974Y-12298095D01*
X10668000Y-13060934D02*
G01*
X10413974Y-12806908D01*
X10413974Y-12593853D01*
D18*
G01*
X5842000Y-348749D03*
D19*
G01*
X5842000Y-667257D03*
D20*
G01*
X4826000Y-181610D03*
G01*
X4826000Y-834389D03*
G01*
X13970000Y-1088389D03*
G01*
X13970000Y-435610D03*
D18*
G01*
X13208000Y-1175250D03*
D19*
G01*
X13208000Y-856742D03*
D21*
G01*
X16582390Y-7620000D03*
G01*
X15929609Y-7620000D03*
D22*
G01*
X16096749Y-6858000D03*
G01*
X16415250Y-6858000D03*
D23*
G01*
X15653250Y-4572000D03*
G01*
X15334749Y-4572000D03*
D20*
G01*
X14732000Y-2612389D03*
G01*
X14732000Y-1959610D03*
D21*
G01*
X16582390Y-8636000D03*
G01*
X15929609Y-8636000D03*
D22*
G01*
X16096749Y-6604000D03*
G01*
X16415250Y-6604000D03*
D23*
G01*
X16415250Y-3810000D03*
G01*
X16096749Y-3810000D03*
D21*
G01*
X16183609Y-4572000D03*
G01*
X16836390Y-4572000D03*
D18*
G01*
X13716000Y-2380749D03*
D19*
G01*
X13716000Y-2699257D03*
D23*
G01*
X1683250Y-9906000D03*
G01*
X1364749Y-9906000D03*
D18*
G01*
X13716000Y-5428749D03*
D19*
G01*
X13716000Y-5747257D03*
D24*
G01*
X8335136Y-422249D03*
G01*
X8335136Y-592251D03*
G01*
X8335136Y-762254D03*
G01*
X8335136Y-932256D03*
G01*
X8335136Y-1102258D03*
D25*
G01*
X9445142Y-762254D03*
D26*
G01*
X16858995Y-9791090D03*
G01*
X16764000Y-9791090D03*
G01*
X16669004Y-9791090D03*
G01*
X16669004Y-10020909D03*
G01*
X16764000Y-10020909D03*
G01*
X16858995Y-10020909D03*
D27*
G01*
X15904463Y-10480039D03*
G01*
X15969488Y-10480039D03*
G01*
X16034511Y-10480039D03*
G01*
X16099536Y-10480039D03*
G01*
X15904463Y-9839960D03*
G01*
X15969488Y-9839960D03*
G01*
X16034511Y-9839960D03*
G01*
X16099536Y-9839960D03*
D28*
G01*
X14846909Y-4666995D03*
G01*
X14846909Y-4572000D03*
G01*
X14846909Y-4477004D03*
G01*
X14617090Y-4477004D03*
G01*
X14617090Y-4572000D03*
G01*
X14617090Y-4666995D03*
D26*
G01*
X16161004Y-5956909D03*
G01*
X16256000Y-5956909D03*
G01*
X16350995Y-5956909D03*
G01*
X16350995Y-5727090D03*
G01*
X16256000Y-5727090D03*
G01*
X16161004Y-5727090D03*
D29*
G01*
X3162554Y-9193276D03*
G01*
X3162554Y-9128277D03*
G01*
X3162554Y-9063278D03*
G01*
X3162554Y-8998280D03*
G01*
X3162554Y-8933281D03*
G01*
X3162554Y-9258274D03*
G01*
X3162554Y-9323273D03*
G01*
X3162554Y-9518269D03*
G01*
X3162554Y-8868283D03*
G01*
X3162554Y-9388271D03*
G01*
X3162554Y-9453270D03*
G01*
X3162554Y-8803284D03*
G01*
X3982567Y-8803259D03*
G01*
X3982567Y-9453245D03*
G01*
X3982567Y-9388246D03*
G01*
X3982567Y-8868257D03*
G01*
X3982567Y-9518243D03*
G01*
X3982567Y-9323247D03*
G01*
X3982567Y-9258249D03*
G01*
X3982567Y-8933256D03*
G01*
X3982567Y-8998254D03*
G01*
X3982567Y-9063253D03*
G01*
X3982567Y-9128252D03*
G01*
X3982567Y-9193276D03*
D30*
G01*
X11981078Y-8357996D03*
G01*
X11981078Y-8128000D03*
G01*
X11981078Y-7898003D03*
D31*
G01*
X11387094Y-8128000D03*
D32*
G01*
X12509500Y-2896539D03*
G01*
X12636500Y-2896539D03*
G01*
X12763500Y-2896539D03*
G01*
X12890500Y-2896539D03*
G01*
X13017500Y-2896539D03*
G01*
X13144500Y-2896539D03*
G01*
X13271500Y-2896539D03*
G01*
X13398500Y-2896539D03*
G01*
X12509500Y-2183460D03*
G01*
X12636500Y-2183460D03*
G01*
X12763500Y-2183460D03*
G01*
X12890500Y-2183460D03*
G01*
X13017500Y-2183460D03*
G01*
X13144500Y-2183460D03*
G01*
X13271500Y-2183460D03*
G01*
X13398500Y-2183460D03*
G01*
X12509500Y-5957239D03*
G01*
X12636500Y-5957239D03*
G01*
X12763500Y-5957239D03*
G01*
X12890500Y-5957239D03*
G01*
X13017500Y-5957239D03*
G01*
X13144500Y-5957239D03*
G01*
X13271500Y-5957239D03*
G01*
X13398500Y-5957239D03*
G01*
X12509500Y-5244160D03*
G01*
X12636500Y-5244160D03*
G01*
X12763500Y-5244160D03*
G01*
X12890500Y-5244160D03*
G01*
X13017500Y-5244160D03*
G01*
X13144500Y-5244160D03*
G01*
X13271500Y-5244160D03*
G01*
X13398500Y-5244160D03*
D33*
G01*
X16251986Y-11430000D03*
G01*
X15752013Y-11430000D03*
G01*
X16226586Y-12052300D03*
G01*
X15726613Y-12052300D03*
D34*
G01*
X12283998Y-762000D03*
G01*
X11084001Y-762000D03*
D35*
G01*
X14986000Y-6546011D03*
G01*
X14986000Y-5645988D03*
G01*
X14986000Y-7169988D03*
G01*
X14986000Y-8070011D03*
D36*
G01*
X8512936Y-9394037D03*
G01*
X8512936Y-9521037D03*
G01*
X8512936Y-9648037D03*
G01*
X8512936Y-9775037D03*
G01*
X8512936Y-9902037D03*
G01*
X8512936Y-10029037D03*
G01*
X8512936Y-10156037D03*
G01*
X8512936Y-10283037D03*
D37*
G01*
X9972040Y-10799114D03*
D36*
G01*
X10283063Y-10664037D03*
G01*
X10283063Y-10537037D03*
G01*
X10283063Y-10410037D03*
G01*
X10283063Y-10283037D03*
G01*
X10283063Y-10156037D03*
G01*
X10283063Y-10029037D03*
G01*
X10283063Y-9902037D03*
D37*
G01*
X9083040Y-10799114D03*
D36*
G01*
X8512936Y-10410037D03*
G01*
X8512936Y-10537037D03*
G01*
X8512936Y-10664037D03*
D37*
G01*
X8829040Y-10799114D03*
G01*
X8956040Y-10799114D03*
D36*
G01*
X8512936Y-9267037D03*
G01*
X8512936Y-9140037D03*
G01*
X8512936Y-9013037D03*
D37*
G01*
X9210040Y-10799114D03*
G01*
X9337040Y-10799114D03*
G01*
X9464040Y-10799114D03*
G01*
X9845040Y-10799114D03*
G01*
X9718040Y-10799114D03*
G01*
X9591040Y-10799114D03*
D36*
G01*
X10283063Y-9775037D03*
G01*
X10283063Y-9648037D03*
G01*
X10283063Y-9521037D03*
G01*
X10283063Y-9394037D03*
G01*
X10283063Y-9267037D03*
G01*
X10283063Y-9140037D03*
G01*
X10283063Y-9013037D03*
D38*
G01*
X5333989Y-12847850D03*
D39*
G01*
X5333989Y-12552095D03*
D38*
G01*
X8636000Y-2646123D03*
D39*
G01*
X8636000Y-2941878D03*
D38*
G01*
X10414000Y-12593876D03*
D39*
G01*
X10414000Y-12298121D03*
D38*
G01*
X9652000Y-2646123D03*
D39*
G01*
X9652000Y-2941878D03*
D40*
G01*
X10672523Y-2540000D03*
G01*
X10968276Y-2540000D03*
D38*
G01*
X12192000Y-1884123D03*
D39*
G01*
X12192000Y-2179878D03*
D38*
G01*
X8636000Y-4170123D03*
D39*
G01*
X8636000Y-4465878D03*
D38*
G01*
X9652000Y-4170123D03*
D39*
G01*
X9652000Y-4465878D03*
D38*
G01*
X10668000Y-4170123D03*
D39*
G01*
X10668000Y-4465878D03*
D38*
G01*
X11684000Y-4170123D03*
D39*
G01*
X11684000Y-4465878D03*
D38*
G01*
X8636000Y-5694123D03*
D39*
G01*
X8636000Y-5989878D03*
D38*
G01*
X9652000Y-5694123D03*
D39*
G01*
X9652000Y-5989878D03*
D38*
G01*
X9652000Y-12583970D03*
D39*
G01*
X9652000Y-12288215D03*
D40*
G01*
X10672523Y-5588000D03*
G01*
X10968276Y-5588000D03*
D38*
G01*
X8636000Y-12593876D03*
D39*
G01*
X8636000Y-12298121D03*
D38*
G01*
X12192000Y-4932123D03*
D39*
G01*
X12192000Y-5227878D03*
D38*
G01*
X8636000Y-7218123D03*
D39*
G01*
X8636000Y-7513878D03*
D38*
G01*
X9652000Y-7218123D03*
D39*
G01*
X9652000Y-7513878D03*
D38*
G01*
X10668000Y-7218123D03*
D39*
G01*
X10668000Y-7513878D03*
D41*
G01*
X1671876Y-10287000D03*
G01*
X1376123Y-10287000D03*
D38*
G01*
X11684000Y-7218123D03*
D39*
G01*
X11684000Y-7513878D03*
D42*
G01*
X3570097Y-761974D03*
G01*
X4050080Y-761974D03*
D43*
G01*
X10414088Y-1255966D03*
G01*
X10414088Y-775982D03*
D42*
G01*
X15000097Y-5079974D03*
G01*
X15480080Y-5079974D03*
D43*
G01*
X17272088Y-5065966D03*
G01*
X17272088Y-4585982D03*
D18*
G01*
X2286000Y-348749D03*
D19*
G01*
X2286000Y-667257D03*
D20*
G01*
X1524000Y-181610D03*
G01*
X1524000Y-834389D03*
D22*
G01*
X17366749Y-9398000D03*
G01*
X17685250Y-9398000D03*
D23*
G01*
X3613650Y-9817100D03*
G01*
X3295149Y-9817100D03*
G01*
X11843250Y-8636000D03*
G01*
X11524749Y-8636000D03*
D38*
G01*
X6693154Y-652477D03*
D39*
G01*
X6693154Y-948232D03*
D38*
G01*
X6350000Y-360123D03*
D39*
G01*
X6350000Y-655878D03*
D38*
G01*
X6947154Y-652477D03*
D39*
G01*
X6947154Y-948232D03*
D38*
G01*
X7201154Y-652477D03*
D39*
G01*
X7201154Y-948232D03*
D40*
G01*
X16108123Y-2032000D03*
G01*
X16403876Y-2032000D03*
G01*
X17136823Y-2667000D03*
G01*
X17432576Y-2667000D03*
D38*
G01*
X15494000Y-744776D03*
D39*
G01*
X15494000Y-449021D03*
D40*
G01*
X14838123Y-762000D03*
G01*
X15133876Y-762000D03*
D38*
G01*
X17144964Y-8475405D03*
D39*
G01*
X17144964Y-8771161D03*
D41*
G01*
X16657876Y-9398000D03*
G01*
X16362123Y-9398000D03*
D38*
G01*
X14732000Y-3408123D03*
D39*
G01*
X14732000Y-3703878D03*
D38*
G01*
X14986000Y-3408123D03*
D39*
G01*
X14986000Y-3703878D03*
D38*
G01*
X15240000Y-3408123D03*
D39*
G01*
X15240000Y-3703878D03*
D38*
G01*
X14986000Y-3916123D03*
D39*
G01*
X14986000Y-4211878D03*
D38*
G01*
X1016000Y-8275876D03*
D39*
G01*
X1016000Y-7980121D03*
D38*
G01*
X1016000Y-9037876D03*
D39*
G01*
X1016000Y-8742121D03*
D41*
G01*
X17673876Y-5842000D03*
G01*
X17378123Y-5842000D03*
G01*
X17673876Y-6096000D03*
G01*
X17378123Y-6096000D03*
G01*
X17673876Y-6350000D03*
G01*
X17378123Y-6350000D03*
G01*
X17165876Y-6350000D03*
G01*
X16870123Y-6350000D03*
D40*
G01*
X4030416Y-11671277D03*
G01*
X4326168Y-11671277D03*
D44*
G01*
X16338295Y-2478100D03*
G01*
X16148304Y-2478100D03*
G01*
X16243300Y-2678099D03*
D45*
G01*
X5209031Y-12192000D03*
G01*
X5458968Y-12097004D03*
G01*
X5458968Y-12286995D03*
G36*
X10299674Y-419100D02*
G01*
X11252174Y-419100D01*
X11252174Y-876300D01*
X10299674Y-876300D01*
G37*
G36*
X10947377Y-7873984D02*
G01*
X11531579Y-7873984D01*
X11531579Y-8724887D01*
X10947377Y-8724887D01*
G37*
G36*
X15976574Y-10413974D02*
G01*
X16027374Y-10413974D01*
X16027374Y-10553674D01*
X15976574Y-10553674D01*
G37*
G36*
X15976574Y-9766274D02*
G01*
X16040074Y-9766274D01*
X16040074Y-9905974D01*
X15976574Y-9905974D01*
G37*
G36*
X16687774Y-9378924D02*
G01*
X16763974Y-9378924D01*
X16763974Y-9474174D01*
X16687774Y-9474174D01*
G37*
G36*
X16014674Y-9321774D02*
G01*
X16319474Y-9321774D01*
X16319474Y-9474174D01*
X16014674Y-9474174D01*
G37*
G36*
X14858969Y-6616687D02*
G01*
X15112969Y-6616687D01*
X15112969Y-7124684D01*
X14858969Y-7124684D01*
G37*
G36*
X8140684Y-1079497D02*
G01*
X9677379Y-1079497D01*
X9677379Y-1866897D01*
X8140684Y-1866897D01*
G37*
G36*
X9632934Y-1219194D02*
G01*
X10413979Y-1219194D01*
X10413979Y-1866897D01*
X9632934Y-1866897D01*
G37*
G36*
X10413979Y-1523997D02*
G01*
X11683977Y-1523997D01*
X11683977Y-1917694D01*
X10413979Y-1917694D01*
G37*
G36*
X14262072Y-6451587D02*
G01*
X15062169Y-6451587D01*
X15062169Y-7251684D01*
X14262072Y-7251684D01*
G37*
G36*
X14998669Y-4216392D02*
G01*
X15278069Y-4216392D01*
X15278069Y-4571989D01*
X14998669Y-4571989D01*
G37*
G36*
X13944572Y-1092197D02*
G01*
X14223972Y-1092197D01*
X14223972Y-1371597D01*
X13944572Y-1371597D01*
G37*
G36*
X457200Y-9143982D02*
G01*
X1015997Y-9143982D01*
X1015997Y-9880579D01*
X457200Y-9880579D01*
G37*
D46*
G01*
X2793974Y-1727200D03*
D11*
G01*
X2540000Y-1854200D03*
G01*
X2794000Y-1981200D03*
G01*
X2540000Y-2108200D03*
G01*
X2794000Y-2235200D03*
G01*
X2540000Y-2362200D03*
D46*
G01*
X6095974Y-1727200D03*
D11*
G01*
X5842000Y-1854200D03*
G01*
X6096000Y-1981200D03*
G01*
X5842000Y-2108200D03*
G01*
X6096000Y-2235200D03*
G01*
X5842000Y-2362200D03*
D46*
G01*
X7746974Y-1727200D03*
D11*
G01*
X7492974Y-1854200D03*
G01*
X7746974Y-1981200D03*
G01*
X7492974Y-2108200D03*
G01*
X7746974Y-2235200D03*
G01*
X7492974Y-2362200D03*
D46*
G01*
X2793974Y-3251200D03*
D11*
G01*
X2540000Y-3378200D03*
G01*
X2794000Y-3505200D03*
G01*
X2540000Y-3632200D03*
G01*
X2794000Y-3759200D03*
G01*
X2540000Y-3886200D03*
D46*
G01*
X4444974Y-3251200D03*
D11*
G01*
X4191000Y-3378200D03*
G01*
X4445000Y-3505200D03*
G01*
X4191000Y-3632200D03*
G01*
X4445000Y-3759200D03*
G01*
X4191000Y-3886200D03*
D46*
G01*
X2793974Y-4775200D03*
D11*
G01*
X2540000Y-4902200D03*
G01*
X2794000Y-5029200D03*
G01*
X2540000Y-5156200D03*
G01*
X2794000Y-5283200D03*
G01*
X2540000Y-5410200D03*
D46*
G01*
X4444974Y-4775200D03*
D11*
G01*
X4191000Y-4902200D03*
G01*
X4445000Y-5029200D03*
G01*
X4191000Y-5156200D03*
G01*
X4445000Y-5283200D03*
G01*
X4191000Y-5410200D03*
D46*
G01*
X6095974Y-4775200D03*
D11*
G01*
X5842000Y-4902200D03*
G01*
X6096000Y-5029200D03*
G01*
X5842000Y-5156200D03*
G01*
X6096000Y-5283200D03*
G01*
X5842000Y-5410200D03*
D46*
G01*
X7746974Y-4775200D03*
D11*
G01*
X7492974Y-4902200D03*
G01*
X7746974Y-5029200D03*
G01*
X7492974Y-5156200D03*
G01*
X7746974Y-5283200D03*
G01*
X7492974Y-5410200D03*
D46*
G01*
X2793974Y-6299200D03*
D11*
G01*
X2540000Y-6426200D03*
G01*
X2794000Y-6553200D03*
G01*
X2540000Y-6680200D03*
G01*
X2794000Y-6807200D03*
G01*
X2540000Y-6934200D03*
D46*
G01*
X4444974Y-6299200D03*
D11*
G01*
X4191000Y-6426200D03*
G01*
X4445000Y-6553200D03*
G01*
X4191000Y-6680200D03*
G01*
X4445000Y-6807200D03*
G01*
X4191000Y-6934200D03*
D46*
G01*
X6095974Y-6299200D03*
D11*
G01*
X5842000Y-6426200D03*
G01*
X6096000Y-6553200D03*
G01*
X5842000Y-6680200D03*
G01*
X6096000Y-6807200D03*
G01*
X5842000Y-6934200D03*
D46*
G01*
X7746974Y-6299200D03*
D11*
G01*
X7492974Y-6426200D03*
G01*
X7746974Y-6553200D03*
G01*
X7492974Y-6680200D03*
G01*
X7746974Y-6807200D03*
G01*
X7492974Y-6934200D03*
D46*
G01*
X6095974Y-3251200D03*
D11*
G01*
X5842000Y-3378200D03*
G01*
X6096000Y-3505200D03*
G01*
X5842000Y-3632200D03*
G01*
X6096000Y-3759200D03*
G01*
X5842000Y-3886200D03*
D46*
G01*
X7746974Y-3251200D03*
D11*
G01*
X7492974Y-3378200D03*
G01*
X7746974Y-3505200D03*
G01*
X7492974Y-3632200D03*
G01*
X7746974Y-3759200D03*
G01*
X7492974Y-3886200D03*
D46*
G01*
X4444974Y-1727200D03*
D11*
G01*
X4191000Y-1854200D03*
G01*
X4445000Y-1981200D03*
G01*
X4191000Y-2108200D03*
G01*
X4445000Y-2235200D03*
G01*
X4191000Y-2362200D03*
D47*
G01*
X8635974Y-2159000D03*
G01*
X8635974Y-1905000D03*
G01*
X9651974Y-2159000D03*
G01*
X9651974Y-1905000D03*
D15*
G01*
X16764000Y-3251200D03*
G01*
X16764000Y-10470489D03*
G01*
X508000Y-758444D03*
G01*
X508000Y-257555D03*
G01*
X14986000Y-8893555D03*
G01*
X14986000Y-9394444D03*
D48*
G01*
X14328924Y-12678204D03*
G01*
X15028669Y-12678204D03*
G01*
X15728922Y-12678204D03*
D15*
G01*
X17017852Y-12446091D03*
G01*
X17017852Y-11430091D03*
G01*
X17017852Y-11938091D03*
G01*
X4572000Y-12954000D03*
G01*
X4572000Y-12446000D03*
D49*
G01*
X8890000Y-7874000D03*
G01*
X9144000Y-7874000D03*
G01*
X9398000Y-7874000D03*
G01*
X9652000Y-7874000D03*
G01*
X9906000Y-7874000D03*
D50*
G01*
X10160000Y-7874000D03*
D47*
G01*
X10668000Y-13060984D03*
G01*
X10668000Y-13314984D03*
G01*
X10668000Y-2159050D03*
G01*
X10668000Y-1905050D03*
G01*
X11684000Y-2159050D03*
G01*
X11684000Y-1905050D03*
G01*
X8636000Y-3683050D03*
G01*
X8636000Y-3429050D03*
G01*
X9652000Y-3683050D03*
G01*
X9652000Y-3429050D03*
G01*
X10668000Y-3683050D03*
G01*
X10668000Y-3429050D03*
G01*
X11684000Y-3683050D03*
G01*
X11684000Y-3429050D03*
G01*
X8636000Y-5207050D03*
G01*
X8636000Y-4953050D03*
G01*
X9652000Y-5207050D03*
G01*
X9652000Y-4953050D03*
G01*
X9652000Y-13070890D03*
G01*
X9652000Y-13324890D03*
G01*
X10668000Y-5207050D03*
G01*
X10668000Y-4953050D03*
G01*
X8636000Y-13081050D03*
G01*
X8636000Y-13335050D03*
G01*
X11684000Y-5207050D03*
G01*
X11684000Y-4953050D03*
G01*
X8636000Y-6731050D03*
G01*
X8636000Y-6477050D03*
G01*
X9652000Y-6731050D03*
G01*
X9652000Y-6477050D03*
G01*
X10668000Y-6731050D03*
G01*
X10668000Y-6477050D03*
G01*
X11684000Y-6731050D03*
G01*
X11684000Y-6477050D03*
D51*
G01*
X1016000Y-9906000D03*
D52*
G01*
X1016000Y-10160000D03*
G01*
X1016000Y-10414000D03*
G01*
X1016000Y-10668000D03*
G01*
X1016000Y-12382500D03*
D53*
G01*
X2293995Y-12187976D03*
G01*
X2793994Y-12187976D03*
G01*
X3293993Y-12187976D03*
G01*
X3293993Y-11687977D03*
G01*
X2793994Y-11687977D03*
G01*
X2293995Y-11687977D03*
D14*
G01*
X9352000Y-14224000D03*
G01*
X9652000Y-14224000D03*
G01*
X9951999Y-14224000D03*
D15*
G01*
X9017000Y-14224000D03*
G01*
X10287000Y-14224000D03*
D10*
G01*
X2832303Y-8888374D03*
G01*
X4305503Y-8890152D03*
G01*
X2629103Y-9231274D03*
G01*
X2286203Y-9029852D03*
G01*
X2413203Y-8521852D03*
G01*
X2794000Y-7632674D03*
G01*
X5080203Y-9169552D03*
G01*
X5080000Y-7632674D03*
G01*
X1778203Y-9448952D03*
G01*
X2032000Y-7759674D03*
G01*
X2032203Y-9315780D03*
G01*
X3810000Y-7759674D03*
G01*
X2540000Y-7886674D03*
G01*
X3937000Y-7886674D03*
G01*
X4826203Y-9233052D03*
G01*
X2679700Y-8013674D03*
G01*
X5461000Y-8013674D03*
G01*
X5588000Y-8140674D03*
G01*
X2832100Y-8140674D03*
G01*
X5715203Y-8902852D03*
G01*
X6096000Y-9334474D03*
G01*
X7112000Y-8267674D03*
G01*
X7239000Y-8394674D03*
G01*
X7366203Y-9029852D03*
G01*
X7721574Y-9436074D03*
G01*
X3454400Y-8839174D03*
G01*
X12611074Y-1905000D03*
G01*
X12191974Y-3187700D03*
G01*
X13119074Y-4279900D03*
G01*
X10921974Y-4635500D03*
G01*
X12992074Y-4025900D03*
G01*
X10159974Y-4368800D03*
G01*
X9143974Y-4064000D03*
G01*
X12865074Y-3733800D03*
G01*
X12788874Y-1905000D03*
G01*
X13144474Y-1905000D03*
G01*
X12966674Y-1905000D03*
G01*
X12191974Y-6248400D03*
G01*
X12611074Y-4965700D03*
G01*
X9143974Y-7124700D03*
G01*
X10159974Y-7429500D03*
G01*
X10921974Y-7696200D03*
G01*
X13119074Y-7340600D03*
G01*
X12865074Y-6794500D03*
G01*
X12992074Y-7086600D03*
G01*
X12966674Y-4965700D03*
G01*
X13144474Y-4965700D03*
G01*
X12788874Y-4965700D03*
G01*
X12611074Y-4965700D03*
G01*
X13461974Y-5080000D03*
G01*
X13842974Y-3048000D03*
G01*
X13842974Y-2159000D03*
G01*
X4572000Y-10071074D03*
G01*
X3949700Y-10109174D03*
G01*
X3695700Y-10350474D03*
D14*
G01*
X7912074Y-215900D03*
G01*
X6096000Y-1016000D03*
G01*
X7823174Y-520700D03*
G01*
X10668000Y-520700D03*
D10*
G01*
X7365974Y-1130300D03*
G01*
X12699974Y-1143000D03*
D14*
G01*
X4787889Y-6426187D03*
G01*
X3835392Y-254000D03*
G01*
X4065803Y-254000D03*
G01*
X4773828Y-1856765D03*
G01*
X4778552Y-3378098D03*
G01*
X4783302Y-4902301D03*
G01*
X3124194Y-6807187D03*
G01*
X3124200Y-5282539D03*
G01*
X3124200Y-3758641D03*
G01*
X3124200Y-2235809D03*
G01*
X3124200Y-762000D03*
G01*
X2895594Y-761997D03*
D10*
G01*
X3162300Y-8648674D03*
D14*
G01*
X2285994Y-10159979D03*
G01*
X4745456Y-10921974D03*
G01*
X8381982Y-8635982D03*
D10*
G01*
X12950037Y-10410037D03*
G01*
X13204037Y-10156037D03*
G01*
X13461974Y-10028936D03*
D14*
G01*
X2146294Y-10667979D03*
D10*
G01*
X10413974Y-11683974D03*
G01*
X10680674Y-9778974D03*
D14*
G01*
X11061677Y-8153384D03*
D10*
G01*
X11175974Y-11937974D03*
G01*
X11175977Y-9397982D03*
G01*
X10921974Y-9397974D03*
G01*
X16383000Y-9969500D03*
G01*
X17271974Y-9651974D03*
D14*
G01*
X17691074Y-10413974D03*
D10*
G01*
X6349987Y-11175977D03*
G01*
X10274279Y-11937974D03*
G01*
X5841989Y-11937979D03*
D14*
G01*
X8750282Y-11112477D03*
D10*
G01*
X6857987Y-11175977D03*
G01*
X14211300Y-1727200D03*
G01*
X8886040Y-9902037D03*
G01*
X11683977Y-9397982D03*
G01*
X13715972Y-9397982D03*
D14*
G01*
X17017966Y-6857987D03*
G01*
X15747992Y-6350010D03*
G01*
X15747966Y-5465338D03*
D10*
G01*
X6349987Y-9905979D03*
G01*
X13842972Y-6349989D03*
D14*
G01*
X11937977Y-8889982D03*
G01*
X10667918Y-8889982D03*
G01*
X15316169Y-4216392D03*
D47*
G01*
X8635974Y-1905688D03*
G01*
X9651974Y-1905688D03*
G01*
X10668000Y-1905690D03*
G01*
X11683987Y-1905690D03*
D14*
G01*
X15747969Y-2539994D03*
G01*
X14223972Y-1269997D03*
G01*
X14477972Y-1777997D03*
G01*
X14731969Y-3047994D03*
G01*
X17017966Y-8127984D03*
G01*
X1777997Y-11175977D03*
D10*
G01*
X10922000Y-12700000D03*
D14*
G01*
X15747969Y-2793994D03*
G01*
X2666994Y-761997D03*
G01*
X3604262Y-255915D03*
G01*
X3124200Y-2459616D03*
G01*
X3124197Y-3982239D03*
G01*
X3124200Y-5506346D03*
G01*
X3124194Y-7030994D03*
G01*
X4787889Y-6197587D03*
G01*
X4783302Y-4673701D03*
G01*
X4783302Y-4902197D03*
G01*
X4778552Y-3149498D03*
G01*
X4778552Y-3378197D03*
G01*
X4773828Y-1628165D03*
G01*
X4773828Y-1854197D03*
D10*
G01*
X2527508Y-8964584D03*
D14*
G01*
X17525964Y-8127984D03*
G01*
X14986000Y-9906000D03*
G01*
X14732000Y-10668000D03*
G01*
X13461972Y-10921977D03*
M02*
