G04 Layer: TopSilkscreenLayer*
G04 EasyEDA v6.5.40, 2024-05-11 17:08:49*
G04 43c8e0cd1118455ea74be200e722eb6b,361a7d54fb4a4915a4e9984872de9782,10*
G04 Gerber Generator version 0.2*
G04 Scale: 100 percent, Rotated: No, Reflected: No *
G04 Dimensions in millimeters *
G04 leading zeros omitted , absolute positions ,4 integer and 5 decimal *
%FSLAX45Y45*%
%MOMM*%

%ADD10C,0.5000*%
%ADD11C,0.1524*%
%ADD12C,0.2032*%
%ADD13C,0.1270*%
%ADD14C,0.2540*%
%ADD15C,0.2000*%
%ADD16C,0.2030*%
%ADD17C,0.1000*%
%ADD18C,0.3000*%
%ADD19C,0.4000*%
%ADD20C,0.0134*%

%LPD*%
G36*
X16653001Y-8209280D02*
G01*
X16653001Y-8322818D01*
X16899382Y-8322818D01*
X16899382Y-8209280D01*
G37*
G36*
X17212513Y-3090418D02*
G01*
X17212513Y-3258312D01*
X17043857Y-3258312D01*
X17043857Y-3351276D01*
X17212513Y-3351276D01*
X17212513Y-3520186D01*
X17304969Y-3520186D01*
X17304969Y-3351276D01*
X17473117Y-3351276D01*
X17473117Y-3258312D01*
X17304969Y-3258312D01*
X17304969Y-3090418D01*
G37*
D10*
X500136Y-5650976D02*
G01*
X472958Y-5678408D01*
X459242Y-5719302D01*
X459242Y-5773912D01*
X472958Y-5814806D01*
X500136Y-5841984D01*
X527568Y-5841984D01*
X554746Y-5828268D01*
X568462Y-5814806D01*
X581924Y-5787374D01*
X609356Y-5705586D01*
X622818Y-5678408D01*
X636534Y-5664692D01*
X663712Y-5650976D01*
X704606Y-5650976D01*
X732038Y-5678408D01*
X745754Y-5719302D01*
X745754Y-5773912D01*
X732038Y-5814806D01*
X704606Y-5841984D01*
X459242Y-5561060D02*
G01*
X745754Y-5561060D01*
X527568Y-5266420D02*
G01*
X500136Y-5280136D01*
X472958Y-5307568D01*
X459242Y-5334746D01*
X459242Y-5389356D01*
X472958Y-5416534D01*
X500136Y-5443712D01*
X527568Y-5457428D01*
X568462Y-5471144D01*
X636534Y-5471144D01*
X677428Y-5457428D01*
X704606Y-5443712D01*
X732038Y-5416534D01*
X745754Y-5389356D01*
X745754Y-5334746D01*
X732038Y-5307568D01*
X704606Y-5280136D01*
X677428Y-5266420D01*
X636534Y-5266420D01*
X636534Y-5334746D02*
G01*
X636534Y-5266420D01*
X459242Y-5176504D02*
G01*
X745754Y-5176504D01*
X459242Y-5176504D02*
G01*
X745754Y-4985750D01*
X459242Y-4985750D02*
G01*
X745754Y-4985750D01*
X459242Y-4786614D02*
G01*
X745754Y-4895580D01*
X459242Y-4786614D02*
G01*
X745754Y-4677394D01*
X650250Y-4854686D02*
G01*
X650250Y-4718288D01*
X459242Y-4587478D02*
G01*
X745754Y-4587478D01*
X745754Y-4587478D02*
G01*
X745754Y-4423902D01*
X513852Y-4333732D02*
G01*
X500136Y-4306554D01*
X459242Y-4265660D01*
X745754Y-4265660D01*
X500136Y-4011914D02*
G01*
X472958Y-4025630D01*
X459242Y-4066524D01*
X459242Y-4093702D01*
X472958Y-4134596D01*
X513852Y-4162028D01*
X581924Y-4175744D01*
X650250Y-4175744D01*
X704606Y-4162028D01*
X732038Y-4134596D01*
X745754Y-4093702D01*
X745754Y-4080240D01*
X732038Y-4039346D01*
X704606Y-4011914D01*
X663712Y-3998452D01*
X650250Y-3998452D01*
X609356Y-4011914D01*
X581924Y-4039346D01*
X568462Y-4080240D01*
X568462Y-4093702D01*
X581924Y-4134596D01*
X609356Y-4162028D01*
X650250Y-4175744D01*
X841004Y-3908282D02*
G01*
X841004Y-3662918D01*
X554746Y-3573002D02*
G01*
X745754Y-3490960D01*
X554746Y-3409172D02*
G01*
X745754Y-3490960D01*
X513852Y-3319256D02*
G01*
X500136Y-3292078D01*
X459242Y-3251184D01*
X745754Y-3251184D01*
D11*
X1906272Y-1980041D02*
G01*
X1906272Y-2063353D01*
X1900938Y-2078847D01*
X1895858Y-2084181D01*
X1885444Y-2089261D01*
X1875030Y-2089261D01*
X1864616Y-2084181D01*
X1859282Y-2078847D01*
X1854202Y-2063353D01*
X1854202Y-2052939D01*
X1940562Y-2000869D02*
G01*
X1950722Y-1995789D01*
X1966470Y-1980041D01*
X1966470Y-2089261D01*
X5182862Y-1992741D02*
G01*
X5182862Y-2076053D01*
X5177528Y-2091547D01*
X5172448Y-2096881D01*
X5162034Y-2101961D01*
X5151620Y-2101961D01*
X5141206Y-2096881D01*
X5135872Y-2091547D01*
X5130792Y-2076053D01*
X5130792Y-2065639D01*
X5227312Y-1992741D02*
G01*
X5284462Y-1992741D01*
X5253474Y-2034397D01*
X5268968Y-2034397D01*
X5279382Y-2039731D01*
X5284462Y-2044811D01*
X5289796Y-2060305D01*
X5289796Y-2070719D01*
X5284462Y-2086467D01*
X5274302Y-2096881D01*
X5258554Y-2101961D01*
X5243060Y-2101961D01*
X5227312Y-2096881D01*
X5222232Y-2091547D01*
X5217152Y-2081133D01*
X6833857Y-1992723D02*
G01*
X6833857Y-2076035D01*
X6828523Y-2091529D01*
X6823443Y-2096863D01*
X6813029Y-2101943D01*
X6802615Y-2101943D01*
X6792201Y-2096863D01*
X6786867Y-2091529D01*
X6781787Y-2076035D01*
X6781787Y-2065621D01*
X6919963Y-1992723D02*
G01*
X6868147Y-2065621D01*
X6945871Y-2065621D01*
X6919963Y-1992723D02*
G01*
X6919963Y-2101943D01*
X1880872Y-3504039D02*
G01*
X1880872Y-3587351D01*
X1875538Y-3602845D01*
X1870458Y-3608179D01*
X1860044Y-3613259D01*
X1849630Y-3613259D01*
X1839216Y-3608179D01*
X1833882Y-3602845D01*
X1828802Y-3587351D01*
X1828802Y-3576937D01*
X1977392Y-3504039D02*
G01*
X1925322Y-3504039D01*
X1920242Y-3551029D01*
X1925322Y-3545695D01*
X1941070Y-3540615D01*
X1956564Y-3540615D01*
X1972312Y-3545695D01*
X1982472Y-3556109D01*
X1987806Y-3571603D01*
X1987806Y-3582017D01*
X1982472Y-3597765D01*
X1972312Y-3608179D01*
X1956564Y-3613259D01*
X1941070Y-3613259D01*
X1925322Y-3608179D01*
X1920242Y-3602845D01*
X1915162Y-3592431D01*
X3531864Y-3504041D02*
G01*
X3531864Y-3587353D01*
X3526530Y-3602847D01*
X3521450Y-3608181D01*
X3511036Y-3613261D01*
X3500622Y-3613261D01*
X3490208Y-3608181D01*
X3484874Y-3602847D01*
X3479794Y-3587353D01*
X3479794Y-3576939D01*
X3628384Y-3519789D02*
G01*
X3623304Y-3509375D01*
X3607556Y-3504041D01*
X3597142Y-3504041D01*
X3581648Y-3509375D01*
X3571234Y-3524869D01*
X3566154Y-3551031D01*
X3566154Y-3576939D01*
X3571234Y-3597767D01*
X3581648Y-3608181D01*
X3597142Y-3613261D01*
X3602476Y-3613261D01*
X3617970Y-3608181D01*
X3628384Y-3597767D01*
X3633464Y-3582019D01*
X3633464Y-3576939D01*
X3628384Y-3561191D01*
X3617970Y-3551031D01*
X3602476Y-3545697D01*
X3597142Y-3545697D01*
X3581648Y-3551031D01*
X3571234Y-3561191D01*
X3566154Y-3576939D01*
X1880870Y-5028041D02*
G01*
X1880870Y-5111353D01*
X1875536Y-5126847D01*
X1870455Y-5132181D01*
X1860042Y-5137261D01*
X1849628Y-5137261D01*
X1839213Y-5132181D01*
X1833879Y-5126847D01*
X1828800Y-5111353D01*
X1828800Y-5100939D01*
X1982470Y-5064617D02*
G01*
X1977390Y-5080111D01*
X1966975Y-5090525D01*
X1951481Y-5095605D01*
X1946147Y-5095605D01*
X1930654Y-5090525D01*
X1920239Y-5080111D01*
X1915160Y-5064617D01*
X1915160Y-5059283D01*
X1920239Y-5043789D01*
X1930654Y-5033375D01*
X1946147Y-5028041D01*
X1951481Y-5028041D01*
X1966975Y-5033375D01*
X1977390Y-5043789D01*
X1982470Y-5064617D01*
X1982470Y-5090525D01*
X1977390Y-5116433D01*
X1966975Y-5132181D01*
X1951481Y-5137261D01*
X1941068Y-5137261D01*
X1925320Y-5132181D01*
X1920239Y-5121767D01*
X3493762Y-5028041D02*
G01*
X3493762Y-5111353D01*
X3488428Y-5126847D01*
X3483348Y-5132181D01*
X3472934Y-5137261D01*
X3462520Y-5137261D01*
X3452106Y-5132181D01*
X3446772Y-5126847D01*
X3441692Y-5111353D01*
X3441692Y-5100939D01*
X3528052Y-5048869D02*
G01*
X3538212Y-5043789D01*
X3553960Y-5028041D01*
X3553960Y-5137261D01*
X3619492Y-5028041D02*
G01*
X3603744Y-5033375D01*
X3593330Y-5048869D01*
X3588250Y-5075031D01*
X3588250Y-5090525D01*
X3593330Y-5116433D01*
X3603744Y-5132181D01*
X3619492Y-5137261D01*
X3629652Y-5137261D01*
X3645400Y-5132181D01*
X3655814Y-5116433D01*
X3660894Y-5090525D01*
X3660894Y-5075031D01*
X3655814Y-5048869D01*
X3645400Y-5033375D01*
X3629652Y-5028041D01*
X3619492Y-5028041D01*
X5182857Y-5040741D02*
G01*
X5182857Y-5124053D01*
X5177523Y-5139547D01*
X5172443Y-5144881D01*
X5162029Y-5149961D01*
X5151615Y-5149961D01*
X5141201Y-5144881D01*
X5135867Y-5139547D01*
X5130787Y-5124053D01*
X5130787Y-5113639D01*
X5217147Y-5061569D02*
G01*
X5227307Y-5056489D01*
X5243055Y-5040741D01*
X5243055Y-5149961D01*
X5277345Y-5061569D02*
G01*
X5287759Y-5056489D01*
X5303253Y-5040741D01*
X5303253Y-5149961D01*
X6808452Y-5040723D02*
G01*
X6808452Y-5124035D01*
X6803118Y-5139529D01*
X6798038Y-5144863D01*
X6787624Y-5149943D01*
X6777210Y-5149943D01*
X6766796Y-5144863D01*
X6761462Y-5139529D01*
X6756382Y-5124035D01*
X6756382Y-5113621D01*
X6842742Y-5061551D02*
G01*
X6852902Y-5056471D01*
X6868650Y-5040723D01*
X6868650Y-5149943D01*
X6908020Y-5066885D02*
G01*
X6908020Y-5061551D01*
X6913354Y-5051137D01*
X6918434Y-5046057D01*
X6928848Y-5040723D01*
X6949676Y-5040723D01*
X6960090Y-5046057D01*
X6965170Y-5051137D01*
X6970504Y-5061551D01*
X6970504Y-5071965D01*
X6965170Y-5082379D01*
X6954756Y-5097873D01*
X6902940Y-5149943D01*
X6975584Y-5149943D01*
X1830064Y-6564746D02*
G01*
X1830064Y-6648058D01*
X1824730Y-6663552D01*
X1819650Y-6668886D01*
X1809236Y-6673966D01*
X1798822Y-6673966D01*
X1788408Y-6668886D01*
X1783074Y-6663552D01*
X1777994Y-6648058D01*
X1777994Y-6637644D01*
X1864354Y-6585574D02*
G01*
X1874514Y-6580494D01*
X1890262Y-6564746D01*
X1890262Y-6673966D01*
X1934966Y-6564746D02*
G01*
X1992116Y-6564746D01*
X1960874Y-6606402D01*
X1976368Y-6606402D01*
X1986782Y-6611736D01*
X1992116Y-6616816D01*
X1997196Y-6632310D01*
X1997196Y-6642724D01*
X1992116Y-6658472D01*
X1981702Y-6668886D01*
X1965954Y-6673966D01*
X1950460Y-6673966D01*
X1934966Y-6668886D01*
X1929632Y-6663552D01*
X1924552Y-6653138D01*
X3506457Y-6552046D02*
G01*
X3506457Y-6635358D01*
X3501123Y-6650852D01*
X3496043Y-6656186D01*
X3485629Y-6661266D01*
X3475215Y-6661266D01*
X3464801Y-6656186D01*
X3459467Y-6650852D01*
X3454387Y-6635358D01*
X3454387Y-6624944D01*
X3540747Y-6572874D02*
G01*
X3550907Y-6567794D01*
X3566655Y-6552046D01*
X3566655Y-6661266D01*
X3652761Y-6552046D02*
G01*
X3600945Y-6624944D01*
X3678923Y-6624944D01*
X3652761Y-6552046D02*
G01*
X3652761Y-6661266D01*
X5157452Y-6552046D02*
G01*
X5157452Y-6635358D01*
X5152118Y-6650852D01*
X5147038Y-6656186D01*
X5136624Y-6661266D01*
X5126210Y-6661266D01*
X5115796Y-6656186D01*
X5110462Y-6650852D01*
X5105382Y-6635358D01*
X5105382Y-6624944D01*
X5191742Y-6572874D02*
G01*
X5201902Y-6567794D01*
X5217650Y-6552046D01*
X5217650Y-6661266D01*
X5314170Y-6552046D02*
G01*
X5262354Y-6552046D01*
X5257020Y-6599036D01*
X5262354Y-6593702D01*
X5277848Y-6588622D01*
X5293342Y-6588622D01*
X5309090Y-6593702D01*
X5319504Y-6604116D01*
X5324584Y-6619610D01*
X5324584Y-6630024D01*
X5319504Y-6645772D01*
X5309090Y-6656186D01*
X5293342Y-6661266D01*
X5277848Y-6661266D01*
X5262354Y-6656186D01*
X5257020Y-6650852D01*
X5251940Y-6640438D01*
X6795747Y-6552023D02*
G01*
X6795747Y-6635335D01*
X6790413Y-6650829D01*
X6785333Y-6656163D01*
X6774919Y-6661243D01*
X6764505Y-6661243D01*
X6754091Y-6656163D01*
X6748757Y-6650829D01*
X6743677Y-6635335D01*
X6743677Y-6624921D01*
X6830037Y-6572851D02*
G01*
X6840197Y-6567771D01*
X6855945Y-6552023D01*
X6855945Y-6661243D01*
X6952465Y-6567771D02*
G01*
X6947385Y-6557357D01*
X6931637Y-6552023D01*
X6921477Y-6552023D01*
X6905729Y-6557357D01*
X6895315Y-6572851D01*
X6890235Y-6599013D01*
X6890235Y-6624921D01*
X6895315Y-6645749D01*
X6905729Y-6656163D01*
X6921477Y-6661243D01*
X6926557Y-6661243D01*
X6942051Y-6656163D01*
X6952465Y-6645749D01*
X6957799Y-6630001D01*
X6957799Y-6624921D01*
X6952465Y-6609173D01*
X6942051Y-6599013D01*
X6926557Y-6593679D01*
X6921477Y-6593679D01*
X6905729Y-6599013D01*
X6895315Y-6609173D01*
X6890235Y-6624921D01*
X5169913Y-3516853D02*
G01*
X5169913Y-3599911D01*
X5164833Y-3615659D01*
X5159753Y-3620739D01*
X5149339Y-3626073D01*
X5138925Y-3626073D01*
X5128511Y-3620739D01*
X5123177Y-3615659D01*
X5118097Y-3599911D01*
X5118097Y-3589497D01*
X5277101Y-3516853D02*
G01*
X5225031Y-3626073D01*
X5204203Y-3516853D02*
G01*
X5277101Y-3516853D01*
X6821159Y-3516833D02*
G01*
X6821159Y-3599891D01*
X6815825Y-3615639D01*
X6810745Y-3620719D01*
X6800331Y-3626053D01*
X6789917Y-3626053D01*
X6779503Y-3620719D01*
X6774169Y-3615639D01*
X6769089Y-3599891D01*
X6769089Y-3589477D01*
X6881357Y-3516833D02*
G01*
X6865609Y-3521913D01*
X6860529Y-3532327D01*
X6860529Y-3542741D01*
X6865609Y-3553155D01*
X6876023Y-3558489D01*
X6896851Y-3563569D01*
X6912599Y-3568903D01*
X6922759Y-3579063D01*
X6928093Y-3589477D01*
X6928093Y-3605225D01*
X6922759Y-3615639D01*
X6917679Y-3620719D01*
X6902185Y-3626053D01*
X6881357Y-3626053D01*
X6865609Y-3620719D01*
X6860529Y-3615639D01*
X6855449Y-3605225D01*
X6855449Y-3589477D01*
X6860529Y-3579063D01*
X6870943Y-3568903D01*
X6886437Y-3563569D01*
X6907265Y-3558489D01*
X6917679Y-3553155D01*
X6922759Y-3542741D01*
X6922759Y-3532327D01*
X6917679Y-3521913D01*
X6902185Y-3516833D01*
X6881357Y-3516833D01*
X3506322Y-1992985D02*
G01*
X3506322Y-2076043D01*
X3501242Y-2091537D01*
X3495908Y-2096871D01*
X3485494Y-2101951D01*
X3475080Y-2101951D01*
X3464666Y-2096871D01*
X3459586Y-2091537D01*
X3454506Y-2076043D01*
X3454506Y-2065629D01*
X3545946Y-2018893D02*
G01*
X3545946Y-2013559D01*
X3551026Y-2003145D01*
X3556106Y-1998065D01*
X3566520Y-1992985D01*
X3587348Y-1992985D01*
X3597762Y-1998065D01*
X3603096Y-2003145D01*
X3608176Y-2013559D01*
X3608176Y-2023973D01*
X3603096Y-2034387D01*
X3592682Y-2050135D01*
X3540612Y-2101951D01*
X3613256Y-2101951D01*
X8483574Y-1649986D02*
G01*
X8483574Y-1758952D01*
X8483574Y-1758952D02*
G01*
X8545804Y-1758952D01*
X8580094Y-1649986D02*
G01*
X8580094Y-1758952D01*
X8580094Y-1649986D02*
G01*
X8647658Y-1649986D01*
X8580094Y-1701802D02*
G01*
X8621750Y-1701802D01*
X8580094Y-1758952D02*
G01*
X8647658Y-1758952D01*
X8681948Y-1649986D02*
G01*
X8681948Y-1758952D01*
X8681948Y-1649986D02*
G01*
X8718524Y-1649986D01*
X8734018Y-1655066D01*
X8744432Y-1665480D01*
X8749512Y-1675894D01*
X8754846Y-1691642D01*
X8754846Y-1717550D01*
X8749512Y-1733044D01*
X8744432Y-1743458D01*
X8734018Y-1753872D01*
X8718524Y-1758952D01*
X8681948Y-1758952D01*
X8789136Y-1670814D02*
G01*
X8799550Y-1665480D01*
X8815044Y-1649986D01*
X8815044Y-1758952D01*
X9461477Y-1649986D02*
G01*
X9461477Y-1758952D01*
X9461477Y-1758952D02*
G01*
X9523707Y-1758952D01*
X9557997Y-1649986D02*
G01*
X9557997Y-1758952D01*
X9557997Y-1649986D02*
G01*
X9625561Y-1649986D01*
X9557997Y-1701802D02*
G01*
X9599653Y-1701802D01*
X9557997Y-1758952D02*
G01*
X9625561Y-1758952D01*
X9659851Y-1649986D02*
G01*
X9659851Y-1758952D01*
X9659851Y-1649986D02*
G01*
X9696427Y-1649986D01*
X9711921Y-1655066D01*
X9722335Y-1665480D01*
X9727415Y-1675894D01*
X9732749Y-1691642D01*
X9732749Y-1717550D01*
X9727415Y-1733044D01*
X9722335Y-1743458D01*
X9711921Y-1753872D01*
X9696427Y-1758952D01*
X9659851Y-1758952D01*
X9772119Y-1675894D02*
G01*
X9772119Y-1670814D01*
X9777453Y-1660400D01*
X9782533Y-1655066D01*
X9792947Y-1649986D01*
X9813775Y-1649986D01*
X9824189Y-1655066D01*
X9829269Y-1660400D01*
X9834603Y-1670814D01*
X9834603Y-1681228D01*
X9829269Y-1691642D01*
X9818855Y-1707136D01*
X9767039Y-1758952D01*
X9839683Y-1758952D01*
X16687792Y-2729504D02*
G01*
X16687792Y-2838470D01*
X16687792Y-2729504D02*
G01*
X16734528Y-2729504D01*
X16750022Y-2734584D01*
X16755356Y-2739918D01*
X16760436Y-2750332D01*
X16760436Y-2760746D01*
X16755356Y-2770906D01*
X16750022Y-2776240D01*
X16734528Y-2781320D01*
X16687792Y-2781320D02*
G01*
X16734528Y-2781320D01*
X16750022Y-2786654D01*
X16755356Y-2791734D01*
X16760436Y-2802148D01*
X16760436Y-2817896D01*
X16755356Y-2828056D01*
X16750022Y-2833390D01*
X16734528Y-2838470D01*
X16687792Y-2838470D01*
X16794726Y-2750332D02*
G01*
X16805140Y-2744998D01*
X16820888Y-2729504D01*
X16820888Y-2838470D01*
X5843765Y-888489D02*
G01*
X5838431Y-878075D01*
X5828017Y-867661D01*
X5817857Y-862581D01*
X5797029Y-862581D01*
X5786615Y-867661D01*
X5776201Y-878075D01*
X5770867Y-888489D01*
X5765787Y-904237D01*
X5765787Y-930145D01*
X5770867Y-945639D01*
X5776201Y-956053D01*
X5786615Y-966467D01*
X5797029Y-971547D01*
X5817857Y-971547D01*
X5828017Y-966467D01*
X5838431Y-956053D01*
X5843765Y-945639D01*
X5878055Y-883409D02*
G01*
X5888469Y-878075D01*
X5903963Y-862581D01*
X5903963Y-971547D01*
X4815067Y-1091689D02*
G01*
X4809733Y-1081275D01*
X4799319Y-1070861D01*
X4789159Y-1065781D01*
X4768331Y-1065781D01*
X4757917Y-1070861D01*
X4747503Y-1081275D01*
X4742169Y-1091689D01*
X4737089Y-1107437D01*
X4737089Y-1133345D01*
X4742169Y-1148839D01*
X4747503Y-1159253D01*
X4757917Y-1169667D01*
X4768331Y-1174747D01*
X4789159Y-1174747D01*
X4799319Y-1169667D01*
X4809733Y-1159253D01*
X4815067Y-1148839D01*
X4854437Y-1091689D02*
G01*
X4854437Y-1086609D01*
X4859771Y-1076195D01*
X4864851Y-1070861D01*
X4875265Y-1065781D01*
X4896093Y-1065781D01*
X4906507Y-1070861D01*
X4911587Y-1076195D01*
X4916921Y-1086609D01*
X4916921Y-1097023D01*
X4911587Y-1107437D01*
X4901173Y-1122931D01*
X4849357Y-1174747D01*
X4922001Y-1174747D01*
X13946375Y-1371089D02*
G01*
X13941041Y-1360675D01*
X13930627Y-1350261D01*
X13920213Y-1345181D01*
X13899639Y-1345181D01*
X13889225Y-1350261D01*
X13878811Y-1360675D01*
X13873477Y-1371089D01*
X13868397Y-1386837D01*
X13868397Y-1412745D01*
X13873477Y-1428239D01*
X13878811Y-1438653D01*
X13889225Y-1449067D01*
X13899639Y-1454147D01*
X13920213Y-1454147D01*
X13930627Y-1449067D01*
X13941041Y-1438653D01*
X13946375Y-1428239D01*
X13991079Y-1345181D02*
G01*
X14048229Y-1345181D01*
X14016987Y-1386837D01*
X14032481Y-1386837D01*
X14042895Y-1391917D01*
X14048229Y-1396997D01*
X14053309Y-1412745D01*
X14053309Y-1423159D01*
X14048229Y-1438653D01*
X14037815Y-1449067D01*
X14022067Y-1454147D01*
X14006573Y-1454147D01*
X13991079Y-1449067D01*
X13985745Y-1443987D01*
X13980665Y-1433573D01*
X13184377Y-1371089D02*
G01*
X13179043Y-1360675D01*
X13168629Y-1350261D01*
X13158216Y-1345181D01*
X13137641Y-1345181D01*
X13127227Y-1350261D01*
X13116813Y-1360675D01*
X13111479Y-1371089D01*
X13106400Y-1386837D01*
X13106400Y-1412745D01*
X13111479Y-1428239D01*
X13116813Y-1438653D01*
X13127227Y-1449067D01*
X13137641Y-1454147D01*
X13158216Y-1454147D01*
X13168629Y-1449067D01*
X13179043Y-1438653D01*
X13184377Y-1428239D01*
X13270484Y-1345181D02*
G01*
X13218668Y-1417825D01*
X13296645Y-1417825D01*
X13270484Y-1345181D02*
G01*
X13270484Y-1454147D01*
X16245085Y-8102079D02*
G01*
X16239751Y-8091665D01*
X16229337Y-8081251D01*
X16218923Y-8076171D01*
X16198349Y-8076171D01*
X16187935Y-8081251D01*
X16177521Y-8091665D01*
X16172187Y-8102079D01*
X16167107Y-8117827D01*
X16167107Y-8143735D01*
X16172187Y-8159229D01*
X16177521Y-8169643D01*
X16187935Y-8180057D01*
X16198349Y-8185137D01*
X16218923Y-8185137D01*
X16229337Y-8180057D01*
X16239751Y-8169643D01*
X16245085Y-8159229D01*
X16341605Y-8076171D02*
G01*
X16289789Y-8076171D01*
X16284455Y-8122907D01*
X16289789Y-8117827D01*
X16305283Y-8112493D01*
X16320777Y-8112493D01*
X16336525Y-8117827D01*
X16346939Y-8127987D01*
X16352019Y-8143735D01*
X16352019Y-8154149D01*
X16346939Y-8169643D01*
X16336525Y-8180057D01*
X16320777Y-8185137D01*
X16305283Y-8185137D01*
X16289789Y-8180057D01*
X16284455Y-8174977D01*
X16279375Y-8164563D01*
X16245085Y-6349479D02*
G01*
X16239751Y-6339065D01*
X16229337Y-6328651D01*
X16218923Y-6323571D01*
X16198349Y-6323571D01*
X16187935Y-6328651D01*
X16177521Y-6339065D01*
X16172187Y-6349479D01*
X16167107Y-6365227D01*
X16167107Y-6391135D01*
X16172187Y-6406629D01*
X16177521Y-6417043D01*
X16187935Y-6427457D01*
X16198349Y-6432537D01*
X16218923Y-6432537D01*
X16229337Y-6427457D01*
X16239751Y-6417043D01*
X16245085Y-6406629D01*
X16341605Y-6339065D02*
G01*
X16336525Y-6328651D01*
X16320777Y-6323571D01*
X16310363Y-6323571D01*
X16294869Y-6328651D01*
X16284455Y-6344399D01*
X16279375Y-6370307D01*
X16279375Y-6396215D01*
X16284455Y-6417043D01*
X16294869Y-6427457D01*
X16310363Y-6432537D01*
X16315697Y-6432537D01*
X16331191Y-6427457D01*
X16341605Y-6417043D01*
X16346939Y-6401549D01*
X16346939Y-6396215D01*
X16341605Y-6380721D01*
X16331191Y-6370307D01*
X16315697Y-6365227D01*
X16310363Y-6365227D01*
X16294869Y-6370307D01*
X16284455Y-6380721D01*
X16279375Y-6396215D01*
X15483093Y-4342889D02*
G01*
X15477759Y-4332475D01*
X15467345Y-4322061D01*
X15456931Y-4316981D01*
X15436357Y-4316981D01*
X15425943Y-4322061D01*
X15415529Y-4332475D01*
X15410195Y-4342889D01*
X15405115Y-4358637D01*
X15405115Y-4384545D01*
X15410195Y-4400039D01*
X15415529Y-4410453D01*
X15425943Y-4420867D01*
X15436357Y-4425947D01*
X15456931Y-4425947D01*
X15467345Y-4420867D01*
X15477759Y-4410453D01*
X15483093Y-4400039D01*
X15590027Y-4316981D02*
G01*
X15537957Y-4425947D01*
X15517383Y-4316981D02*
G01*
X15590027Y-4316981D01*
X14733760Y-1625086D02*
G01*
X14728426Y-1614672D01*
X14718012Y-1604258D01*
X14707598Y-1599178D01*
X14687024Y-1599178D01*
X14676610Y-1604258D01*
X14666196Y-1614672D01*
X14660862Y-1625086D01*
X14655782Y-1640834D01*
X14655782Y-1666742D01*
X14660862Y-1682236D01*
X14666196Y-1692650D01*
X14676610Y-1703064D01*
X14687024Y-1708144D01*
X14707598Y-1708144D01*
X14718012Y-1703064D01*
X14728426Y-1692650D01*
X14733760Y-1682236D01*
X14793958Y-1599178D02*
G01*
X14778464Y-1604258D01*
X14773130Y-1614672D01*
X14773130Y-1625086D01*
X14778464Y-1635500D01*
X14788878Y-1640834D01*
X14809452Y-1645914D01*
X14825200Y-1650994D01*
X14835614Y-1661408D01*
X14840694Y-1671822D01*
X14840694Y-1687570D01*
X14835614Y-1697984D01*
X14830280Y-1703064D01*
X14814786Y-1708144D01*
X14793958Y-1708144D01*
X14778464Y-1703064D01*
X14773130Y-1697984D01*
X14768050Y-1687570D01*
X14768050Y-1671822D01*
X14773130Y-1661408D01*
X14783544Y-1650994D01*
X14799038Y-1645914D01*
X14819866Y-1640834D01*
X14830280Y-1635500D01*
X14835614Y-1625086D01*
X14835614Y-1614672D01*
X14830280Y-1604258D01*
X14814786Y-1599178D01*
X14793958Y-1599178D01*
X16232385Y-9118081D02*
G01*
X16227051Y-9107667D01*
X16216637Y-9097253D01*
X16206223Y-9092173D01*
X16185649Y-9092173D01*
X16175235Y-9097253D01*
X16164821Y-9107667D01*
X16159487Y-9118081D01*
X16154407Y-9133829D01*
X16154407Y-9159737D01*
X16159487Y-9175231D01*
X16164821Y-9185645D01*
X16175235Y-9196059D01*
X16185649Y-9201139D01*
X16206223Y-9201139D01*
X16216637Y-9196059D01*
X16227051Y-9185645D01*
X16232385Y-9175231D01*
X16266675Y-9113001D02*
G01*
X16277089Y-9107667D01*
X16292583Y-9092173D01*
X16292583Y-9201139D01*
X16331953Y-9118081D02*
G01*
X16331953Y-9113001D01*
X16337287Y-9102587D01*
X16342367Y-9097253D01*
X16352781Y-9092173D01*
X16373609Y-9092173D01*
X16384023Y-9097253D01*
X16389103Y-9102587D01*
X16394437Y-9113001D01*
X16394437Y-9123415D01*
X16389103Y-9133829D01*
X16378689Y-9149323D01*
X16326873Y-9201139D01*
X16399517Y-9201139D01*
X16194285Y-7060676D02*
G01*
X16188951Y-7050262D01*
X16178537Y-7039848D01*
X16168123Y-7034768D01*
X16147549Y-7034768D01*
X16137135Y-7039848D01*
X16126721Y-7050262D01*
X16121387Y-7060676D01*
X16116307Y-7076424D01*
X16116307Y-7102332D01*
X16121387Y-7117826D01*
X16126721Y-7128240D01*
X16137135Y-7138654D01*
X16147549Y-7143734D01*
X16168123Y-7143734D01*
X16178537Y-7138654D01*
X16188951Y-7128240D01*
X16194285Y-7117826D01*
X16228575Y-7055596D02*
G01*
X16238989Y-7050262D01*
X16254483Y-7034768D01*
X16254483Y-7143734D01*
X16299187Y-7034768D02*
G01*
X16356337Y-7034768D01*
X16325095Y-7076424D01*
X16340589Y-7076424D01*
X16351003Y-7081504D01*
X16356337Y-7086584D01*
X16361417Y-7102332D01*
X16361417Y-7112746D01*
X16356337Y-7128240D01*
X16345923Y-7138654D01*
X16330429Y-7143734D01*
X16314681Y-7143734D01*
X16299187Y-7138654D01*
X16293853Y-7133574D01*
X16288773Y-7123160D01*
X16333977Y-3568192D02*
G01*
X16328643Y-3557778D01*
X16318229Y-3547363D01*
X16307816Y-3542284D01*
X16287241Y-3542284D01*
X16276827Y-3547363D01*
X16266413Y-3557778D01*
X16261079Y-3568192D01*
X16256000Y-3583939D01*
X16256000Y-3609847D01*
X16261079Y-3625342D01*
X16266413Y-3635755D01*
X16276827Y-3646170D01*
X16287241Y-3651250D01*
X16307816Y-3651250D01*
X16318229Y-3646170D01*
X16328643Y-3635755D01*
X16333977Y-3625342D01*
X16368268Y-3563112D02*
G01*
X16378681Y-3557778D01*
X16394175Y-3542284D01*
X16394175Y-3651250D01*
X16480536Y-3542284D02*
G01*
X16428466Y-3614928D01*
X16506443Y-3614928D01*
X16480536Y-3542284D02*
G01*
X16480536Y-3651250D01*
X16562577Y-4038092D02*
G01*
X16557243Y-4027678D01*
X16546829Y-4017263D01*
X16536416Y-4012184D01*
X16515841Y-4012184D01*
X16505427Y-4017263D01*
X16495013Y-4027678D01*
X16489679Y-4038092D01*
X16484600Y-4053839D01*
X16484600Y-4079747D01*
X16489679Y-4095242D01*
X16495013Y-4105655D01*
X16505427Y-4116070D01*
X16515841Y-4121150D01*
X16536416Y-4121150D01*
X16546829Y-4116070D01*
X16557243Y-4105655D01*
X16562577Y-4095242D01*
X16596868Y-4033012D02*
G01*
X16607281Y-4027678D01*
X16622775Y-4012184D01*
X16622775Y-4121150D01*
X16719295Y-4012184D02*
G01*
X16667479Y-4012184D01*
X16662145Y-4058920D01*
X16667479Y-4053839D01*
X16682974Y-4048505D01*
X16698722Y-4048505D01*
X16714216Y-4053839D01*
X16724629Y-4064000D01*
X16729709Y-4079747D01*
X16729709Y-4090162D01*
X16724629Y-4105655D01*
X16714216Y-4116070D01*
X16698722Y-4121150D01*
X16682974Y-4121150D01*
X16667479Y-4116070D01*
X16662145Y-4110989D01*
X16657066Y-4100576D01*
X14009875Y-2387086D02*
G01*
X14004541Y-2376672D01*
X13994127Y-2366258D01*
X13983713Y-2361178D01*
X13963139Y-2361178D01*
X13952725Y-2366258D01*
X13942311Y-2376672D01*
X13936977Y-2387086D01*
X13931897Y-2402834D01*
X13931897Y-2428742D01*
X13936977Y-2444236D01*
X13942311Y-2454650D01*
X13952725Y-2465064D01*
X13963139Y-2470144D01*
X13983713Y-2470144D01*
X13994127Y-2465064D01*
X14004541Y-2454650D01*
X14009875Y-2444236D01*
X14044165Y-2382006D02*
G01*
X14054579Y-2376672D01*
X14070073Y-2361178D01*
X14070073Y-2470144D01*
X14130271Y-2361178D02*
G01*
X14114777Y-2366258D01*
X14109443Y-2376672D01*
X14109443Y-2387086D01*
X14114777Y-2397500D01*
X14125191Y-2402834D01*
X14146019Y-2407914D01*
X14161513Y-2412994D01*
X14171927Y-2423408D01*
X14177007Y-2433822D01*
X14177007Y-2449570D01*
X14171927Y-2459984D01*
X14166593Y-2465064D01*
X14151099Y-2470144D01*
X14130271Y-2470144D01*
X14114777Y-2465064D01*
X14109443Y-2459984D01*
X14104363Y-2449570D01*
X14104363Y-2433822D01*
X14109443Y-2423408D01*
X14119857Y-2412994D01*
X14135605Y-2407914D01*
X14156433Y-2402834D01*
X14166593Y-2397500D01*
X14171927Y-2387086D01*
X14171927Y-2376672D01*
X14166593Y-2366258D01*
X14151099Y-2361178D01*
X14130271Y-2361178D01*
X1462275Y-9638797D02*
G01*
X1456941Y-9628383D01*
X1446527Y-9617969D01*
X1436367Y-9612889D01*
X1415539Y-9612889D01*
X1405125Y-9617969D01*
X1394711Y-9628383D01*
X1389377Y-9638797D01*
X1384297Y-9654291D01*
X1384297Y-9680453D01*
X1389377Y-9695947D01*
X1394711Y-9706361D01*
X1405125Y-9716775D01*
X1415539Y-9721855D01*
X1436367Y-9721855D01*
X1446527Y-9716775D01*
X1456941Y-9706361D01*
X1462275Y-9695947D01*
X1496565Y-9633717D02*
G01*
X1506979Y-9628383D01*
X1522473Y-9612889D01*
X1522473Y-9721855D01*
X1624327Y-9649211D02*
G01*
X1619247Y-9664705D01*
X1608833Y-9675119D01*
X1593085Y-9680453D01*
X1588005Y-9680453D01*
X1572257Y-9675119D01*
X1562097Y-9664705D01*
X1556763Y-9649211D01*
X1556763Y-9644131D01*
X1562097Y-9628383D01*
X1572257Y-9617969D01*
X1588005Y-9612889D01*
X1593085Y-9612889D01*
X1608833Y-9617969D01*
X1619247Y-9628383D01*
X1624327Y-9649211D01*
X1624327Y-9675119D01*
X1619247Y-9701281D01*
X1608833Y-9716775D01*
X1593085Y-9721855D01*
X1582671Y-9721855D01*
X1567177Y-9716775D01*
X1562097Y-9706361D01*
X13654275Y-5930404D02*
G01*
X13648941Y-5919990D01*
X13638527Y-5909576D01*
X13628113Y-5904496D01*
X13607539Y-5904496D01*
X13597125Y-5909576D01*
X13586711Y-5919990D01*
X13581377Y-5930404D01*
X13576297Y-5945898D01*
X13576297Y-5972060D01*
X13581377Y-5987554D01*
X13586711Y-5997968D01*
X13597125Y-6008382D01*
X13607539Y-6013462D01*
X13628113Y-6013462D01*
X13638527Y-6008382D01*
X13648941Y-5997968D01*
X13654275Y-5987554D01*
X13693645Y-5930404D02*
G01*
X13693645Y-5925324D01*
X13698979Y-5914910D01*
X13704059Y-5909576D01*
X13714473Y-5904496D01*
X13735301Y-5904496D01*
X13745715Y-5909576D01*
X13750795Y-5914910D01*
X13756129Y-5925324D01*
X13756129Y-5935738D01*
X13750795Y-5945898D01*
X13740381Y-5961646D01*
X13688565Y-6013462D01*
X13761209Y-6013462D01*
X13826741Y-5904496D02*
G01*
X13810993Y-5909576D01*
X13800833Y-5925324D01*
X13795499Y-5951232D01*
X13795499Y-5966726D01*
X13800833Y-5992888D01*
X13810993Y-6008382D01*
X13826741Y-6013462D01*
X13837155Y-6013462D01*
X13852649Y-6008382D01*
X13863063Y-5992888D01*
X13868143Y-5966726D01*
X13868143Y-5951232D01*
X13863063Y-5925324D01*
X13852649Y-5909576D01*
X13837155Y-5904496D01*
X13826741Y-5904496D01*
X8902606Y-1383357D02*
G01*
X8902606Y-1492323D01*
X8902606Y-1383357D02*
G01*
X8938928Y-1383357D01*
X8954676Y-1388437D01*
X8965090Y-1398851D01*
X8970170Y-1409265D01*
X8975504Y-1424759D01*
X8975504Y-1450921D01*
X8970170Y-1466415D01*
X8965090Y-1476829D01*
X8954676Y-1487243D01*
X8938928Y-1492323D01*
X8902606Y-1492323D01*
X9009794Y-1403931D02*
G01*
X9020208Y-1398851D01*
X9035702Y-1383357D01*
X9035702Y-1492323D01*
X16979917Y-9854163D02*
G01*
X16979917Y-9963129D01*
X16979917Y-9854163D02*
G01*
X17016239Y-9854163D01*
X17031733Y-9859243D01*
X17042147Y-9869657D01*
X17047481Y-9880071D01*
X17052561Y-9895819D01*
X17052561Y-9921727D01*
X17047481Y-9937221D01*
X17042147Y-9947635D01*
X17031733Y-9958049D01*
X17016239Y-9963129D01*
X16979917Y-9963129D01*
X17092185Y-9880071D02*
G01*
X17092185Y-9874991D01*
X17097265Y-9864577D01*
X17102599Y-9859243D01*
X17112759Y-9854163D01*
X17133587Y-9854163D01*
X17144001Y-9859243D01*
X17149335Y-9864577D01*
X17154415Y-9874991D01*
X17154415Y-9885405D01*
X17149335Y-9895819D01*
X17138921Y-9911313D01*
X17086851Y-9963129D01*
X17159749Y-9963129D01*
X15608294Y-10095489D02*
G01*
X15608294Y-10204455D01*
X15608294Y-10095489D02*
G01*
X15644616Y-10095489D01*
X15660110Y-10100569D01*
X15670524Y-10110983D01*
X15675858Y-10121397D01*
X15680938Y-10136891D01*
X15680938Y-10163053D01*
X15675858Y-10178547D01*
X15670524Y-10188961D01*
X15660110Y-10199375D01*
X15644616Y-10204455D01*
X15608294Y-10204455D01*
X15725642Y-10095489D02*
G01*
X15782792Y-10095489D01*
X15751550Y-10136891D01*
X15767298Y-10136891D01*
X15777712Y-10142225D01*
X15782792Y-10147305D01*
X15788126Y-10163053D01*
X15788126Y-10173467D01*
X15782792Y-10188961D01*
X15772378Y-10199375D01*
X15756884Y-10204455D01*
X15741390Y-10204455D01*
X15725642Y-10199375D01*
X15720562Y-10194041D01*
X15715228Y-10183881D01*
X14605007Y-4774196D02*
G01*
X14605007Y-4883162D01*
X14605007Y-4774196D02*
G01*
X14641329Y-4774196D01*
X14656823Y-4779276D01*
X14667237Y-4789690D01*
X14672571Y-4800104D01*
X14677651Y-4815598D01*
X14677651Y-4841760D01*
X14672571Y-4857254D01*
X14667237Y-4867668D01*
X14656823Y-4878082D01*
X14641329Y-4883162D01*
X14605007Y-4883162D01*
X14764011Y-4774196D02*
G01*
X14711941Y-4846840D01*
X14789919Y-4846840D01*
X14764011Y-4774196D02*
G01*
X14764011Y-4883162D01*
X16179792Y-5498076D02*
G01*
X16179792Y-5607042D01*
X16179792Y-5498076D02*
G01*
X16216114Y-5498076D01*
X16231608Y-5503156D01*
X16242022Y-5513570D01*
X16247356Y-5523984D01*
X16252436Y-5539732D01*
X16252436Y-5565640D01*
X16247356Y-5581134D01*
X16242022Y-5591548D01*
X16231608Y-5601962D01*
X16216114Y-5607042D01*
X16179792Y-5607042D01*
X16349210Y-5498076D02*
G01*
X16297140Y-5498076D01*
X16292060Y-5544812D01*
X16297140Y-5539732D01*
X16312888Y-5534398D01*
X16328382Y-5534398D01*
X16343876Y-5539732D01*
X16354290Y-5549892D01*
X16359624Y-5565640D01*
X16359624Y-5576054D01*
X16354290Y-5591548D01*
X16343876Y-5601962D01*
X16328382Y-5607042D01*
X16312888Y-5607042D01*
X16297140Y-5601962D01*
X16292060Y-5596882D01*
X16286726Y-5586468D01*
X3568954Y-8595360D02*
G01*
X3568954Y-8704326D01*
X3568954Y-8595360D02*
G01*
X3605275Y-8595360D01*
X3620770Y-8600439D01*
X3631184Y-8610854D01*
X3636518Y-8621268D01*
X3641597Y-8636762D01*
X3641597Y-8662670D01*
X3636518Y-8678418D01*
X3631184Y-8688831D01*
X3620770Y-8699245D01*
X3605275Y-8704326D01*
X3568954Y-8704326D01*
X3738372Y-8610854D02*
G01*
X3733038Y-8600439D01*
X3717543Y-8595360D01*
X3707129Y-8595360D01*
X3691636Y-8600439D01*
X3681222Y-8615934D01*
X3675888Y-8642095D01*
X3675888Y-8668004D01*
X3681222Y-8688831D01*
X3691636Y-8699245D01*
X3707129Y-8704326D01*
X3712209Y-8704326D01*
X3727958Y-8699245D01*
X3738372Y-8688831D01*
X3743452Y-8673084D01*
X3743452Y-8668004D01*
X3738372Y-8652510D01*
X3727958Y-8642095D01*
X3712209Y-8636762D01*
X3707129Y-8636762D01*
X3691636Y-8642095D01*
X3681222Y-8652510D01*
X3675888Y-8668004D01*
X12268276Y-8088894D02*
G01*
X12268276Y-8197860D01*
X12268276Y-8088894D02*
G01*
X12304598Y-8088894D01*
X12320092Y-8093974D01*
X12330506Y-8104388D01*
X12335840Y-8114802D01*
X12340920Y-8130296D01*
X12340920Y-8156458D01*
X12335840Y-8171952D01*
X12330506Y-8182366D01*
X12320092Y-8192780D01*
X12304598Y-8197860D01*
X12268276Y-8197860D01*
X12447854Y-8088894D02*
G01*
X12396038Y-8197860D01*
X12375210Y-8088894D02*
G01*
X12447854Y-8088894D01*
X12179300Y-2551678D02*
G01*
X12179300Y-2660644D01*
X12179300Y-2551678D02*
G01*
X12215622Y-2551678D01*
X12231115Y-2556758D01*
X12241529Y-2567172D01*
X12246863Y-2577586D01*
X12251943Y-2593334D01*
X12251943Y-2619242D01*
X12246863Y-2634736D01*
X12241529Y-2645150D01*
X12231115Y-2655564D01*
X12215622Y-2660644D01*
X12179300Y-2660644D01*
X12312395Y-2551678D02*
G01*
X12296647Y-2556758D01*
X12291568Y-2567172D01*
X12291568Y-2577586D01*
X12296647Y-2588000D01*
X12307061Y-2593334D01*
X12327890Y-2598414D01*
X12343384Y-2603494D01*
X12353797Y-2613908D01*
X12359131Y-2624322D01*
X12359131Y-2640070D01*
X12353797Y-2650484D01*
X12348718Y-2655564D01*
X12332970Y-2660644D01*
X12312395Y-2660644D01*
X12296647Y-2655564D01*
X12291568Y-2650484D01*
X12286234Y-2640070D01*
X12286234Y-2624322D01*
X12291568Y-2613908D01*
X12301981Y-2603494D01*
X12317475Y-2598414D01*
X12338304Y-2593334D01*
X12348718Y-2588000D01*
X12353797Y-2577586D01*
X12353797Y-2567172D01*
X12348718Y-2556758D01*
X12332970Y-2551678D01*
X12312395Y-2551678D01*
X12077700Y-5586973D02*
G01*
X12077700Y-5695939D01*
X12077700Y-5586973D02*
G01*
X12114022Y-5586973D01*
X12129515Y-5592053D01*
X12139929Y-5602467D01*
X12145263Y-5612881D01*
X12150343Y-5628629D01*
X12150343Y-5654537D01*
X12145263Y-5670031D01*
X12139929Y-5680445D01*
X12129515Y-5690859D01*
X12114022Y-5695939D01*
X12077700Y-5695939D01*
X12252197Y-5623295D02*
G01*
X12247118Y-5638789D01*
X12236704Y-5649203D01*
X12220956Y-5654537D01*
X12215875Y-5654537D01*
X12200381Y-5649203D01*
X12189968Y-5638789D01*
X12184634Y-5623295D01*
X12184634Y-5618215D01*
X12189968Y-5602467D01*
X12200381Y-5592053D01*
X12215875Y-5586973D01*
X12220956Y-5586973D01*
X12236704Y-5592053D01*
X12247118Y-5602467D01*
X12252197Y-5623295D01*
X12252197Y-5649203D01*
X12247118Y-5675365D01*
X12236704Y-5690859D01*
X12220956Y-5695939D01*
X12210795Y-5695939D01*
X12195047Y-5690859D01*
X12189968Y-5680445D01*
X16002000Y-11136884D02*
G01*
X16002000Y-11245850D01*
X16002000Y-11136884D02*
G01*
X16069563Y-11136884D01*
X16002000Y-11188700D02*
G01*
X16043656Y-11188700D01*
X16103854Y-11157712D02*
G01*
X16114268Y-11152378D01*
X16129761Y-11136884D01*
X16129761Y-11245850D01*
X15976600Y-11759184D02*
G01*
X15976600Y-11868150D01*
X15976600Y-11759184D02*
G01*
X16044163Y-11759184D01*
X15976600Y-11811000D02*
G01*
X16018256Y-11811000D01*
X16083534Y-11785092D02*
G01*
X16083534Y-11780012D01*
X16088868Y-11769597D01*
X16093947Y-11764263D01*
X16104361Y-11759184D01*
X16125190Y-11759184D01*
X16135604Y-11764263D01*
X16140684Y-11769597D01*
X16146018Y-11780012D01*
X16146018Y-11790426D01*
X16140684Y-11800586D01*
X16130270Y-11816334D01*
X16078454Y-11868150D01*
X16151097Y-11868150D01*
X306070Y-1154681D02*
G01*
X306070Y-1237739D01*
X300736Y-1253487D01*
X295655Y-1258567D01*
X285242Y-1263647D01*
X274828Y-1263647D01*
X264413Y-1258567D01*
X259079Y-1253487D01*
X254000Y-1237739D01*
X254000Y-1227325D01*
X340360Y-1175509D02*
G01*
X350520Y-1170175D01*
X366268Y-1154681D01*
X366268Y-1263647D01*
X473202Y-1154681D02*
G01*
X421386Y-1263647D01*
X400557Y-1154681D02*
G01*
X473202Y-1154681D01*
X14974310Y-8419089D02*
G01*
X14974310Y-8502147D01*
X14969230Y-8517641D01*
X14964150Y-8522975D01*
X14953736Y-8528055D01*
X14943322Y-8528055D01*
X14932908Y-8522975D01*
X14927574Y-8517641D01*
X14922494Y-8502147D01*
X14922494Y-8491733D01*
X15008600Y-8439917D02*
G01*
X15019014Y-8434583D01*
X15034762Y-8419089D01*
X15034762Y-8528055D01*
X15094960Y-8419089D02*
G01*
X15079466Y-8424169D01*
X15074132Y-8434583D01*
X15074132Y-8444997D01*
X15079466Y-8455411D01*
X15089880Y-8460491D01*
X15110454Y-8465825D01*
X15126202Y-8470905D01*
X15136616Y-8481319D01*
X15141696Y-8491733D01*
X15141696Y-8507481D01*
X15136616Y-8517641D01*
X15131282Y-8522975D01*
X15115788Y-8528055D01*
X15094960Y-8528055D01*
X15079466Y-8522975D01*
X15074132Y-8517641D01*
X15069052Y-8507481D01*
X15069052Y-8491733D01*
X15074132Y-8481319D01*
X15084546Y-8470905D01*
X15100040Y-8465825D01*
X15120868Y-8460491D01*
X15131282Y-8455411D01*
X15136616Y-8444997D01*
X15136616Y-8434583D01*
X15131282Y-8424169D01*
X15115788Y-8419089D01*
X15094960Y-8419089D01*
X13259788Y-13346653D02*
G01*
X13259788Y-13429711D01*
X13254708Y-13445205D01*
X13249628Y-13450539D01*
X13239214Y-13455619D01*
X13228800Y-13455619D01*
X13218386Y-13450539D01*
X13213052Y-13445205D01*
X13207972Y-13429711D01*
X13207972Y-13419297D01*
X13294078Y-13367481D02*
G01*
X13304492Y-13362147D01*
X13320240Y-13346653D01*
X13320240Y-13455619D01*
X13422094Y-13382975D02*
G01*
X13416760Y-13398469D01*
X13406346Y-13408883D01*
X13390852Y-13414217D01*
X13385518Y-13414217D01*
X13370024Y-13408883D01*
X13359610Y-13398469D01*
X13354530Y-13382975D01*
X13354530Y-13377895D01*
X13359610Y-13362147D01*
X13370024Y-13351733D01*
X13385518Y-13346653D01*
X13390852Y-13346653D01*
X13406346Y-13351733D01*
X13416760Y-13362147D01*
X13422094Y-13382975D01*
X13422094Y-13408883D01*
X13416760Y-13435045D01*
X13406346Y-13450539D01*
X13390852Y-13455619D01*
X13380438Y-13455619D01*
X13364944Y-13450539D01*
X13359610Y-13440125D01*
X17577958Y-11822534D02*
G01*
X17577958Y-11905846D01*
X17572624Y-11921340D01*
X17567544Y-11926674D01*
X17557130Y-11931754D01*
X17546716Y-11931754D01*
X17536302Y-11926674D01*
X17531222Y-11921340D01*
X17525888Y-11905846D01*
X17525888Y-11895432D01*
X17617328Y-11848696D02*
G01*
X17617328Y-11843362D01*
X17622662Y-11832948D01*
X17627742Y-11827868D01*
X17638156Y-11822534D01*
X17658984Y-11822534D01*
X17669398Y-11827868D01*
X17674478Y-11832948D01*
X17679812Y-11843362D01*
X17679812Y-11853776D01*
X17674478Y-11864190D01*
X17664064Y-11879684D01*
X17612248Y-11931754D01*
X17684892Y-11931754D01*
X17750424Y-11822534D02*
G01*
X17734930Y-11827868D01*
X17724516Y-11843362D01*
X17719182Y-11869524D01*
X17719182Y-11885018D01*
X17724516Y-11910926D01*
X17734930Y-11926674D01*
X17750424Y-11931754D01*
X17760838Y-11931754D01*
X17776332Y-11926674D01*
X17786746Y-11910926D01*
X17792080Y-11885018D01*
X17792080Y-11869524D01*
X17786746Y-11843362D01*
X17776332Y-11827868D01*
X17760838Y-11822534D01*
X17750424Y-11822534D01*
X4458962Y-13397481D02*
G01*
X4458962Y-13480539D01*
X4453628Y-13496033D01*
X4448548Y-13501367D01*
X4438134Y-13506447D01*
X4427720Y-13506447D01*
X4417306Y-13501367D01*
X4411972Y-13496033D01*
X4406892Y-13480539D01*
X4406892Y-13470125D01*
X4498332Y-13423389D02*
G01*
X4498332Y-13418309D01*
X4503412Y-13407895D01*
X4508746Y-13402561D01*
X4519160Y-13397481D01*
X4539988Y-13397481D01*
X4550402Y-13402561D01*
X4555482Y-13407895D01*
X4560562Y-13418309D01*
X4560562Y-13428723D01*
X4555482Y-13438883D01*
X4545068Y-13454631D01*
X4493252Y-13506447D01*
X4565896Y-13506447D01*
X4600186Y-13418309D02*
G01*
X4610600Y-13412975D01*
X4626094Y-13397481D01*
X4626094Y-13506447D01*
X8395723Y-7847594D02*
G01*
X8395723Y-7930652D01*
X8390643Y-7946146D01*
X8385563Y-7951480D01*
X8375149Y-7956560D01*
X8364735Y-7956560D01*
X8354321Y-7951480D01*
X8348987Y-7946146D01*
X8343907Y-7930652D01*
X8343907Y-7920238D01*
X8435347Y-7873502D02*
G01*
X8435347Y-7868422D01*
X8440427Y-7858008D01*
X8445761Y-7852674D01*
X8456175Y-7847594D01*
X8477003Y-7847594D01*
X8487163Y-7852674D01*
X8492497Y-7858008D01*
X8497577Y-7868422D01*
X8497577Y-7878836D01*
X8492497Y-7888996D01*
X8482083Y-7904744D01*
X8430013Y-7956560D01*
X8502911Y-7956560D01*
X8542281Y-7873502D02*
G01*
X8542281Y-7868422D01*
X8547615Y-7858008D01*
X8552695Y-7852674D01*
X8563109Y-7847594D01*
X8583937Y-7847594D01*
X8594351Y-7852674D01*
X8599431Y-7858008D01*
X8604765Y-7868422D01*
X8604765Y-7878836D01*
X8599431Y-7888996D01*
X8589017Y-7904744D01*
X8537201Y-7956560D01*
X8609845Y-7956560D01*
X12509500Y-214884D02*
G01*
X12509500Y-323850D01*
X12509500Y-323850D02*
G01*
X12571729Y-323850D01*
X12606020Y-235712D02*
G01*
X12616434Y-230378D01*
X12632181Y-214884D01*
X12632181Y-323850D01*
X14858989Y-6729978D02*
G01*
X14858989Y-6838944D01*
X14858989Y-6838944D02*
G01*
X14921219Y-6838944D01*
X14960843Y-6755886D02*
G01*
X14960843Y-6750806D01*
X14965923Y-6740392D01*
X14971257Y-6735058D01*
X14981671Y-6729978D01*
X15002245Y-6729978D01*
X15012659Y-6735058D01*
X15017993Y-6740392D01*
X15023073Y-6750806D01*
X15023073Y-6761220D01*
X15017993Y-6771634D01*
X15007579Y-6787128D01*
X14955509Y-6838944D01*
X15028407Y-6838944D01*
D12*
X14884402Y-6350000D02*
G01*
X15078204Y-6220713D01*
X14884402Y-6220713D02*
G01*
X15078204Y-6350000D01*
X14884402Y-6159754D02*
G01*
X15078204Y-6030468D01*
X14884402Y-6030468D02*
G01*
X15078204Y-6159754D01*
X14884402Y-5969507D02*
G01*
X15078204Y-5840221D01*
X14884402Y-5840221D02*
G01*
X15078204Y-5969507D01*
D11*
X14249422Y-7580873D02*
G01*
X14249422Y-7689839D01*
X14249422Y-7689839D02*
G01*
X14311652Y-7689839D01*
X14356356Y-7580873D02*
G01*
X14413506Y-7580873D01*
X14382264Y-7622529D01*
X14398012Y-7622529D01*
X14408426Y-7627609D01*
X14413506Y-7632689D01*
X14418840Y-7648437D01*
X14418840Y-7658851D01*
X14413506Y-7674345D01*
X14403092Y-7684759D01*
X14387598Y-7689839D01*
X14372104Y-7689839D01*
X14356356Y-7684759D01*
X14351276Y-7679679D01*
X14345942Y-7669265D01*
D12*
X15087597Y-7366000D02*
G01*
X14893795Y-7495286D01*
X15087597Y-7495286D02*
G01*
X14893795Y-7366000D01*
X15087597Y-7556245D02*
G01*
X14893795Y-7685531D01*
X15087597Y-7685531D02*
G01*
X14893795Y-7556245D01*
X15087597Y-7746492D02*
G01*
X14893795Y-7875778D01*
X15087597Y-7875778D02*
G01*
X14893795Y-7746492D01*
D11*
X10096500Y-12838684D02*
G01*
X10096500Y-12947650D01*
X10096500Y-12947650D02*
G01*
X10158729Y-12947650D01*
X10193020Y-12838684D02*
G01*
X10193020Y-12947650D01*
X10193020Y-12838684D02*
G01*
X10260584Y-12838684D01*
X10193020Y-12890500D02*
G01*
X10234675Y-12890500D01*
X10193020Y-12947650D02*
G01*
X10260584Y-12947650D01*
X10294874Y-12838684D02*
G01*
X10294874Y-12947650D01*
X10294874Y-12838684D02*
G01*
X10331195Y-12838684D01*
X10346943Y-12843763D01*
X10357358Y-12854178D01*
X10362438Y-12864592D01*
X10367772Y-12880086D01*
X10367772Y-12906247D01*
X10362438Y-12921742D01*
X10357358Y-12932155D01*
X10346943Y-12942570D01*
X10331195Y-12947650D01*
X10294874Y-12947650D01*
X10402061Y-12859512D02*
G01*
X10412475Y-12854178D01*
X10427970Y-12838684D01*
X10427970Y-12947650D01*
X10529824Y-12875005D02*
G01*
X10524490Y-12890500D01*
X10514075Y-12900913D01*
X10498581Y-12906247D01*
X10493502Y-12906247D01*
X10477754Y-12900913D01*
X10467340Y-12890500D01*
X10462259Y-12875005D01*
X10462259Y-12869926D01*
X10467340Y-12854178D01*
X10477754Y-12843763D01*
X10493502Y-12838684D01*
X10498581Y-12838684D01*
X10514075Y-12843763D01*
X10524490Y-12854178D01*
X10529824Y-12875005D01*
X10529824Y-12900913D01*
X10524490Y-12927076D01*
X10514075Y-12942570D01*
X10498581Y-12947650D01*
X10488168Y-12947650D01*
X10472674Y-12942570D01*
X10467340Y-12932155D01*
X10490200Y-1649984D02*
G01*
X10490200Y-1758950D01*
X10490200Y-1758950D02*
G01*
X10552429Y-1758950D01*
X10586720Y-1649984D02*
G01*
X10586720Y-1758950D01*
X10586720Y-1649984D02*
G01*
X10654284Y-1649984D01*
X10586720Y-1701800D02*
G01*
X10628375Y-1701800D01*
X10586720Y-1758950D02*
G01*
X10654284Y-1758950D01*
X10688574Y-1649984D02*
G01*
X10688574Y-1758950D01*
X10688574Y-1649984D02*
G01*
X10724895Y-1649984D01*
X10740643Y-1655063D01*
X10751058Y-1665478D01*
X10756138Y-1675892D01*
X10761472Y-1691639D01*
X10761472Y-1717547D01*
X10756138Y-1733042D01*
X10751058Y-1743455D01*
X10740643Y-1753870D01*
X10724895Y-1758950D01*
X10688574Y-1758950D01*
X10806175Y-1649984D02*
G01*
X10863325Y-1649984D01*
X10832084Y-1691639D01*
X10847577Y-1691639D01*
X10857991Y-1696720D01*
X10863325Y-1701800D01*
X10868406Y-1717547D01*
X10868406Y-1727962D01*
X10863325Y-1743455D01*
X10852911Y-1753870D01*
X10837163Y-1758950D01*
X10821670Y-1758950D01*
X10806175Y-1753870D01*
X10800841Y-1748789D01*
X10795761Y-1738376D01*
X11493500Y-1637284D02*
G01*
X11493500Y-1746250D01*
X11493500Y-1746250D02*
G01*
X11555729Y-1746250D01*
X11590020Y-1637284D02*
G01*
X11590020Y-1746250D01*
X11590020Y-1637284D02*
G01*
X11657584Y-1637284D01*
X11590020Y-1689100D02*
G01*
X11631675Y-1689100D01*
X11590020Y-1746250D02*
G01*
X11657584Y-1746250D01*
X11691874Y-1637284D02*
G01*
X11691874Y-1746250D01*
X11691874Y-1637284D02*
G01*
X11728195Y-1637284D01*
X11743943Y-1642363D01*
X11754358Y-1652778D01*
X11759438Y-1663192D01*
X11764772Y-1678939D01*
X11764772Y-1704847D01*
X11759438Y-1720342D01*
X11754358Y-1730755D01*
X11743943Y-1741170D01*
X11728195Y-1746250D01*
X11691874Y-1746250D01*
X11850877Y-1637284D02*
G01*
X11799061Y-1709928D01*
X11876786Y-1709928D01*
X11850877Y-1637284D02*
G01*
X11850877Y-1746250D01*
X8483600Y-3161284D02*
G01*
X8483600Y-3270250D01*
X8483600Y-3270250D02*
G01*
X8545829Y-3270250D01*
X8580120Y-3161284D02*
G01*
X8580120Y-3270250D01*
X8580120Y-3161284D02*
G01*
X8647684Y-3161284D01*
X8580120Y-3213100D02*
G01*
X8621775Y-3213100D01*
X8580120Y-3270250D02*
G01*
X8647684Y-3270250D01*
X8681974Y-3161284D02*
G01*
X8681974Y-3270250D01*
X8681974Y-3161284D02*
G01*
X8718295Y-3161284D01*
X8734043Y-3166363D01*
X8744458Y-3176778D01*
X8749538Y-3187192D01*
X8754872Y-3202939D01*
X8754872Y-3228847D01*
X8749538Y-3244342D01*
X8744458Y-3254755D01*
X8734043Y-3265170D01*
X8718295Y-3270250D01*
X8681974Y-3270250D01*
X8851391Y-3161284D02*
G01*
X8799575Y-3161284D01*
X8794241Y-3208020D01*
X8799575Y-3202939D01*
X8815070Y-3197605D01*
X8830563Y-3197605D01*
X8846311Y-3202939D01*
X8856725Y-3213100D01*
X8861806Y-3228847D01*
X8861806Y-3239262D01*
X8856725Y-3254755D01*
X8846311Y-3265170D01*
X8830563Y-3270250D01*
X8815070Y-3270250D01*
X8799575Y-3265170D01*
X8794241Y-3260089D01*
X8789161Y-3249676D01*
X9474200Y-3161284D02*
G01*
X9474200Y-3270250D01*
X9474200Y-3270250D02*
G01*
X9536429Y-3270250D01*
X9570720Y-3161284D02*
G01*
X9570720Y-3270250D01*
X9570720Y-3161284D02*
G01*
X9638284Y-3161284D01*
X9570720Y-3213100D02*
G01*
X9612375Y-3213100D01*
X9570720Y-3270250D02*
G01*
X9638284Y-3270250D01*
X9672574Y-3161284D02*
G01*
X9672574Y-3270250D01*
X9672574Y-3161284D02*
G01*
X9708895Y-3161284D01*
X9724643Y-3166363D01*
X9735058Y-3176778D01*
X9740138Y-3187192D01*
X9745472Y-3202939D01*
X9745472Y-3228847D01*
X9740138Y-3244342D01*
X9735058Y-3254755D01*
X9724643Y-3265170D01*
X9708895Y-3270250D01*
X9672574Y-3270250D01*
X9841991Y-3176778D02*
G01*
X9836911Y-3166363D01*
X9821163Y-3161284D01*
X9810750Y-3161284D01*
X9795256Y-3166363D01*
X9784841Y-3182112D01*
X9779761Y-3208020D01*
X9779761Y-3233928D01*
X9784841Y-3254755D01*
X9795256Y-3265170D01*
X9810750Y-3270250D01*
X9816084Y-3270250D01*
X9831577Y-3265170D01*
X9841991Y-3254755D01*
X9847325Y-3239262D01*
X9847325Y-3233928D01*
X9841991Y-3218434D01*
X9831577Y-3208020D01*
X9816084Y-3202939D01*
X9810750Y-3202939D01*
X9795256Y-3208020D01*
X9784841Y-3218434D01*
X9779761Y-3233928D01*
X10490200Y-3161284D02*
G01*
X10490200Y-3270250D01*
X10490200Y-3270250D02*
G01*
X10552429Y-3270250D01*
X10586720Y-3161284D02*
G01*
X10586720Y-3270250D01*
X10586720Y-3161284D02*
G01*
X10654284Y-3161284D01*
X10586720Y-3213100D02*
G01*
X10628375Y-3213100D01*
X10586720Y-3270250D02*
G01*
X10654284Y-3270250D01*
X10688574Y-3161284D02*
G01*
X10688574Y-3270250D01*
X10688574Y-3161284D02*
G01*
X10724895Y-3161284D01*
X10740643Y-3166363D01*
X10751058Y-3176778D01*
X10756138Y-3187192D01*
X10761472Y-3202939D01*
X10761472Y-3228847D01*
X10756138Y-3244342D01*
X10751058Y-3254755D01*
X10740643Y-3265170D01*
X10724895Y-3270250D01*
X10688574Y-3270250D01*
X10868406Y-3161284D02*
G01*
X10816336Y-3270250D01*
X10795761Y-3161284D02*
G01*
X10868406Y-3161284D01*
X11493500Y-3161284D02*
G01*
X11493500Y-3270250D01*
X11493500Y-3270250D02*
G01*
X11555729Y-3270250D01*
X11590020Y-3161284D02*
G01*
X11590020Y-3270250D01*
X11590020Y-3161284D02*
G01*
X11657584Y-3161284D01*
X11590020Y-3213100D02*
G01*
X11631675Y-3213100D01*
X11590020Y-3270250D02*
G01*
X11657584Y-3270250D01*
X11691874Y-3161284D02*
G01*
X11691874Y-3270250D01*
X11691874Y-3161284D02*
G01*
X11728195Y-3161284D01*
X11743943Y-3166363D01*
X11754358Y-3176778D01*
X11759438Y-3187192D01*
X11764772Y-3202939D01*
X11764772Y-3228847D01*
X11759438Y-3244342D01*
X11754358Y-3254755D01*
X11743943Y-3265170D01*
X11728195Y-3270250D01*
X11691874Y-3270250D01*
X11824970Y-3161284D02*
G01*
X11809475Y-3166363D01*
X11804141Y-3176778D01*
X11804141Y-3187192D01*
X11809475Y-3197605D01*
X11819636Y-3202939D01*
X11840463Y-3208020D01*
X11856211Y-3213100D01*
X11866625Y-3223513D01*
X11871706Y-3233928D01*
X11871706Y-3249676D01*
X11866625Y-3260089D01*
X11861291Y-3265170D01*
X11845797Y-3270250D01*
X11824970Y-3270250D01*
X11809475Y-3265170D01*
X11804141Y-3260089D01*
X11799061Y-3249676D01*
X11799061Y-3233928D01*
X11804141Y-3223513D01*
X11814556Y-3213100D01*
X11830050Y-3208020D01*
X11850877Y-3202939D01*
X11861291Y-3197605D01*
X11866625Y-3187192D01*
X11866625Y-3176778D01*
X11861291Y-3166363D01*
X11845797Y-3161284D01*
X11824970Y-3161284D01*
X8420100Y-4685284D02*
G01*
X8420100Y-4794250D01*
X8420100Y-4794250D02*
G01*
X8482329Y-4794250D01*
X8516620Y-4685284D02*
G01*
X8516620Y-4794250D01*
X8516620Y-4685284D02*
G01*
X8584184Y-4685284D01*
X8516620Y-4737100D02*
G01*
X8558275Y-4737100D01*
X8516620Y-4794250D02*
G01*
X8584184Y-4794250D01*
X8618474Y-4685284D02*
G01*
X8618474Y-4794250D01*
X8618474Y-4685284D02*
G01*
X8654795Y-4685284D01*
X8670543Y-4690363D01*
X8680958Y-4700778D01*
X8686038Y-4711192D01*
X8691372Y-4726939D01*
X8691372Y-4752847D01*
X8686038Y-4768342D01*
X8680958Y-4778755D01*
X8670543Y-4789170D01*
X8654795Y-4794250D01*
X8618474Y-4794250D01*
X8793225Y-4721605D02*
G01*
X8787891Y-4737100D01*
X8777477Y-4747513D01*
X8761984Y-4752847D01*
X8756650Y-4752847D01*
X8741156Y-4747513D01*
X8730741Y-4737100D01*
X8725661Y-4721605D01*
X8725661Y-4716526D01*
X8730741Y-4700778D01*
X8741156Y-4690363D01*
X8756650Y-4685284D01*
X8761984Y-4685284D01*
X8777477Y-4690363D01*
X8787891Y-4700778D01*
X8793225Y-4721605D01*
X8793225Y-4747513D01*
X8787891Y-4773676D01*
X8777477Y-4789170D01*
X8761984Y-4794250D01*
X8751570Y-4794250D01*
X8736075Y-4789170D01*
X8730741Y-4778755D01*
X9461500Y-4685284D02*
G01*
X9461500Y-4794250D01*
X9461500Y-4794250D02*
G01*
X9523729Y-4794250D01*
X9558020Y-4685284D02*
G01*
X9558020Y-4794250D01*
X9558020Y-4685284D02*
G01*
X9625584Y-4685284D01*
X9558020Y-4737100D02*
G01*
X9599675Y-4737100D01*
X9558020Y-4794250D02*
G01*
X9625584Y-4794250D01*
X9659874Y-4685284D02*
G01*
X9659874Y-4794250D01*
X9659874Y-4685284D02*
G01*
X9696195Y-4685284D01*
X9711943Y-4690363D01*
X9722358Y-4700778D01*
X9727438Y-4711192D01*
X9732772Y-4726939D01*
X9732772Y-4752847D01*
X9727438Y-4768342D01*
X9722358Y-4778755D01*
X9711943Y-4789170D01*
X9696195Y-4794250D01*
X9659874Y-4794250D01*
X9767061Y-4706112D02*
G01*
X9777475Y-4700778D01*
X9792970Y-4685284D01*
X9792970Y-4794250D01*
X9858502Y-4685284D02*
G01*
X9842754Y-4690363D01*
X9832340Y-4706112D01*
X9827259Y-4732020D01*
X9827259Y-4747513D01*
X9832340Y-4773676D01*
X9842754Y-4789170D01*
X9858502Y-4794250D01*
X9868915Y-4794250D01*
X9884409Y-4789170D01*
X9894824Y-4773676D01*
X9899904Y-4747513D01*
X9899904Y-4732020D01*
X9894824Y-4706112D01*
X9884409Y-4690363D01*
X9868915Y-4685284D01*
X9858502Y-4685284D01*
X9067800Y-12825984D02*
G01*
X9067800Y-12934950D01*
X9067800Y-12934950D02*
G01*
X9130029Y-12934950D01*
X9164320Y-12825984D02*
G01*
X9164320Y-12934950D01*
X9164320Y-12825984D02*
G01*
X9231884Y-12825984D01*
X9164320Y-12877800D02*
G01*
X9205975Y-12877800D01*
X9164320Y-12934950D02*
G01*
X9231884Y-12934950D01*
X9266174Y-12825984D02*
G01*
X9266174Y-12934950D01*
X9266174Y-12825984D02*
G01*
X9302495Y-12825984D01*
X9318243Y-12831063D01*
X9328658Y-12841478D01*
X9333738Y-12851892D01*
X9339072Y-12867386D01*
X9339072Y-12893547D01*
X9333738Y-12909042D01*
X9328658Y-12919455D01*
X9318243Y-12929870D01*
X9302495Y-12934950D01*
X9266174Y-12934950D01*
X9373361Y-12846812D02*
G01*
X9383775Y-12841478D01*
X9399270Y-12825984D01*
X9399270Y-12934950D01*
X9506204Y-12825984D02*
G01*
X9454388Y-12934950D01*
X9433559Y-12825984D02*
G01*
X9506204Y-12825984D01*
X10477500Y-4697984D02*
G01*
X10477500Y-4806950D01*
X10477500Y-4806950D02*
G01*
X10539729Y-4806950D01*
X10574020Y-4697984D02*
G01*
X10574020Y-4806950D01*
X10574020Y-4697984D02*
G01*
X10641584Y-4697984D01*
X10574020Y-4749800D02*
G01*
X10615675Y-4749800D01*
X10574020Y-4806950D02*
G01*
X10641584Y-4806950D01*
X10675874Y-4697984D02*
G01*
X10675874Y-4806950D01*
X10675874Y-4697984D02*
G01*
X10712195Y-4697984D01*
X10727943Y-4703063D01*
X10738358Y-4713478D01*
X10743438Y-4723892D01*
X10748772Y-4739639D01*
X10748772Y-4765547D01*
X10743438Y-4781042D01*
X10738358Y-4791455D01*
X10727943Y-4801870D01*
X10712195Y-4806950D01*
X10675874Y-4806950D01*
X10783061Y-4718812D02*
G01*
X10793475Y-4713478D01*
X10808970Y-4697984D01*
X10808970Y-4806950D01*
X10843259Y-4718812D02*
G01*
X10853674Y-4713478D01*
X10869168Y-4697984D01*
X10869168Y-4806950D01*
X8026400Y-12838684D02*
G01*
X8026400Y-12947650D01*
X8026400Y-12947650D02*
G01*
X8088629Y-12947650D01*
X8122920Y-12838684D02*
G01*
X8122920Y-12947650D01*
X8122920Y-12838684D02*
G01*
X8190484Y-12838684D01*
X8122920Y-12890500D02*
G01*
X8164575Y-12890500D01*
X8122920Y-12947650D02*
G01*
X8190484Y-12947650D01*
X8224774Y-12838684D02*
G01*
X8224774Y-12947650D01*
X8224774Y-12838684D02*
G01*
X8261095Y-12838684D01*
X8276843Y-12843763D01*
X8287258Y-12854178D01*
X8292338Y-12864592D01*
X8297672Y-12880086D01*
X8297672Y-12906247D01*
X8292338Y-12921742D01*
X8287258Y-12932155D01*
X8276843Y-12942570D01*
X8261095Y-12947650D01*
X8224774Y-12947650D01*
X8331961Y-12859512D02*
G01*
X8342375Y-12854178D01*
X8357870Y-12838684D01*
X8357870Y-12947650D01*
X8418068Y-12838684D02*
G01*
X8402574Y-12843763D01*
X8397240Y-12854178D01*
X8397240Y-12864592D01*
X8402574Y-12875005D01*
X8412988Y-12880086D01*
X8433815Y-12885420D01*
X8449309Y-12890500D01*
X8459724Y-12900913D01*
X8464804Y-12911328D01*
X8464804Y-12927076D01*
X8459724Y-12937236D01*
X8454390Y-12942570D01*
X8438895Y-12947650D01*
X8418068Y-12947650D01*
X8402574Y-12942570D01*
X8397240Y-12937236D01*
X8392159Y-12927076D01*
X8392159Y-12911328D01*
X8397240Y-12900913D01*
X8407654Y-12890500D01*
X8423402Y-12885420D01*
X8443975Y-12880086D01*
X8454390Y-12875005D01*
X8459724Y-12864592D01*
X8459724Y-12854178D01*
X8454390Y-12843763D01*
X8438895Y-12838684D01*
X8418068Y-12838684D01*
X11442700Y-4697984D02*
G01*
X11442700Y-4806950D01*
X11442700Y-4806950D02*
G01*
X11504929Y-4806950D01*
X11539220Y-4697984D02*
G01*
X11539220Y-4806950D01*
X11539220Y-4697984D02*
G01*
X11606784Y-4697984D01*
X11539220Y-4749800D02*
G01*
X11580875Y-4749800D01*
X11539220Y-4806950D02*
G01*
X11606784Y-4806950D01*
X11641074Y-4697984D02*
G01*
X11641074Y-4806950D01*
X11641074Y-4697984D02*
G01*
X11677395Y-4697984D01*
X11693143Y-4703063D01*
X11703558Y-4713478D01*
X11708638Y-4723892D01*
X11713972Y-4739639D01*
X11713972Y-4765547D01*
X11708638Y-4781042D01*
X11703558Y-4791455D01*
X11693143Y-4801870D01*
X11677395Y-4806950D01*
X11641074Y-4806950D01*
X11748261Y-4718812D02*
G01*
X11758675Y-4713478D01*
X11774170Y-4697984D01*
X11774170Y-4806950D01*
X11813540Y-4723892D02*
G01*
X11813540Y-4718812D01*
X11818874Y-4708397D01*
X11823954Y-4703063D01*
X11834368Y-4697984D01*
X11855195Y-4697984D01*
X11865609Y-4703063D01*
X11870690Y-4708397D01*
X11876024Y-4718812D01*
X11876024Y-4729226D01*
X11870690Y-4739639D01*
X11860275Y-4755134D01*
X11808459Y-4806950D01*
X11881104Y-4806950D01*
X8420100Y-6209284D02*
G01*
X8420100Y-6318250D01*
X8420100Y-6318250D02*
G01*
X8482329Y-6318250D01*
X8516620Y-6209284D02*
G01*
X8516620Y-6318250D01*
X8516620Y-6209284D02*
G01*
X8584184Y-6209284D01*
X8516620Y-6261100D02*
G01*
X8558275Y-6261100D01*
X8516620Y-6318250D02*
G01*
X8584184Y-6318250D01*
X8618474Y-6209284D02*
G01*
X8618474Y-6318250D01*
X8618474Y-6209284D02*
G01*
X8654795Y-6209284D01*
X8670543Y-6214363D01*
X8680958Y-6224778D01*
X8686038Y-6235192D01*
X8691372Y-6250686D01*
X8691372Y-6276847D01*
X8686038Y-6292342D01*
X8680958Y-6302755D01*
X8670543Y-6313170D01*
X8654795Y-6318250D01*
X8618474Y-6318250D01*
X8725661Y-6230112D02*
G01*
X8736075Y-6224778D01*
X8751570Y-6209284D01*
X8751570Y-6318250D01*
X8796274Y-6209284D02*
G01*
X8853424Y-6209284D01*
X8822181Y-6250686D01*
X8837675Y-6250686D01*
X8848090Y-6256020D01*
X8853424Y-6261100D01*
X8858504Y-6276847D01*
X8858504Y-6287262D01*
X8853424Y-6302755D01*
X8843009Y-6313170D01*
X8827515Y-6318250D01*
X8811768Y-6318250D01*
X8796274Y-6313170D01*
X8790940Y-6307836D01*
X8785859Y-6297676D01*
X9448800Y-6209284D02*
G01*
X9448800Y-6318250D01*
X9448800Y-6318250D02*
G01*
X9511029Y-6318250D01*
X9545320Y-6209284D02*
G01*
X9545320Y-6318250D01*
X9545320Y-6209284D02*
G01*
X9612884Y-6209284D01*
X9545320Y-6261100D02*
G01*
X9586975Y-6261100D01*
X9545320Y-6318250D02*
G01*
X9612884Y-6318250D01*
X9647174Y-6209284D02*
G01*
X9647174Y-6318250D01*
X9647174Y-6209284D02*
G01*
X9683495Y-6209284D01*
X9699243Y-6214363D01*
X9709658Y-6224778D01*
X9714738Y-6235192D01*
X9720072Y-6250686D01*
X9720072Y-6276847D01*
X9714738Y-6292342D01*
X9709658Y-6302755D01*
X9699243Y-6313170D01*
X9683495Y-6318250D01*
X9647174Y-6318250D01*
X9754361Y-6230112D02*
G01*
X9764775Y-6224778D01*
X9780270Y-6209284D01*
X9780270Y-6318250D01*
X9866375Y-6209284D02*
G01*
X9814559Y-6281928D01*
X9892538Y-6281928D01*
X9866375Y-6209284D02*
G01*
X9866375Y-6318250D01*
X10439400Y-6209284D02*
G01*
X10439400Y-6318250D01*
X10439400Y-6318250D02*
G01*
X10501629Y-6318250D01*
X10535920Y-6209284D02*
G01*
X10535920Y-6318250D01*
X10535920Y-6209284D02*
G01*
X10603484Y-6209284D01*
X10535920Y-6261100D02*
G01*
X10577575Y-6261100D01*
X10535920Y-6318250D02*
G01*
X10603484Y-6318250D01*
X10637774Y-6209284D02*
G01*
X10637774Y-6318250D01*
X10637774Y-6209284D02*
G01*
X10674095Y-6209284D01*
X10689843Y-6214363D01*
X10700258Y-6224778D01*
X10705338Y-6235192D01*
X10710672Y-6250686D01*
X10710672Y-6276847D01*
X10705338Y-6292342D01*
X10700258Y-6302755D01*
X10689843Y-6313170D01*
X10674095Y-6318250D01*
X10637774Y-6318250D01*
X10744961Y-6230112D02*
G01*
X10755375Y-6224778D01*
X10770870Y-6209284D01*
X10770870Y-6318250D01*
X10867390Y-6209284D02*
G01*
X10815574Y-6209284D01*
X10810240Y-6256020D01*
X10815574Y-6250686D01*
X10831068Y-6245605D01*
X10846815Y-6245605D01*
X10862309Y-6250686D01*
X10872724Y-6261100D01*
X10877804Y-6276847D01*
X10877804Y-6287262D01*
X10872724Y-6302755D01*
X10862309Y-6313170D01*
X10846815Y-6318250D01*
X10831068Y-6318250D01*
X10815574Y-6313170D01*
X10810240Y-6307836D01*
X10805159Y-6297676D01*
X11455400Y-6209284D02*
G01*
X11455400Y-6318250D01*
X11455400Y-6318250D02*
G01*
X11517629Y-6318250D01*
X11551920Y-6209284D02*
G01*
X11551920Y-6318250D01*
X11551920Y-6209284D02*
G01*
X11619484Y-6209284D01*
X11551920Y-6261100D02*
G01*
X11593575Y-6261100D01*
X11551920Y-6318250D02*
G01*
X11619484Y-6318250D01*
X11653774Y-6209284D02*
G01*
X11653774Y-6318250D01*
X11653774Y-6209284D02*
G01*
X11690095Y-6209284D01*
X11705843Y-6214363D01*
X11716258Y-6224778D01*
X11721338Y-6235192D01*
X11726672Y-6250686D01*
X11726672Y-6276847D01*
X11721338Y-6292342D01*
X11716258Y-6302755D01*
X11705843Y-6313170D01*
X11690095Y-6318250D01*
X11653774Y-6318250D01*
X11760961Y-6230112D02*
G01*
X11771375Y-6224778D01*
X11786870Y-6209284D01*
X11786870Y-6318250D01*
X11883390Y-6224778D02*
G01*
X11878309Y-6214363D01*
X11862815Y-6209284D01*
X11852402Y-6209284D01*
X11836654Y-6214363D01*
X11826240Y-6230112D01*
X11821159Y-6256020D01*
X11821159Y-6281928D01*
X11826240Y-6302755D01*
X11836654Y-6313170D01*
X11852402Y-6318250D01*
X11857481Y-6318250D01*
X11872975Y-6313170D01*
X11883390Y-6302755D01*
X11888724Y-6287262D01*
X11888724Y-6281928D01*
X11883390Y-6266434D01*
X11872975Y-6256020D01*
X11857481Y-6250686D01*
X11852402Y-6250686D01*
X11836654Y-6256020D01*
X11826240Y-6266434D01*
X11821159Y-6281928D01*
X9283707Y-11111461D02*
G01*
X9283707Y-11220427D01*
X9283707Y-11111461D02*
G01*
X9325363Y-11220427D01*
X9366765Y-11111461D02*
G01*
X9325363Y-11220427D01*
X9366765Y-11111461D02*
G01*
X9366765Y-11220427D01*
X9401055Y-11132289D02*
G01*
X9411469Y-11126955D01*
X9426963Y-11111461D01*
X9426963Y-11220427D01*
X254000Y-11314686D02*
G01*
X254000Y-11423652D01*
X254000Y-11314686D02*
G01*
X295655Y-11423652D01*
X337057Y-11314686D02*
G01*
X295655Y-11423652D01*
X337057Y-11314686D02*
G01*
X337057Y-11423652D01*
X376681Y-11340594D02*
G01*
X376681Y-11335514D01*
X381762Y-11325100D01*
X387095Y-11319766D01*
X397510Y-11314686D01*
X418084Y-11314686D01*
X428497Y-11319766D01*
X433831Y-11325100D01*
X438912Y-11335514D01*
X438912Y-11345928D01*
X433831Y-11356088D01*
X423418Y-11371836D01*
X371347Y-11423652D01*
X444245Y-11423652D01*
X5537192Y-12648181D02*
G01*
X5537192Y-12757147D01*
X5537192Y-12648181D02*
G01*
X5583928Y-12648181D01*
X5599422Y-12653261D01*
X5604756Y-12658595D01*
X5609836Y-12669009D01*
X5609836Y-12679423D01*
X5604756Y-12689583D01*
X5599422Y-12694917D01*
X5583928Y-12699997D01*
X5537192Y-12699997D01*
X5573514Y-12699997D02*
G01*
X5609836Y-12757147D01*
X5649460Y-12674089D02*
G01*
X5649460Y-12669009D01*
X5654540Y-12658595D01*
X5659874Y-12653261D01*
X5670288Y-12648181D01*
X5690862Y-12648181D01*
X5701276Y-12653261D01*
X5706610Y-12658595D01*
X5711690Y-12669009D01*
X5711690Y-12679423D01*
X5706610Y-12689583D01*
X5696196Y-12705331D01*
X5644126Y-12757147D01*
X5717024Y-12757147D01*
X5761728Y-12648181D02*
G01*
X5818878Y-12648181D01*
X5787636Y-12689583D01*
X5803130Y-12689583D01*
X5813544Y-12694917D01*
X5818878Y-12699997D01*
X5823958Y-12715745D01*
X5823958Y-12726159D01*
X5818878Y-12741653D01*
X5808464Y-12752067D01*
X5792716Y-12757147D01*
X5777222Y-12757147D01*
X5761728Y-12752067D01*
X5756394Y-12746733D01*
X5751314Y-12736573D01*
X8178810Y-2729478D02*
G01*
X8178810Y-2838444D01*
X8178810Y-2729478D02*
G01*
X8225546Y-2729478D01*
X8241040Y-2734558D01*
X8246374Y-2739892D01*
X8251454Y-2750306D01*
X8251454Y-2760720D01*
X8246374Y-2771134D01*
X8241040Y-2776214D01*
X8225546Y-2781294D01*
X8178810Y-2781294D01*
X8215132Y-2781294D02*
G01*
X8251454Y-2838444D01*
X8291078Y-2755386D02*
G01*
X8291078Y-2750306D01*
X8296158Y-2739892D01*
X8301492Y-2734558D01*
X8311906Y-2729478D01*
X8332480Y-2729478D01*
X8342894Y-2734558D01*
X8348228Y-2739892D01*
X8353308Y-2750306D01*
X8353308Y-2760720D01*
X8348228Y-2771134D01*
X8337814Y-2786628D01*
X8285744Y-2838444D01*
X8358642Y-2838444D01*
X8444748Y-2729478D02*
G01*
X8392932Y-2802122D01*
X8470656Y-2802122D01*
X8444748Y-2729478D02*
G01*
X8444748Y-2838444D01*
X10579072Y-12381481D02*
G01*
X10579072Y-12490447D01*
X10579072Y-12381481D02*
G01*
X10625808Y-12381481D01*
X10641302Y-12386561D01*
X10646636Y-12391895D01*
X10651716Y-12402309D01*
X10651716Y-12412723D01*
X10646636Y-12422883D01*
X10641302Y-12428217D01*
X10625808Y-12433297D01*
X10579072Y-12433297D01*
X10615394Y-12433297D02*
G01*
X10651716Y-12490447D01*
X10691340Y-12407389D02*
G01*
X10691340Y-12402309D01*
X10696420Y-12391895D01*
X10701754Y-12386561D01*
X10712168Y-12381481D01*
X10732742Y-12381481D01*
X10743156Y-12386561D01*
X10748490Y-12391895D01*
X10753570Y-12402309D01*
X10753570Y-12412723D01*
X10748490Y-12422883D01*
X10738076Y-12438631D01*
X10686006Y-12490447D01*
X10758904Y-12490447D01*
X10855424Y-12381481D02*
G01*
X10803608Y-12381481D01*
X10798274Y-12428217D01*
X10803608Y-12422883D01*
X10819102Y-12417803D01*
X10834596Y-12417803D01*
X10850344Y-12422883D01*
X10860758Y-12433297D01*
X10865838Y-12449045D01*
X10865838Y-12459459D01*
X10860758Y-12474953D01*
X10850344Y-12485367D01*
X10834596Y-12490447D01*
X10819102Y-12490447D01*
X10803608Y-12485367D01*
X10798274Y-12480033D01*
X10793194Y-12469873D01*
X9220207Y-2729478D02*
G01*
X9220207Y-2838444D01*
X9220207Y-2729478D02*
G01*
X9266943Y-2729478D01*
X9282437Y-2734558D01*
X9287771Y-2739892D01*
X9292851Y-2750306D01*
X9292851Y-2760720D01*
X9287771Y-2771134D01*
X9282437Y-2776214D01*
X9266943Y-2781294D01*
X9220207Y-2781294D01*
X9256529Y-2781294D02*
G01*
X9292851Y-2838444D01*
X9332475Y-2755386D02*
G01*
X9332475Y-2750306D01*
X9337555Y-2739892D01*
X9342889Y-2734558D01*
X9353303Y-2729478D01*
X9373877Y-2729478D01*
X9384291Y-2734558D01*
X9389625Y-2739892D01*
X9394705Y-2750306D01*
X9394705Y-2760720D01*
X9389625Y-2771134D01*
X9379211Y-2786628D01*
X9327141Y-2838444D01*
X9400039Y-2838444D01*
X9496559Y-2744972D02*
G01*
X9491479Y-2734558D01*
X9475731Y-2729478D01*
X9465317Y-2729478D01*
X9449823Y-2734558D01*
X9439409Y-2750306D01*
X9434329Y-2776214D01*
X9434329Y-2802122D01*
X9439409Y-2822950D01*
X9449823Y-2833364D01*
X9465317Y-2838444D01*
X9470651Y-2838444D01*
X9486145Y-2833364D01*
X9496559Y-2822950D01*
X9501893Y-2807456D01*
X9501893Y-2802122D01*
X9496559Y-2786628D01*
X9486145Y-2776214D01*
X9470651Y-2771134D01*
X9465317Y-2771134D01*
X9449823Y-2776214D01*
X9439409Y-2786628D01*
X9434329Y-2802122D01*
X10668005Y-2691378D02*
G01*
X10668005Y-2800344D01*
X10668005Y-2691378D02*
G01*
X10714741Y-2691378D01*
X10730235Y-2696458D01*
X10735569Y-2701792D01*
X10740649Y-2712206D01*
X10740649Y-2722620D01*
X10735569Y-2733034D01*
X10730235Y-2738114D01*
X10714741Y-2743194D01*
X10668005Y-2743194D01*
X10704327Y-2743194D02*
G01*
X10740649Y-2800344D01*
X10780273Y-2717286D02*
G01*
X10780273Y-2712206D01*
X10785353Y-2701792D01*
X10790687Y-2696458D01*
X10801101Y-2691378D01*
X10821675Y-2691378D01*
X10832089Y-2696458D01*
X10837423Y-2701792D01*
X10842503Y-2712206D01*
X10842503Y-2722620D01*
X10837423Y-2733034D01*
X10827009Y-2748528D01*
X10774939Y-2800344D01*
X10847837Y-2800344D01*
X10954771Y-2691378D02*
G01*
X10902701Y-2800344D01*
X10882127Y-2691378D02*
G01*
X10954771Y-2691378D01*
X11988802Y-2310378D02*
G01*
X11988802Y-2419344D01*
X11988802Y-2310378D02*
G01*
X12035538Y-2310378D01*
X12051032Y-2315458D01*
X12056366Y-2320792D01*
X12061446Y-2331206D01*
X12061446Y-2341620D01*
X12056366Y-2352034D01*
X12051032Y-2357114D01*
X12035538Y-2362194D01*
X11988802Y-2362194D01*
X12025124Y-2362194D02*
G01*
X12061446Y-2419344D01*
X12101070Y-2336286D02*
G01*
X12101070Y-2331206D01*
X12106150Y-2320792D01*
X12111484Y-2315458D01*
X12121898Y-2310378D01*
X12142472Y-2310378D01*
X12152886Y-2315458D01*
X12158220Y-2320792D01*
X12163300Y-2331206D01*
X12163300Y-2341620D01*
X12158220Y-2352034D01*
X12147806Y-2367528D01*
X12095736Y-2419344D01*
X12168634Y-2419344D01*
X12228832Y-2310378D02*
G01*
X12213338Y-2315458D01*
X12208004Y-2325872D01*
X12208004Y-2336286D01*
X12213338Y-2346700D01*
X12223498Y-2352034D01*
X12244326Y-2357114D01*
X12260074Y-2362194D01*
X12270488Y-2372608D01*
X12275568Y-2383022D01*
X12275568Y-2398770D01*
X12270488Y-2409184D01*
X12265154Y-2414264D01*
X12249660Y-2419344D01*
X12228832Y-2419344D01*
X12213338Y-2414264D01*
X12208004Y-2409184D01*
X12202924Y-2398770D01*
X12202924Y-2383022D01*
X12208004Y-2372608D01*
X12218418Y-2362194D01*
X12233912Y-2357114D01*
X12254740Y-2352034D01*
X12265154Y-2346700D01*
X12270488Y-2336286D01*
X12270488Y-2325872D01*
X12265154Y-2315458D01*
X12249660Y-2310378D01*
X12228832Y-2310378D01*
X8178810Y-4240776D02*
G01*
X8178810Y-4349742D01*
X8178810Y-4240776D02*
G01*
X8225546Y-4240776D01*
X8241040Y-4245856D01*
X8246374Y-4251190D01*
X8251454Y-4261604D01*
X8251454Y-4272018D01*
X8246374Y-4282432D01*
X8241040Y-4287512D01*
X8225546Y-4292592D01*
X8178810Y-4292592D01*
X8215132Y-4292592D02*
G01*
X8251454Y-4349742D01*
X8291078Y-4266684D02*
G01*
X8291078Y-4261604D01*
X8296158Y-4251190D01*
X8301492Y-4245856D01*
X8311906Y-4240776D01*
X8332480Y-4240776D01*
X8342894Y-4245856D01*
X8348228Y-4251190D01*
X8353308Y-4261604D01*
X8353308Y-4272018D01*
X8348228Y-4282432D01*
X8337814Y-4297926D01*
X8285744Y-4349742D01*
X8358642Y-4349742D01*
X8460496Y-4277098D02*
G01*
X8455162Y-4292592D01*
X8444748Y-4303006D01*
X8429254Y-4308340D01*
X8423920Y-4308340D01*
X8408426Y-4303006D01*
X8398012Y-4292592D01*
X8392932Y-4277098D01*
X8392932Y-4272018D01*
X8398012Y-4256270D01*
X8408426Y-4245856D01*
X8423920Y-4240776D01*
X8429254Y-4240776D01*
X8444748Y-4245856D01*
X8455162Y-4256270D01*
X8460496Y-4277098D01*
X8460496Y-4303006D01*
X8455162Y-4329168D01*
X8444748Y-4344662D01*
X8429254Y-4349742D01*
X8418840Y-4349742D01*
X8403346Y-4344662D01*
X8398012Y-4334248D01*
X9194807Y-4253476D02*
G01*
X9194807Y-4362442D01*
X9194807Y-4253476D02*
G01*
X9241543Y-4253476D01*
X9257037Y-4258556D01*
X9262371Y-4263890D01*
X9267451Y-4274304D01*
X9267451Y-4284718D01*
X9262371Y-4295132D01*
X9257037Y-4300212D01*
X9241543Y-4305292D01*
X9194807Y-4305292D01*
X9231129Y-4305292D02*
G01*
X9267451Y-4362442D01*
X9312155Y-4253476D02*
G01*
X9369305Y-4253476D01*
X9338063Y-4295132D01*
X9353811Y-4295132D01*
X9364225Y-4300212D01*
X9369305Y-4305292D01*
X9374639Y-4321040D01*
X9374639Y-4331454D01*
X9369305Y-4346948D01*
X9358891Y-4357362D01*
X9343397Y-4362442D01*
X9327903Y-4362442D01*
X9312155Y-4357362D01*
X9307075Y-4352282D01*
X9301741Y-4341868D01*
X9439917Y-4253476D02*
G01*
X9424423Y-4258556D01*
X9414009Y-4274304D01*
X9408929Y-4300212D01*
X9408929Y-4315706D01*
X9414009Y-4341868D01*
X9424423Y-4357362D01*
X9439917Y-4362442D01*
X9450331Y-4362442D01*
X9466079Y-4357362D01*
X9476493Y-4341868D01*
X9481573Y-4315706D01*
X9481573Y-4300212D01*
X9476493Y-4274304D01*
X9466079Y-4258556D01*
X9450331Y-4253476D01*
X9439917Y-4253476D01*
X10223505Y-4139176D02*
G01*
X10223505Y-4248142D01*
X10223505Y-4139176D02*
G01*
X10270241Y-4139176D01*
X10285735Y-4144256D01*
X10291069Y-4149590D01*
X10296149Y-4160004D01*
X10296149Y-4170418D01*
X10291069Y-4180832D01*
X10285735Y-4185912D01*
X10270241Y-4190992D01*
X10223505Y-4190992D01*
X10259827Y-4190992D02*
G01*
X10296149Y-4248142D01*
X10340853Y-4139176D02*
G01*
X10398003Y-4139176D01*
X10366761Y-4180832D01*
X10382509Y-4180832D01*
X10392923Y-4185912D01*
X10398003Y-4190992D01*
X10403337Y-4206740D01*
X10403337Y-4217154D01*
X10398003Y-4232648D01*
X10387589Y-4243062D01*
X10372095Y-4248142D01*
X10356601Y-4248142D01*
X10340853Y-4243062D01*
X10335773Y-4237982D01*
X10330439Y-4227568D01*
X10437627Y-4160004D02*
G01*
X10448041Y-4154670D01*
X10463535Y-4139176D01*
X10463535Y-4248142D01*
X11214077Y-4151876D02*
G01*
X11214077Y-4260842D01*
X11214077Y-4151876D02*
G01*
X11260813Y-4151876D01*
X11276307Y-4156956D01*
X11281641Y-4162290D01*
X11286721Y-4172704D01*
X11286721Y-4183118D01*
X11281641Y-4193532D01*
X11276307Y-4198612D01*
X11260813Y-4203692D01*
X11214077Y-4203692D01*
X11250399Y-4203692D02*
G01*
X11286721Y-4260842D01*
X11331425Y-4151876D02*
G01*
X11388575Y-4151876D01*
X11357587Y-4193532D01*
X11373081Y-4193532D01*
X11383495Y-4198612D01*
X11388575Y-4203692D01*
X11393909Y-4219440D01*
X11393909Y-4229854D01*
X11388575Y-4245348D01*
X11378161Y-4255762D01*
X11362667Y-4260842D01*
X11347173Y-4260842D01*
X11331425Y-4255762D01*
X11326345Y-4250682D01*
X11321011Y-4240268D01*
X11433279Y-4177784D02*
G01*
X11433279Y-4172704D01*
X11438613Y-4162290D01*
X11443693Y-4156956D01*
X11454107Y-4151876D01*
X11474935Y-4151876D01*
X11485349Y-4156956D01*
X11490429Y-4162290D01*
X11495763Y-4172704D01*
X11495763Y-4183118D01*
X11490429Y-4193532D01*
X11480015Y-4209026D01*
X11428199Y-4260842D01*
X11500843Y-4260842D01*
X8153410Y-5752096D02*
G01*
X8153410Y-5861062D01*
X8153410Y-5752096D02*
G01*
X8200146Y-5752096D01*
X8215640Y-5757176D01*
X8220974Y-5762510D01*
X8226054Y-5772924D01*
X8226054Y-5783338D01*
X8220974Y-5793498D01*
X8215640Y-5798832D01*
X8200146Y-5803912D01*
X8153410Y-5803912D01*
X8189732Y-5803912D02*
G01*
X8226054Y-5861062D01*
X8270758Y-5752096D02*
G01*
X8327908Y-5752096D01*
X8296666Y-5793498D01*
X8312414Y-5793498D01*
X8322828Y-5798832D01*
X8327908Y-5803912D01*
X8333242Y-5819660D01*
X8333242Y-5830074D01*
X8327908Y-5845568D01*
X8317494Y-5855982D01*
X8302000Y-5861062D01*
X8286506Y-5861062D01*
X8270758Y-5855982D01*
X8265678Y-5850648D01*
X8260344Y-5840488D01*
X8377946Y-5752096D02*
G01*
X8435096Y-5752096D01*
X8403854Y-5793498D01*
X8419348Y-5793498D01*
X8429762Y-5798832D01*
X8435096Y-5803912D01*
X8440176Y-5819660D01*
X8440176Y-5830074D01*
X8435096Y-5845568D01*
X8424682Y-5855982D01*
X8408934Y-5861062D01*
X8393440Y-5861062D01*
X8377946Y-5855982D01*
X8372612Y-5850648D01*
X8367532Y-5840488D01*
X9182107Y-5739371D02*
G01*
X9182107Y-5848337D01*
X9182107Y-5739371D02*
G01*
X9228843Y-5739371D01*
X9244337Y-5744451D01*
X9249671Y-5749785D01*
X9254751Y-5760199D01*
X9254751Y-5770613D01*
X9249671Y-5781027D01*
X9244337Y-5786107D01*
X9228843Y-5791187D01*
X9182107Y-5791187D01*
X9218429Y-5791187D02*
G01*
X9254751Y-5848337D01*
X9299455Y-5739371D02*
G01*
X9356605Y-5739371D01*
X9325363Y-5781027D01*
X9341111Y-5781027D01*
X9351525Y-5786107D01*
X9356605Y-5791187D01*
X9361939Y-5806935D01*
X9361939Y-5817349D01*
X9356605Y-5832843D01*
X9346191Y-5843257D01*
X9330697Y-5848337D01*
X9315203Y-5848337D01*
X9299455Y-5843257D01*
X9294375Y-5838177D01*
X9289041Y-5827763D01*
X9448045Y-5739371D02*
G01*
X9396229Y-5812015D01*
X9473953Y-5812015D01*
X9448045Y-5739371D02*
G01*
X9448045Y-5848337D01*
X9817079Y-12381560D02*
G01*
X9817079Y-12490526D01*
X9817079Y-12381560D02*
G01*
X9863815Y-12381560D01*
X9879309Y-12386640D01*
X9884643Y-12391720D01*
X9889723Y-12402134D01*
X9889723Y-12412548D01*
X9884643Y-12422962D01*
X9879309Y-12428296D01*
X9863815Y-12433376D01*
X9817079Y-12433376D01*
X9853401Y-12433376D02*
G01*
X9889723Y-12490526D01*
X9934427Y-12381560D02*
G01*
X9991577Y-12381560D01*
X9960589Y-12422962D01*
X9976083Y-12422962D01*
X9986497Y-12428296D01*
X9991577Y-12433376D01*
X9996911Y-12448870D01*
X9996911Y-12459284D01*
X9991577Y-12475032D01*
X9981163Y-12485446D01*
X9965669Y-12490526D01*
X9950175Y-12490526D01*
X9934427Y-12485446D01*
X9929347Y-12480112D01*
X9924013Y-12469698D01*
X10093431Y-12381560D02*
G01*
X10041615Y-12381560D01*
X10036281Y-12428296D01*
X10041615Y-12422962D01*
X10057109Y-12417882D01*
X10072603Y-12417882D01*
X10088351Y-12422962D01*
X10098765Y-12433376D01*
X10103845Y-12448870D01*
X10103845Y-12459284D01*
X10098765Y-12475032D01*
X10088351Y-12485446D01*
X10072603Y-12490526D01*
X10057109Y-12490526D01*
X10041615Y-12485446D01*
X10036281Y-12480112D01*
X10031201Y-12469698D01*
X10642579Y-5764771D02*
G01*
X10642579Y-5873737D01*
X10642579Y-5764771D02*
G01*
X10689315Y-5764771D01*
X10704809Y-5769851D01*
X10710143Y-5775185D01*
X10715223Y-5785599D01*
X10715223Y-5796013D01*
X10710143Y-5806427D01*
X10704809Y-5811507D01*
X10689315Y-5816587D01*
X10642579Y-5816587D01*
X10678901Y-5816587D02*
G01*
X10715223Y-5873737D01*
X10759927Y-5764771D02*
G01*
X10817077Y-5764771D01*
X10786089Y-5806427D01*
X10801583Y-5806427D01*
X10811997Y-5811507D01*
X10817077Y-5816587D01*
X10822411Y-5832335D01*
X10822411Y-5842749D01*
X10817077Y-5858243D01*
X10806663Y-5868657D01*
X10791169Y-5873737D01*
X10775675Y-5873737D01*
X10759927Y-5868657D01*
X10754847Y-5863577D01*
X10749513Y-5853163D01*
X10918931Y-5780265D02*
G01*
X10913851Y-5769851D01*
X10898103Y-5764771D01*
X10887689Y-5764771D01*
X10872195Y-5769851D01*
X10861781Y-5785599D01*
X10856701Y-5811507D01*
X10856701Y-5837415D01*
X10861781Y-5858243D01*
X10872195Y-5868657D01*
X10887689Y-5873737D01*
X10893023Y-5873737D01*
X10908517Y-5868657D01*
X10918931Y-5858243D01*
X10924265Y-5842749D01*
X10924265Y-5837415D01*
X10918931Y-5821921D01*
X10908517Y-5811507D01*
X10893023Y-5806427D01*
X10887689Y-5806427D01*
X10872195Y-5811507D01*
X10861781Y-5821921D01*
X10856701Y-5837415D01*
X8826482Y-12368784D02*
G01*
X8826482Y-12477750D01*
X8826482Y-12368784D02*
G01*
X8873218Y-12368784D01*
X8888712Y-12373863D01*
X8894046Y-12379197D01*
X8899126Y-12389612D01*
X8899126Y-12400026D01*
X8894046Y-12410186D01*
X8888712Y-12415520D01*
X8873218Y-12420600D01*
X8826482Y-12420600D01*
X8862804Y-12420600D02*
G01*
X8899126Y-12477750D01*
X8943830Y-12368784D02*
G01*
X9000980Y-12368784D01*
X8969992Y-12410186D01*
X8985486Y-12410186D01*
X8995900Y-12415520D01*
X9000980Y-12420600D01*
X9006314Y-12436347D01*
X9006314Y-12446762D01*
X9000980Y-12462255D01*
X8990566Y-12472670D01*
X8975072Y-12477750D01*
X8959578Y-12477750D01*
X8943830Y-12472670D01*
X8938750Y-12467336D01*
X8933416Y-12457176D01*
X9113248Y-12368784D02*
G01*
X9061432Y-12477750D01*
X9040604Y-12368784D02*
G01*
X9113248Y-12368784D01*
X11963402Y-5383773D02*
G01*
X11963402Y-5492739D01*
X11963402Y-5383773D02*
G01*
X12010138Y-5383773D01*
X12025632Y-5388853D01*
X12030966Y-5394187D01*
X12036046Y-5404601D01*
X12036046Y-5415015D01*
X12030966Y-5425429D01*
X12025632Y-5430509D01*
X12010138Y-5435589D01*
X11963402Y-5435589D01*
X11999724Y-5435589D02*
G01*
X12036046Y-5492739D01*
X12080750Y-5383773D02*
G01*
X12137900Y-5383773D01*
X12106658Y-5425429D01*
X12122406Y-5425429D01*
X12132820Y-5430509D01*
X12137900Y-5435589D01*
X12143234Y-5451337D01*
X12143234Y-5461751D01*
X12137900Y-5477245D01*
X12127486Y-5487659D01*
X12111992Y-5492739D01*
X12096498Y-5492739D01*
X12080750Y-5487659D01*
X12075670Y-5482579D01*
X12070336Y-5472165D01*
X12203432Y-5383773D02*
G01*
X12187938Y-5388853D01*
X12182604Y-5399267D01*
X12182604Y-5409681D01*
X12187938Y-5420095D01*
X12198098Y-5425429D01*
X12218926Y-5430509D01*
X12234674Y-5435589D01*
X12245088Y-5446003D01*
X12250168Y-5456417D01*
X12250168Y-5472165D01*
X12245088Y-5482579D01*
X12239754Y-5487659D01*
X12224260Y-5492739D01*
X12203432Y-5492739D01*
X12187938Y-5487659D01*
X12182604Y-5482579D01*
X12177524Y-5472165D01*
X12177524Y-5456417D01*
X12182604Y-5446003D01*
X12193018Y-5435589D01*
X12208512Y-5430509D01*
X12229340Y-5425429D01*
X12239754Y-5420095D01*
X12245088Y-5409681D01*
X12245088Y-5399267D01*
X12239754Y-5388853D01*
X12224260Y-5383773D01*
X12203432Y-5383773D01*
X8191510Y-7288768D02*
G01*
X8191510Y-7397734D01*
X8191510Y-7288768D02*
G01*
X8238246Y-7288768D01*
X8253740Y-7293848D01*
X8259074Y-7299182D01*
X8264154Y-7309596D01*
X8264154Y-7320010D01*
X8259074Y-7330424D01*
X8253740Y-7335504D01*
X8238246Y-7340584D01*
X8191510Y-7340584D01*
X8227832Y-7340584D02*
G01*
X8264154Y-7397734D01*
X8308858Y-7288768D02*
G01*
X8366008Y-7288768D01*
X8334766Y-7330424D01*
X8350514Y-7330424D01*
X8360928Y-7335504D01*
X8366008Y-7340584D01*
X8371342Y-7356332D01*
X8371342Y-7366746D01*
X8366008Y-7382240D01*
X8355594Y-7392654D01*
X8340100Y-7397734D01*
X8324606Y-7397734D01*
X8308858Y-7392654D01*
X8303778Y-7387574D01*
X8298444Y-7377160D01*
X8473196Y-7325090D02*
G01*
X8467862Y-7340584D01*
X8457448Y-7350998D01*
X8441954Y-7356332D01*
X8436620Y-7356332D01*
X8421126Y-7350998D01*
X8410712Y-7340584D01*
X8405632Y-7325090D01*
X8405632Y-7320010D01*
X8410712Y-7304262D01*
X8421126Y-7293848D01*
X8436620Y-7288768D01*
X8441954Y-7288768D01*
X8457448Y-7293848D01*
X8467862Y-7304262D01*
X8473196Y-7325090D01*
X8473196Y-7350998D01*
X8467862Y-7377160D01*
X8457448Y-7392654D01*
X8441954Y-7397734D01*
X8431540Y-7397734D01*
X8416046Y-7392654D01*
X8410712Y-7382240D01*
X9220207Y-7288768D02*
G01*
X9220207Y-7397734D01*
X9220207Y-7288768D02*
G01*
X9266943Y-7288768D01*
X9282437Y-7293848D01*
X9287771Y-7299182D01*
X9292851Y-7309596D01*
X9292851Y-7320010D01*
X9287771Y-7330424D01*
X9282437Y-7335504D01*
X9266943Y-7340584D01*
X9220207Y-7340584D01*
X9256529Y-7340584D02*
G01*
X9292851Y-7397734D01*
X9379211Y-7288768D02*
G01*
X9327141Y-7361412D01*
X9405119Y-7361412D01*
X9379211Y-7288768D02*
G01*
X9379211Y-7397734D01*
X9470651Y-7288768D02*
G01*
X9454903Y-7293848D01*
X9444743Y-7309596D01*
X9439409Y-7335504D01*
X9439409Y-7350998D01*
X9444743Y-7377160D01*
X9454903Y-7392654D01*
X9470651Y-7397734D01*
X9481065Y-7397734D01*
X9496559Y-7392654D01*
X9506973Y-7377160D01*
X9512053Y-7350998D01*
X9512053Y-7335504D01*
X9506973Y-7309596D01*
X9496559Y-7293848D01*
X9481065Y-7288768D01*
X9470651Y-7288768D01*
X10248905Y-7199868D02*
G01*
X10248905Y-7308834D01*
X10248905Y-7199868D02*
G01*
X10295641Y-7199868D01*
X10311135Y-7204948D01*
X10316469Y-7210282D01*
X10321549Y-7220696D01*
X10321549Y-7231110D01*
X10316469Y-7241524D01*
X10311135Y-7246604D01*
X10295641Y-7251684D01*
X10248905Y-7251684D01*
X10285227Y-7251684D02*
G01*
X10321549Y-7308834D01*
X10407909Y-7199868D02*
G01*
X10355839Y-7272512D01*
X10433817Y-7272512D01*
X10407909Y-7199868D02*
G01*
X10407909Y-7308834D01*
X10468107Y-7220696D02*
G01*
X10478521Y-7215362D01*
X10494015Y-7199868D01*
X10494015Y-7308834D01*
X1346197Y-10463789D02*
G01*
X1346197Y-10572755D01*
X1346197Y-10463789D02*
G01*
X1392933Y-10463789D01*
X1408427Y-10468869D01*
X1413761Y-10474203D01*
X1418841Y-10484617D01*
X1418841Y-10495031D01*
X1413761Y-10505191D01*
X1408427Y-10510525D01*
X1392933Y-10515605D01*
X1346197Y-10515605D01*
X1382519Y-10515605D02*
G01*
X1418841Y-10572755D01*
X1505201Y-10463789D02*
G01*
X1453131Y-10536433D01*
X1531109Y-10536433D01*
X1505201Y-10463789D02*
G01*
X1505201Y-10572755D01*
X1570733Y-10489697D02*
G01*
X1570733Y-10484617D01*
X1575813Y-10474203D01*
X1581147Y-10468869D01*
X1591307Y-10463789D01*
X1612135Y-10463789D01*
X1622549Y-10468869D01*
X1627883Y-10474203D01*
X1632963Y-10484617D01*
X1632963Y-10495031D01*
X1627883Y-10505191D01*
X1617469Y-10520939D01*
X1565399Y-10572755D01*
X1638297Y-10572755D01*
X11226802Y-7199868D02*
G01*
X11226802Y-7308834D01*
X11226802Y-7199868D02*
G01*
X11273538Y-7199868D01*
X11289032Y-7204948D01*
X11294366Y-7210282D01*
X11299446Y-7220696D01*
X11299446Y-7231110D01*
X11294366Y-7241524D01*
X11289032Y-7246604D01*
X11273538Y-7251684D01*
X11226802Y-7251684D01*
X11263124Y-7251684D02*
G01*
X11299446Y-7308834D01*
X11385806Y-7199868D02*
G01*
X11333736Y-7272512D01*
X11411714Y-7272512D01*
X11385806Y-7199868D02*
G01*
X11385806Y-7308834D01*
X11456418Y-7199868D02*
G01*
X11513568Y-7199868D01*
X11482326Y-7241524D01*
X11498074Y-7241524D01*
X11508488Y-7246604D01*
X11513568Y-7251684D01*
X11518648Y-7267432D01*
X11518648Y-7277846D01*
X11513568Y-7293340D01*
X11503154Y-7303754D01*
X11487660Y-7308834D01*
X11471912Y-7308834D01*
X11456418Y-7303754D01*
X11451338Y-7298674D01*
X11446004Y-7288260D01*
X3695692Y-1014981D02*
G01*
X3737348Y-1123947D01*
X3778750Y-1014981D02*
G01*
X3737348Y-1123947D01*
X3813040Y-1014981D02*
G01*
X3813040Y-1123947D01*
X3813040Y-1014981D02*
G01*
X3849362Y-1014981D01*
X3865110Y-1020061D01*
X3875524Y-1030475D01*
X3880604Y-1040889D01*
X3885938Y-1056637D01*
X3885938Y-1082545D01*
X3880604Y-1098039D01*
X3875524Y-1108453D01*
X3865110Y-1118867D01*
X3849362Y-1123947D01*
X3813040Y-1123947D01*
X3920228Y-1035809D02*
G01*
X3930642Y-1030475D01*
X3946136Y-1014981D01*
X3946136Y-1123947D01*
X10134630Y-507060D02*
G01*
X10176032Y-616026D01*
X10217688Y-507060D02*
G01*
X10176032Y-616026D01*
X10251978Y-507060D02*
G01*
X10251978Y-616026D01*
X10251978Y-507060D02*
G01*
X10288300Y-507060D01*
X10304048Y-512140D01*
X10314462Y-522554D01*
X10319542Y-532968D01*
X10324622Y-548462D01*
X10324622Y-574624D01*
X10319542Y-590118D01*
X10314462Y-600532D01*
X10304048Y-610946D01*
X10288300Y-616026D01*
X10251978Y-616026D01*
X10364246Y-532968D02*
G01*
X10364246Y-527634D01*
X10369326Y-517474D01*
X10374660Y-512140D01*
X10385074Y-507060D01*
X10405902Y-507060D01*
X10416062Y-512140D01*
X10421396Y-517474D01*
X10426476Y-527634D01*
X10426476Y-538048D01*
X10421396Y-548462D01*
X10410982Y-564210D01*
X10358912Y-616026D01*
X10431810Y-616026D01*
X15087539Y-5307609D02*
G01*
X15129195Y-5416575D01*
X15170597Y-5307609D02*
G01*
X15129195Y-5416575D01*
X15204887Y-5307609D02*
G01*
X15204887Y-5416575D01*
X15204887Y-5307609D02*
G01*
X15241463Y-5307609D01*
X15256957Y-5312689D01*
X15267371Y-5323103D01*
X15272451Y-5333517D01*
X15277785Y-5349011D01*
X15277785Y-5375173D01*
X15272451Y-5390667D01*
X15267371Y-5401081D01*
X15256957Y-5411495D01*
X15241463Y-5416575D01*
X15204887Y-5416575D01*
X15322489Y-5307609D02*
G01*
X15379639Y-5307609D01*
X15348397Y-5349011D01*
X15363891Y-5349011D01*
X15374305Y-5354345D01*
X15379639Y-5359425D01*
X15384719Y-5375173D01*
X15384719Y-5385587D01*
X15379639Y-5401081D01*
X15369225Y-5411495D01*
X15353477Y-5416575D01*
X15337983Y-5416575D01*
X15322489Y-5411495D01*
X15317155Y-5406161D01*
X15312075Y-5395747D01*
X17132335Y-4291426D02*
G01*
X17173737Y-4400646D01*
X17215393Y-4291426D02*
G01*
X17173737Y-4400646D01*
X17249683Y-4291426D02*
G01*
X17249683Y-4400646D01*
X17249683Y-4291426D02*
G01*
X17286005Y-4291426D01*
X17301753Y-4296760D01*
X17311913Y-4307174D01*
X17317247Y-4317588D01*
X17322327Y-4333082D01*
X17322327Y-4358990D01*
X17317247Y-4374738D01*
X17311913Y-4385152D01*
X17301753Y-4395566D01*
X17286005Y-4400646D01*
X17249683Y-4400646D01*
X17408687Y-4291426D02*
G01*
X17356617Y-4364324D01*
X17434595Y-4364324D01*
X17408687Y-4291426D02*
G01*
X17408687Y-4400646D01*
X2262372Y-850389D02*
G01*
X2257038Y-839975D01*
X2246624Y-829561D01*
X2236464Y-824481D01*
X2215636Y-824481D01*
X2205222Y-829561D01*
X2194808Y-839975D01*
X2189474Y-850389D01*
X2184394Y-866137D01*
X2184394Y-892045D01*
X2189474Y-907539D01*
X2194808Y-917953D01*
X2205222Y-928367D01*
X2215636Y-933447D01*
X2236464Y-933447D01*
X2246624Y-928367D01*
X2257038Y-917953D01*
X2262372Y-907539D01*
X2364226Y-860803D02*
G01*
X2358892Y-876297D01*
X2348478Y-886711D01*
X2332984Y-892045D01*
X2327904Y-892045D01*
X2312156Y-886711D01*
X2301742Y-876297D01*
X2296662Y-860803D01*
X2296662Y-855723D01*
X2301742Y-839975D01*
X2312156Y-829561D01*
X2327904Y-824481D01*
X2332984Y-824481D01*
X2348478Y-829561D01*
X2358892Y-839975D01*
X2364226Y-860803D01*
X2364226Y-886711D01*
X2358892Y-912873D01*
X2348478Y-928367D01*
X2332984Y-933447D01*
X2322570Y-933447D01*
X2307076Y-928367D01*
X2301742Y-917953D01*
X1474975Y-1104389D02*
G01*
X1469641Y-1093975D01*
X1459227Y-1083561D01*
X1449067Y-1078481D01*
X1428239Y-1078481D01*
X1417825Y-1083561D01*
X1407411Y-1093975D01*
X1402077Y-1104389D01*
X1396997Y-1120137D01*
X1396997Y-1146045D01*
X1402077Y-1161539D01*
X1407411Y-1171953D01*
X1417825Y-1182367D01*
X1428239Y-1187447D01*
X1449067Y-1187447D01*
X1459227Y-1182367D01*
X1469641Y-1171953D01*
X1474975Y-1161539D01*
X1509265Y-1099309D02*
G01*
X1519679Y-1093975D01*
X1535173Y-1078481D01*
X1535173Y-1187447D01*
X1600705Y-1078481D02*
G01*
X1584957Y-1083561D01*
X1574797Y-1099309D01*
X1569463Y-1125217D01*
X1569463Y-1140711D01*
X1574797Y-1166873D01*
X1584957Y-1182367D01*
X1600705Y-1187447D01*
X1611119Y-1187447D01*
X1626613Y-1182367D01*
X1637027Y-1166873D01*
X1642107Y-1140711D01*
X1642107Y-1125217D01*
X1637027Y-1099309D01*
X1626613Y-1083561D01*
X1611119Y-1078481D01*
X1600705Y-1078481D01*
X17476993Y-9587971D02*
G01*
X17471659Y-9577557D01*
X17461245Y-9567143D01*
X17450831Y-9562063D01*
X17430257Y-9562063D01*
X17419843Y-9567143D01*
X17409429Y-9577557D01*
X17404095Y-9587971D01*
X17399015Y-9603719D01*
X17399015Y-9629627D01*
X17404095Y-9645121D01*
X17409429Y-9655535D01*
X17419843Y-9665949D01*
X17430257Y-9671029D01*
X17450831Y-9671029D01*
X17461245Y-9665949D01*
X17471659Y-9655535D01*
X17476993Y-9645121D01*
X17511283Y-9582891D02*
G01*
X17521697Y-9577557D01*
X17537191Y-9562063D01*
X17537191Y-9671029D01*
X17571481Y-9582891D02*
G01*
X17581895Y-9577557D01*
X17597389Y-9562063D01*
X17597389Y-9671029D01*
X3379970Y-10070571D02*
G01*
X3374636Y-10060157D01*
X3364222Y-10049743D01*
X3354062Y-10044663D01*
X3333234Y-10044663D01*
X3322820Y-10049743D01*
X3312406Y-10060157D01*
X3307072Y-10070571D01*
X3301992Y-10086319D01*
X3301992Y-10112227D01*
X3307072Y-10127721D01*
X3312406Y-10138135D01*
X3322820Y-10148549D01*
X3333234Y-10153629D01*
X3354062Y-10153629D01*
X3364222Y-10148549D01*
X3374636Y-10138135D01*
X3379970Y-10127721D01*
X3414260Y-10065491D02*
G01*
X3424674Y-10060157D01*
X3440168Y-10044663D01*
X3440168Y-10153629D01*
X3536942Y-10060157D02*
G01*
X3531608Y-10049743D01*
X3516114Y-10044663D01*
X3505700Y-10044663D01*
X3489952Y-10049743D01*
X3479792Y-10065491D01*
X3474458Y-10091399D01*
X3474458Y-10117307D01*
X3479792Y-10138135D01*
X3489952Y-10148549D01*
X3505700Y-10153629D01*
X3510780Y-10153629D01*
X3526528Y-10148549D01*
X3536942Y-10138135D01*
X3542022Y-10122641D01*
X3542022Y-10117307D01*
X3536942Y-10101813D01*
X3526528Y-10091399D01*
X3510780Y-10086319D01*
X3505700Y-10086319D01*
X3489952Y-10091399D01*
X3479792Y-10101813D01*
X3474458Y-10117307D01*
X12193777Y-8610099D02*
G01*
X12188443Y-8599685D01*
X12178029Y-8589271D01*
X12167615Y-8584191D01*
X12147041Y-8584191D01*
X12136627Y-8589271D01*
X12126213Y-8599685D01*
X12120879Y-8610099D01*
X12115800Y-8625593D01*
X12115800Y-8651755D01*
X12120879Y-8667249D01*
X12126213Y-8677663D01*
X12136627Y-8688077D01*
X12147041Y-8693157D01*
X12167615Y-8693157D01*
X12178029Y-8688077D01*
X12188443Y-8677663D01*
X12193777Y-8667249D01*
X12228068Y-8605019D02*
G01*
X12238481Y-8599685D01*
X12253975Y-8584191D01*
X12253975Y-8693157D01*
X12360909Y-8584191D02*
G01*
X12309093Y-8693157D01*
X12288265Y-8584191D02*
G01*
X12360909Y-8584191D01*
X6616738Y-1091257D02*
G01*
X6616738Y-1200223D01*
X6616738Y-1091257D02*
G01*
X6663474Y-1091257D01*
X6678968Y-1096337D01*
X6684302Y-1101671D01*
X6689382Y-1111831D01*
X6689382Y-1122245D01*
X6684302Y-1132659D01*
X6678968Y-1137993D01*
X6663474Y-1143073D01*
X6616738Y-1143073D01*
X6653060Y-1143073D02*
G01*
X6689382Y-1200223D01*
X6723672Y-1111831D02*
G01*
X6734086Y-1106751D01*
X6749580Y-1091257D01*
X6749580Y-1200223D01*
X6248387Y-799081D02*
G01*
X6248387Y-908047D01*
X6248387Y-799081D02*
G01*
X6295123Y-799081D01*
X6310617Y-804161D01*
X6315951Y-809495D01*
X6321031Y-819909D01*
X6321031Y-830323D01*
X6315951Y-840737D01*
X6310617Y-845817D01*
X6295123Y-850897D01*
X6248387Y-850897D01*
X6284709Y-850897D02*
G01*
X6321031Y-908047D01*
X6360655Y-824989D02*
G01*
X6360655Y-819909D01*
X6365735Y-809495D01*
X6371069Y-804161D01*
X6381483Y-799081D01*
X6402057Y-799081D01*
X6412471Y-804161D01*
X6417805Y-809495D01*
X6422885Y-819909D01*
X6422885Y-830323D01*
X6417805Y-840737D01*
X6407391Y-856231D01*
X6355321Y-908047D01*
X6428219Y-908047D01*
X6870738Y-1091257D02*
G01*
X6870738Y-1200223D01*
X6870738Y-1091257D02*
G01*
X6917474Y-1091257D01*
X6932968Y-1096337D01*
X6938302Y-1101671D01*
X6943382Y-1111831D01*
X6943382Y-1122245D01*
X6938302Y-1132659D01*
X6932968Y-1137993D01*
X6917474Y-1143073D01*
X6870738Y-1143073D01*
X6907060Y-1143073D02*
G01*
X6943382Y-1200223D01*
X6988086Y-1091257D02*
G01*
X7045236Y-1091257D01*
X7013994Y-1132659D01*
X7029742Y-1132659D01*
X7040156Y-1137993D01*
X7045236Y-1143073D01*
X7050570Y-1158821D01*
X7050570Y-1168981D01*
X7045236Y-1184729D01*
X7034822Y-1195143D01*
X7019328Y-1200223D01*
X7003580Y-1200223D01*
X6988086Y-1195143D01*
X6983006Y-1189809D01*
X6977672Y-1179395D01*
X7124735Y-1091257D02*
G01*
X7124735Y-1200223D01*
X7124735Y-1091257D02*
G01*
X7171471Y-1091257D01*
X7186965Y-1096337D01*
X7192299Y-1101671D01*
X7197379Y-1111831D01*
X7197379Y-1122245D01*
X7192299Y-1132659D01*
X7186965Y-1137993D01*
X7171471Y-1143073D01*
X7124735Y-1143073D01*
X7161057Y-1143073D02*
G01*
X7197379Y-1200223D01*
X7283739Y-1091257D02*
G01*
X7231669Y-1163901D01*
X7309647Y-1163901D01*
X7283739Y-1091257D02*
G01*
X7283739Y-1200223D01*
X16255997Y-1662691D02*
G01*
X16255997Y-1771657D01*
X16255997Y-1662691D02*
G01*
X16302733Y-1662691D01*
X16318227Y-1667771D01*
X16323561Y-1673105D01*
X16328641Y-1683519D01*
X16328641Y-1693933D01*
X16323561Y-1704347D01*
X16318227Y-1709427D01*
X16302733Y-1714507D01*
X16255997Y-1714507D01*
X16292319Y-1714507D02*
G01*
X16328641Y-1771657D01*
X16425415Y-1662691D02*
G01*
X16373345Y-1662691D01*
X16368265Y-1709427D01*
X16373345Y-1704347D01*
X16389093Y-1699013D01*
X16404587Y-1699013D01*
X16420081Y-1704347D01*
X16430495Y-1714507D01*
X16435829Y-1730255D01*
X16435829Y-1740669D01*
X16430495Y-1756163D01*
X16420081Y-1766577D01*
X16404587Y-1771657D01*
X16389093Y-1771657D01*
X16373345Y-1766577D01*
X16368265Y-1761497D01*
X16362931Y-1751083D01*
X17589502Y-2450084D02*
G01*
X17589502Y-2559050D01*
X17589502Y-2450084D02*
G01*
X17636238Y-2450084D01*
X17651732Y-2455163D01*
X17657066Y-2460497D01*
X17662146Y-2470912D01*
X17662146Y-2481326D01*
X17657066Y-2491739D01*
X17651732Y-2496820D01*
X17636238Y-2501900D01*
X17589502Y-2501900D01*
X17625824Y-2501900D02*
G01*
X17662146Y-2559050D01*
X17758920Y-2465578D02*
G01*
X17753586Y-2455163D01*
X17738092Y-2450084D01*
X17727678Y-2450084D01*
X17712184Y-2455163D01*
X17701770Y-2470912D01*
X17696436Y-2496820D01*
X17696436Y-2522728D01*
X17701770Y-2543555D01*
X17712184Y-2553970D01*
X17727678Y-2559050D01*
X17732758Y-2559050D01*
X17748506Y-2553970D01*
X17758920Y-2543555D01*
X17764000Y-2528062D01*
X17764000Y-2522728D01*
X17758920Y-2507234D01*
X17748506Y-2496820D01*
X17732758Y-2491739D01*
X17727678Y-2491739D01*
X17712184Y-2496820D01*
X17701770Y-2507234D01*
X17696436Y-2522728D01*
X15684500Y-557776D02*
G01*
X15684500Y-666742D01*
X15684500Y-557776D02*
G01*
X15731236Y-557776D01*
X15746729Y-562856D01*
X15752063Y-568190D01*
X15757143Y-578604D01*
X15757143Y-589018D01*
X15752063Y-599432D01*
X15746729Y-604512D01*
X15731236Y-609592D01*
X15684500Y-609592D01*
X15720822Y-609592D02*
G01*
X15757143Y-666742D01*
X15864331Y-557776D02*
G01*
X15812261Y-666742D01*
X15791434Y-557776D02*
G01*
X15864331Y-557776D01*
X14884400Y-379981D02*
G01*
X14884400Y-488947D01*
X14884400Y-379981D02*
G01*
X14931136Y-379981D01*
X14946629Y-385061D01*
X14951963Y-390395D01*
X14957043Y-400809D01*
X14957043Y-411223D01*
X14951963Y-421637D01*
X14946629Y-426717D01*
X14931136Y-431797D01*
X14884400Y-431797D01*
X14920722Y-431797D02*
G01*
X14957043Y-488947D01*
X15017495Y-379981D02*
G01*
X15001747Y-385061D01*
X14996668Y-395475D01*
X14996668Y-405889D01*
X15001747Y-416303D01*
X15012161Y-421637D01*
X15032990Y-426717D01*
X15048484Y-431797D01*
X15058897Y-442211D01*
X15064231Y-452625D01*
X15064231Y-468373D01*
X15058897Y-478787D01*
X15053818Y-483867D01*
X15038070Y-488947D01*
X15017495Y-488947D01*
X15001747Y-483867D01*
X14996668Y-478787D01*
X14991334Y-468373D01*
X14991334Y-452625D01*
X14996668Y-442211D01*
X15007081Y-431797D01*
X15022575Y-426717D01*
X15043404Y-421637D01*
X15053818Y-416303D01*
X15058897Y-405889D01*
X15058897Y-395475D01*
X15053818Y-385061D01*
X15038070Y-379981D01*
X15017495Y-379981D01*
X17310089Y-8558791D02*
G01*
X17310089Y-8667757D01*
X17310089Y-8558791D02*
G01*
X17356825Y-8558791D01*
X17372319Y-8563871D01*
X17377653Y-8569205D01*
X17382733Y-8579619D01*
X17382733Y-8590033D01*
X17377653Y-8600193D01*
X17372319Y-8605527D01*
X17356825Y-8610607D01*
X17310089Y-8610607D01*
X17346411Y-8610607D02*
G01*
X17382733Y-8667757D01*
X17484587Y-8595113D02*
G01*
X17479507Y-8610607D01*
X17469093Y-8621021D01*
X17453345Y-8626355D01*
X17448265Y-8626355D01*
X17432771Y-8621021D01*
X17422357Y-8610607D01*
X17417023Y-8595113D01*
X17417023Y-8590033D01*
X17422357Y-8574285D01*
X17432771Y-8563871D01*
X17448265Y-8558791D01*
X17453345Y-8558791D01*
X17469093Y-8563871D01*
X17479507Y-8574285D01*
X17484587Y-8595113D01*
X17484587Y-8621021D01*
X17479507Y-8647183D01*
X17469093Y-8662677D01*
X17453345Y-8667757D01*
X17443185Y-8667757D01*
X17427437Y-8662677D01*
X17422357Y-8652263D01*
X16510000Y-9130284D02*
G01*
X16510000Y-9239250D01*
X16510000Y-9130284D02*
G01*
X16556736Y-9130284D01*
X16572229Y-9135363D01*
X16577563Y-9140697D01*
X16582643Y-9151112D01*
X16582643Y-9161526D01*
X16577563Y-9171686D01*
X16572229Y-9177020D01*
X16556736Y-9182100D01*
X16510000Y-9182100D01*
X16546322Y-9182100D02*
G01*
X16582643Y-9239250D01*
X16616934Y-9151112D02*
G01*
X16627347Y-9145778D01*
X16643095Y-9130284D01*
X16643095Y-9239250D01*
X16708374Y-9130284D02*
G01*
X16692879Y-9135363D01*
X16682466Y-9151112D01*
X16677386Y-9177020D01*
X16677386Y-9192513D01*
X16682466Y-9218676D01*
X16692879Y-9234170D01*
X16708374Y-9239250D01*
X16718788Y-9239250D01*
X16734536Y-9234170D01*
X16744695Y-9218676D01*
X16750029Y-9192513D01*
X16750029Y-9177020D01*
X16744695Y-9151112D01*
X16734536Y-9135363D01*
X16718788Y-9130284D01*
X16708374Y-9130284D01*
X14363702Y-3491499D02*
G01*
X14363702Y-3600465D01*
X14363702Y-3491499D02*
G01*
X14410438Y-3491499D01*
X14425932Y-3496579D01*
X14431266Y-3501913D01*
X14436346Y-3512327D01*
X14436346Y-3522741D01*
X14431266Y-3532901D01*
X14425932Y-3538235D01*
X14410438Y-3543315D01*
X14363702Y-3543315D01*
X14400024Y-3543315D02*
G01*
X14436346Y-3600465D01*
X14470636Y-3512327D02*
G01*
X14481050Y-3506993D01*
X14496798Y-3491499D01*
X14496798Y-3600465D01*
X14531088Y-3512327D02*
G01*
X14541248Y-3506993D01*
X14556996Y-3491499D01*
X14556996Y-3600465D01*
X15176500Y-3135899D02*
G01*
X15176500Y-3244865D01*
X15176500Y-3135899D02*
G01*
X15223236Y-3135899D01*
X15238729Y-3140979D01*
X15244063Y-3146313D01*
X15249143Y-3156727D01*
X15249143Y-3167141D01*
X15244063Y-3177301D01*
X15238729Y-3182635D01*
X15223236Y-3187715D01*
X15176500Y-3187715D01*
X15212822Y-3187715D02*
G01*
X15249143Y-3244865D01*
X15283434Y-3156727D02*
G01*
X15293847Y-3151393D01*
X15309595Y-3135899D01*
X15309595Y-3244865D01*
X15348966Y-3161807D02*
G01*
X15348966Y-3156727D01*
X15354045Y-3146313D01*
X15359379Y-3140979D01*
X15369793Y-3135899D01*
X15390622Y-3135899D01*
X15401036Y-3140979D01*
X15406116Y-3146313D01*
X15411195Y-3156727D01*
X15411195Y-3167141D01*
X15406116Y-3177301D01*
X15395702Y-3193049D01*
X15343886Y-3244865D01*
X15416529Y-3244865D01*
X14871700Y-3135899D02*
G01*
X14871700Y-3244865D01*
X14871700Y-3135899D02*
G01*
X14918436Y-3135899D01*
X14933929Y-3140979D01*
X14939263Y-3146313D01*
X14944343Y-3156727D01*
X14944343Y-3167141D01*
X14939263Y-3177301D01*
X14933929Y-3182635D01*
X14918436Y-3187715D01*
X14871700Y-3187715D01*
X14908022Y-3187715D02*
G01*
X14944343Y-3244865D01*
X14978634Y-3156727D02*
G01*
X14989047Y-3151393D01*
X15004795Y-3135899D01*
X15004795Y-3244865D01*
X15049245Y-3135899D02*
G01*
X15106395Y-3135899D01*
X15075408Y-3177301D01*
X15090902Y-3177301D01*
X15101316Y-3182635D01*
X15106395Y-3187715D01*
X15111729Y-3203463D01*
X15111729Y-3213877D01*
X15106395Y-3229371D01*
X15096236Y-3239785D01*
X15080488Y-3244865D01*
X15064993Y-3244865D01*
X15049245Y-3239785D01*
X15044166Y-3234451D01*
X15039086Y-3224291D01*
X14579602Y-4012199D02*
G01*
X14579602Y-4121165D01*
X14579602Y-4012199D02*
G01*
X14626338Y-4012199D01*
X14641832Y-4017279D01*
X14647166Y-4022613D01*
X14652246Y-4033027D01*
X14652246Y-4043441D01*
X14647166Y-4053601D01*
X14641832Y-4058935D01*
X14626338Y-4064015D01*
X14579602Y-4064015D01*
X14615924Y-4064015D02*
G01*
X14652246Y-4121165D01*
X14686536Y-4033027D02*
G01*
X14696950Y-4027693D01*
X14712698Y-4012199D01*
X14712698Y-4121165D01*
X14798804Y-4012199D02*
G01*
X14746988Y-4084843D01*
X14824712Y-4084843D01*
X14798804Y-4012199D02*
G01*
X14798804Y-4121165D01*
X1206487Y-8076178D02*
G01*
X1206487Y-8185144D01*
X1206487Y-8076178D02*
G01*
X1253223Y-8076178D01*
X1268717Y-8081258D01*
X1274051Y-8086592D01*
X1279131Y-8097006D01*
X1279131Y-8107420D01*
X1274051Y-8117834D01*
X1268717Y-8122914D01*
X1253223Y-8127994D01*
X1206487Y-8127994D01*
X1242809Y-8127994D02*
G01*
X1279131Y-8185144D01*
X1313421Y-8097006D02*
G01*
X1323835Y-8091672D01*
X1339583Y-8076178D01*
X1339583Y-8185144D01*
X1436103Y-8076178D02*
G01*
X1384287Y-8076178D01*
X1378953Y-8122914D01*
X1384287Y-8117834D01*
X1399781Y-8112500D01*
X1415275Y-8112500D01*
X1431023Y-8117834D01*
X1441437Y-8127994D01*
X1446517Y-8143742D01*
X1446517Y-8154156D01*
X1441437Y-8169650D01*
X1431023Y-8180064D01*
X1415275Y-8185144D01*
X1399781Y-8185144D01*
X1384287Y-8180064D01*
X1378953Y-8174984D01*
X1373873Y-8164570D01*
X1193805Y-8850876D02*
G01*
X1193805Y-8959842D01*
X1193805Y-8850876D02*
G01*
X1240541Y-8850876D01*
X1256035Y-8855956D01*
X1261369Y-8861290D01*
X1266449Y-8871704D01*
X1266449Y-8882118D01*
X1261369Y-8892532D01*
X1256035Y-8897612D01*
X1240541Y-8902692D01*
X1193805Y-8902692D01*
X1230127Y-8902692D02*
G01*
X1266449Y-8959842D01*
X1300739Y-8871704D02*
G01*
X1311153Y-8866370D01*
X1326901Y-8850876D01*
X1326901Y-8959842D01*
X1423421Y-8866370D02*
G01*
X1418341Y-8855956D01*
X1402593Y-8850876D01*
X1392179Y-8850876D01*
X1376685Y-8855956D01*
X1366271Y-8871704D01*
X1361191Y-8897612D01*
X1361191Y-8923520D01*
X1366271Y-8944348D01*
X1376685Y-8954762D01*
X1392179Y-8959842D01*
X1397513Y-8959842D01*
X1413007Y-8954762D01*
X1423421Y-8944348D01*
X1428755Y-8928854D01*
X1428755Y-8923520D01*
X1423421Y-8908026D01*
X1413007Y-8897612D01*
X1397513Y-8892532D01*
X1392179Y-8892532D01*
X1376685Y-8897612D01*
X1366271Y-8908026D01*
X1361191Y-8923520D01*
X17449792Y-5574276D02*
G01*
X17449792Y-5683242D01*
X17449792Y-5574276D02*
G01*
X17496528Y-5574276D01*
X17512022Y-5579356D01*
X17517356Y-5584690D01*
X17522436Y-5595104D01*
X17522436Y-5605518D01*
X17517356Y-5615932D01*
X17512022Y-5621012D01*
X17496528Y-5626092D01*
X17449792Y-5626092D01*
X17486114Y-5626092D02*
G01*
X17522436Y-5683242D01*
X17556726Y-5595104D02*
G01*
X17567140Y-5589770D01*
X17582888Y-5574276D01*
X17582888Y-5683242D01*
X17689822Y-5574276D02*
G01*
X17637752Y-5683242D01*
X17617178Y-5574276D02*
G01*
X17689822Y-5574276D01*
X16979894Y-6056873D02*
G01*
X16979894Y-6165839D01*
X16979894Y-6056873D02*
G01*
X17026630Y-6056873D01*
X17042124Y-6061953D01*
X17047458Y-6067287D01*
X17052538Y-6077701D01*
X17052538Y-6088115D01*
X17047458Y-6098529D01*
X17042124Y-6103609D01*
X17026630Y-6108689D01*
X16979894Y-6108689D01*
X17016216Y-6108689D02*
G01*
X17052538Y-6165839D01*
X17086828Y-6077701D02*
G01*
X17097242Y-6072367D01*
X17112990Y-6056873D01*
X17112990Y-6165839D01*
X17173188Y-6056873D02*
G01*
X17157440Y-6061953D01*
X17152360Y-6072367D01*
X17152360Y-6082781D01*
X17157440Y-6093195D01*
X17167854Y-6098529D01*
X17188682Y-6103609D01*
X17204430Y-6108689D01*
X17214590Y-6119103D01*
X17219924Y-6129517D01*
X17219924Y-6145265D01*
X17214590Y-6155679D01*
X17209510Y-6160759D01*
X17194016Y-6165839D01*
X17173188Y-6165839D01*
X17157440Y-6160759D01*
X17152360Y-6155679D01*
X17147280Y-6145265D01*
X17147280Y-6129517D01*
X17152360Y-6119103D01*
X17162774Y-6108689D01*
X17178268Y-6103609D01*
X17199096Y-6098529D01*
X17209510Y-6093195D01*
X17214590Y-6082781D01*
X17214590Y-6072367D01*
X17209510Y-6061953D01*
X17194016Y-6056873D01*
X17173188Y-6056873D01*
X17411692Y-6488673D02*
G01*
X17411692Y-6597639D01*
X17411692Y-6488673D02*
G01*
X17458428Y-6488673D01*
X17473922Y-6493753D01*
X17479256Y-6499087D01*
X17484336Y-6509501D01*
X17484336Y-6519915D01*
X17479256Y-6530329D01*
X17473922Y-6535409D01*
X17458428Y-6540489D01*
X17411692Y-6540489D01*
X17448014Y-6540489D02*
G01*
X17484336Y-6597639D01*
X17518626Y-6509501D02*
G01*
X17529040Y-6504167D01*
X17544788Y-6488673D01*
X17544788Y-6597639D01*
X17646388Y-6524995D02*
G01*
X17641308Y-6540489D01*
X17630894Y-6550903D01*
X17615400Y-6556237D01*
X17610066Y-6556237D01*
X17594572Y-6550903D01*
X17584158Y-6540489D01*
X17579078Y-6524995D01*
X17579078Y-6519915D01*
X17584158Y-6504167D01*
X17594572Y-6493753D01*
X17610066Y-6488673D01*
X17615400Y-6488673D01*
X17630894Y-6493753D01*
X17641308Y-6504167D01*
X17646388Y-6524995D01*
X17646388Y-6550903D01*
X17641308Y-6577065D01*
X17630894Y-6592559D01*
X17615400Y-6597639D01*
X17604986Y-6597639D01*
X17589238Y-6592559D01*
X17584158Y-6582145D01*
X16878292Y-6488673D02*
G01*
X16878292Y-6597639D01*
X16878292Y-6488673D02*
G01*
X16925028Y-6488673D01*
X16940522Y-6493753D01*
X16945856Y-6499087D01*
X16950936Y-6509501D01*
X16950936Y-6519915D01*
X16945856Y-6530329D01*
X16940522Y-6535409D01*
X16925028Y-6540489D01*
X16878292Y-6540489D01*
X16914614Y-6540489D02*
G01*
X16950936Y-6597639D01*
X16990560Y-6514581D02*
G01*
X16990560Y-6509501D01*
X16995640Y-6499087D01*
X17000974Y-6493753D01*
X17011388Y-6488673D01*
X17031962Y-6488673D01*
X17042376Y-6493753D01*
X17047710Y-6499087D01*
X17052790Y-6509501D01*
X17052790Y-6519915D01*
X17047710Y-6530329D01*
X17037296Y-6545823D01*
X16985226Y-6597639D01*
X17058124Y-6597639D01*
X17123402Y-6488673D02*
G01*
X17107908Y-6493753D01*
X17097494Y-6509501D01*
X17092414Y-6535409D01*
X17092414Y-6550903D01*
X17097494Y-6577065D01*
X17107908Y-6592559D01*
X17123402Y-6597639D01*
X17133816Y-6597639D01*
X17149564Y-6592559D01*
X17159978Y-6577065D01*
X17165058Y-6550903D01*
X17165058Y-6535409D01*
X17159978Y-6509501D01*
X17149564Y-6493753D01*
X17133816Y-6488673D01*
X17123402Y-6488673D01*
X2667116Y-11187635D02*
G01*
X2667116Y-11296855D01*
X2667116Y-11187635D02*
G01*
X2713852Y-11187635D01*
X2729346Y-11192715D01*
X2734426Y-11198049D01*
X2739760Y-11208463D01*
X2739760Y-11218877D01*
X2734426Y-11229291D01*
X2729346Y-11234371D01*
X2713852Y-11239705D01*
X2667116Y-11239705D01*
X2703438Y-11239705D02*
G01*
X2739760Y-11296855D01*
X2779130Y-11213543D02*
G01*
X2779130Y-11208463D01*
X2784464Y-11198049D01*
X2789544Y-11192715D01*
X2799958Y-11187635D01*
X2820786Y-11187635D01*
X2831200Y-11192715D01*
X2836280Y-11198049D01*
X2841614Y-11208463D01*
X2841614Y-11218877D01*
X2836280Y-11229291D01*
X2825866Y-11244785D01*
X2774050Y-11296855D01*
X2846694Y-11296855D01*
X2880984Y-11208463D02*
G01*
X2891398Y-11203129D01*
X2907146Y-11187635D01*
X2907146Y-11296855D01*
X4038587Y-11314684D02*
G01*
X4038587Y-11423650D01*
X4038587Y-11314684D02*
G01*
X4085323Y-11314684D01*
X4100817Y-11319763D01*
X4106151Y-11325097D01*
X4111231Y-11335512D01*
X4111231Y-11345926D01*
X4106151Y-11356086D01*
X4100817Y-11361420D01*
X4085323Y-11366500D01*
X4038587Y-11366500D01*
X4074909Y-11366500D02*
G01*
X4111231Y-11423650D01*
X4150855Y-11340592D02*
G01*
X4150855Y-11335512D01*
X4155935Y-11325097D01*
X4161269Y-11319763D01*
X4171683Y-11314684D01*
X4192257Y-11314684D01*
X4202671Y-11319763D01*
X4208005Y-11325097D01*
X4213085Y-11335512D01*
X4213085Y-11345926D01*
X4208005Y-11356086D01*
X4197591Y-11371834D01*
X4145521Y-11423650D01*
X4218419Y-11423650D01*
X4257789Y-11340592D02*
G01*
X4257789Y-11335512D01*
X4263123Y-11325097D01*
X4268203Y-11319763D01*
X4278617Y-11314684D01*
X4299445Y-11314684D01*
X4309859Y-11319763D01*
X4314939Y-11325097D01*
X4320273Y-11335512D01*
X4320273Y-11345926D01*
X4314939Y-11356086D01*
X4304525Y-11371834D01*
X4252709Y-11423650D01*
X4325353Y-11423650D01*
X9584926Y-13730475D02*
G01*
X9574512Y-13720061D01*
X9559018Y-13714981D01*
X9538190Y-13714981D01*
X9522696Y-13720061D01*
X9512282Y-13730475D01*
X9512282Y-13740889D01*
X9517362Y-13751303D01*
X9522696Y-13756383D01*
X9533110Y-13761717D01*
X9564352Y-13772131D01*
X9574512Y-13777211D01*
X9579846Y-13782545D01*
X9584926Y-13792959D01*
X9584926Y-13808453D01*
X9574512Y-13818867D01*
X9559018Y-13823947D01*
X9538190Y-13823947D01*
X9522696Y-13818867D01*
X9512282Y-13808453D01*
X9619216Y-13714981D02*
G01*
X9645378Y-13823947D01*
X9671286Y-13714981D02*
G01*
X9645378Y-13823947D01*
X9671286Y-13714981D02*
G01*
X9697194Y-13823947D01*
X9723102Y-13714981D02*
G01*
X9697194Y-13823947D01*
X9757392Y-13735809D02*
G01*
X9767806Y-13730475D01*
X9783554Y-13714981D01*
X9783554Y-13823947D01*
X16459197Y-2538989D02*
G01*
X16500853Y-2647955D01*
X16542255Y-2538989D02*
G01*
X16500853Y-2647955D01*
X16612867Y-2538989D02*
G01*
X16612867Y-2647955D01*
X16576545Y-2538989D02*
G01*
X16649443Y-2538989D01*
X16683733Y-2559817D02*
G01*
X16693893Y-2554483D01*
X16709641Y-2538989D01*
X16709641Y-2647955D01*
X5270492Y-11835386D02*
G01*
X5312148Y-11944352D01*
X5353550Y-11835386D02*
G01*
X5312148Y-11944352D01*
X5424162Y-11835386D02*
G01*
X5424162Y-11944352D01*
X5387840Y-11835386D02*
G01*
X5460738Y-11835386D01*
X5500108Y-11861294D02*
G01*
X5500108Y-11856214D01*
X5505442Y-11845800D01*
X5510522Y-11840466D01*
X5520936Y-11835386D01*
X5541764Y-11835386D01*
X5552178Y-11840466D01*
X5557258Y-11845800D01*
X5562592Y-11856214D01*
X5562592Y-11866628D01*
X5557258Y-11876788D01*
X5546844Y-11892536D01*
X5495028Y-11944352D01*
X5567672Y-11944352D01*
G36*
X4734560Y-107950D02*
G01*
X4711700Y-130810D01*
X4668520Y-130810D01*
X4620260Y-179070D01*
X4594860Y-179070D01*
X4538980Y-234950D01*
X4538980Y-247650D01*
X4516120Y-270510D01*
X4508500Y-293370D01*
X4757420Y-293370D01*
X4757420Y-107950D01*
G37*
G36*
X4894580Y-107950D02*
G01*
X4894580Y-293370D01*
X5143500Y-293370D01*
X5135880Y-270510D01*
X5113020Y-247650D01*
X5113020Y-234950D01*
X5057140Y-179070D01*
X5031740Y-179070D01*
X4983480Y-130810D01*
X4940300Y-130810D01*
X4917440Y-107950D01*
G37*
G36*
X14038580Y-976630D02*
G01*
X14038580Y-1162050D01*
X14061440Y-1162050D01*
X14084300Y-1139190D01*
X14127480Y-1139190D01*
X14175740Y-1090930D01*
X14201140Y-1090930D01*
X14257019Y-1035050D01*
X14257019Y-1022350D01*
X14279880Y-999490D01*
X14287500Y-976630D01*
G37*
G36*
X13652500Y-976630D02*
G01*
X13660119Y-999490D01*
X13682980Y-1022350D01*
X13682980Y-1035050D01*
X13738860Y-1090930D01*
X13764260Y-1090930D01*
X13812519Y-1139190D01*
X13855700Y-1139190D01*
X13878560Y-1162050D01*
X13901419Y-1162050D01*
X13901419Y-976630D01*
G37*
G36*
X16470630Y-7302500D02*
G01*
X16470630Y-7551420D01*
X16656050Y-7551420D01*
X16656050Y-7528559D01*
X16633190Y-7505700D01*
X16633190Y-7462520D01*
X16584930Y-7414259D01*
X16584930Y-7388859D01*
X16529050Y-7332980D01*
X16516350Y-7332980D01*
X16493490Y-7310120D01*
G37*
G36*
X16470630Y-7688580D02*
G01*
X16470630Y-7937500D01*
X16493490Y-7929880D01*
X16516350Y-7907020D01*
X16529050Y-7907020D01*
X16584930Y-7851140D01*
X16584930Y-7825740D01*
X16633190Y-7777480D01*
X16633190Y-7734300D01*
X16656050Y-7711440D01*
X16656050Y-7688580D01*
G37*
G36*
X14800580Y-2500630D02*
G01*
X14800580Y-2686050D01*
X14823440Y-2686050D01*
X14846300Y-2663190D01*
X14889480Y-2663190D01*
X14937740Y-2614930D01*
X14963140Y-2614930D01*
X15019019Y-2559050D01*
X15019019Y-2546350D01*
X15041880Y-2523490D01*
X15049500Y-2500630D01*
G37*
G36*
X14414500Y-2500630D02*
G01*
X14422119Y-2523490D01*
X14444980Y-2546350D01*
X14444980Y-2559050D01*
X14500860Y-2614930D01*
X14526260Y-2614930D01*
X14574519Y-2663190D01*
X14617700Y-2663190D01*
X14640560Y-2686050D01*
X14663419Y-2686050D01*
X14663419Y-2500630D01*
G37*
G36*
X16470630Y-8318500D02*
G01*
X16470630Y-8567420D01*
X16656050Y-8567420D01*
X16656050Y-8544560D01*
X16633190Y-8521700D01*
X16633190Y-8478520D01*
X16584930Y-8430260D01*
X16584930Y-8404860D01*
X16529050Y-8348980D01*
X16516350Y-8348980D01*
X16493490Y-8326120D01*
G37*
G36*
X16470630Y-8704580D02*
G01*
X16470630Y-8953500D01*
X16493490Y-8945880D01*
X16516350Y-8923020D01*
X16529050Y-8923020D01*
X16584930Y-8867140D01*
X16584930Y-8841740D01*
X16633190Y-8793480D01*
X16633190Y-8750300D01*
X16656050Y-8727440D01*
X16656050Y-8704580D01*
G37*
G36*
X16109950Y-4640580D02*
G01*
X16109950Y-4663440D01*
X16132810Y-4686300D01*
X16132810Y-4729480D01*
X16181069Y-4777740D01*
X16181069Y-4803140D01*
X16236950Y-4859020D01*
X16249650Y-4859020D01*
X16272510Y-4881880D01*
X16295369Y-4889500D01*
X16295369Y-4640580D01*
G37*
G36*
X16295369Y-4254500D02*
G01*
X16272510Y-4262120D01*
X16249650Y-4284980D01*
X16236950Y-4284980D01*
X16181069Y-4340860D01*
X16181069Y-4366260D01*
X16132810Y-4414520D01*
X16132810Y-4457700D01*
X16109950Y-4480560D01*
X16109950Y-4503420D01*
X16295369Y-4503420D01*
G37*
G36*
X4838700Y-13208000D02*
G01*
X4838700Y-13271500D01*
X4924399Y-13271500D01*
X4924399Y-13208000D01*
G37*
G36*
X4279900Y-13208000D02*
G01*
X4283100Y-13211200D01*
X4283100Y-13271500D01*
X4368800Y-13271500D01*
X4368800Y-13208000D01*
G37*
G36*
X1432560Y-107950D02*
G01*
X1409700Y-130810D01*
X1366520Y-130810D01*
X1318260Y-179070D01*
X1292860Y-179070D01*
X1236980Y-234950D01*
X1236980Y-247650D01*
X1214120Y-270510D01*
X1206500Y-293370D01*
X1455420Y-293370D01*
X1455420Y-107950D01*
G37*
G36*
X1592580Y-107950D02*
G01*
X1592580Y-293370D01*
X1841500Y-293370D01*
X1833880Y-270510D01*
X1811020Y-247650D01*
X1811020Y-234950D01*
X1755139Y-179070D01*
X1729739Y-179070D01*
X1681480Y-130810D01*
X1638300Y-130810D01*
X1615440Y-107950D01*
G37*
D13*
X1269994Y-1295793D02*
G01*
X1269994Y-1384693D01*
X1269994Y-1282697D01*
X2916933Y-1282697D01*
X2916933Y-2806697D01*
X1269994Y-2806697D01*
X1269994Y-1346593D01*
X4571989Y-1295793D02*
G01*
X4571989Y-1384693D01*
X4571989Y-1282697D01*
X6218928Y-1282697D01*
X6218928Y-2806697D01*
X4571989Y-2806697D01*
X4571989Y-1346593D01*
X6222984Y-1295793D02*
G01*
X6222984Y-1384693D01*
X6222984Y-1282697D01*
X7869923Y-1282697D01*
X7869923Y-2806697D01*
X6222984Y-2806697D01*
X6222984Y-1346593D01*
X1269994Y-2819791D02*
G01*
X1269994Y-2908691D01*
X1269994Y-2806694D01*
X2916933Y-2806694D01*
X2916933Y-4330694D01*
X1269994Y-4330694D01*
X1269994Y-2870591D01*
X2920992Y-2819791D02*
G01*
X2920992Y-2908691D01*
X2920992Y-2806694D01*
X4567930Y-2806694D01*
X4567930Y-4330694D01*
X2920992Y-4330694D01*
X2920992Y-2870591D01*
X1269994Y-4343788D02*
G01*
X1269994Y-4432688D01*
X1269994Y-4330692D01*
X2916933Y-4330692D01*
X2916933Y-5854692D01*
X1269994Y-5854692D01*
X1269994Y-4394588D01*
X2920992Y-4343788D02*
G01*
X2920992Y-4432688D01*
X2920992Y-4330692D01*
X4567930Y-4330692D01*
X4567930Y-5854692D01*
X2920992Y-5854692D01*
X2920992Y-4394588D01*
X4571989Y-4343788D02*
G01*
X4571989Y-4432688D01*
X4571989Y-4330692D01*
X6218928Y-4330692D01*
X6218928Y-5854692D01*
X4571989Y-5854692D01*
X4571989Y-4394588D01*
X6222984Y-4343788D02*
G01*
X6222984Y-4432688D01*
X6222984Y-4330692D01*
X7869923Y-4330692D01*
X7869923Y-5854692D01*
X6222984Y-5854692D01*
X6222984Y-4394588D01*
X1269994Y-5867783D02*
G01*
X1269994Y-5956683D01*
X1269994Y-5854687D01*
X2916933Y-5854687D01*
X2916933Y-7378687D01*
X1269994Y-7378687D01*
X1269994Y-5918583D01*
X2920992Y-5867783D02*
G01*
X2920992Y-5956683D01*
X2920992Y-5854687D01*
X4567930Y-5854687D01*
X4567930Y-7378687D01*
X2920992Y-7378687D01*
X2920992Y-5918583D01*
X4571989Y-5867783D02*
G01*
X4571989Y-5956683D01*
X4571989Y-5854687D01*
X6218928Y-5854687D01*
X6218928Y-7378687D01*
X4571989Y-7378687D01*
X4571989Y-5918583D01*
X6222984Y-5867783D02*
G01*
X6222984Y-5956683D01*
X6222984Y-5854687D01*
X7869923Y-5854687D01*
X7869923Y-7378687D01*
X6222984Y-7378687D01*
X6222984Y-5918583D01*
X4571989Y-2819791D02*
G01*
X4571989Y-2908691D01*
X4571989Y-2806694D01*
X6218928Y-2806694D01*
X6218928Y-4330694D01*
X4571989Y-4330694D01*
X4571989Y-2870591D01*
X6222984Y-2819791D02*
G01*
X6222984Y-2908691D01*
X6222984Y-2806694D01*
X7869923Y-2806694D01*
X7869923Y-4330694D01*
X6222984Y-4330694D01*
X6222984Y-2870591D01*
X2920992Y-1295793D02*
G01*
X2920992Y-1384693D01*
X2920992Y-1282697D01*
X4567930Y-1282697D01*
X4567930Y-2806697D01*
X2920992Y-2806697D01*
X2920992Y-1346593D01*
D14*
X8765981Y-1808998D02*
G01*
X8505982Y-1808998D01*
X9781979Y-1808998D02*
G01*
X9521979Y-1808998D01*
D11*
X5732739Y-266880D02*
G01*
X5732739Y-415378D01*
X5951260Y-415378D02*
G01*
X5951260Y-266880D01*
X5936020Y-251640D02*
G01*
X5747979Y-251640D01*
X5732739Y-749119D02*
G01*
X5732739Y-600621D01*
X5951260Y-600621D02*
G01*
X5951260Y-749119D01*
X5936020Y-764359D02*
G01*
X5747979Y-764359D01*
D14*
X4747259Y-85089D02*
G01*
X4401820Y-85089D01*
X4401820Y-772160D01*
X4561840Y-932179D01*
X4747259Y-932179D01*
X4904740Y-85089D02*
G01*
X5252720Y-85089D01*
X5252720Y-769620D01*
X5090159Y-932179D01*
X4904740Y-932179D01*
X14048740Y-1184910D02*
G01*
X14394179Y-1184910D01*
X14394179Y-497839D01*
X14234159Y-337820D01*
X14048740Y-337820D01*
X13891259Y-1184910D02*
G01*
X13543279Y-1184910D01*
X13543279Y-500379D01*
X13705840Y-337820D01*
X13891259Y-337820D01*
D11*
X13317260Y-1257119D02*
G01*
X13317260Y-1108621D01*
X13098739Y-1108621D02*
G01*
X13098739Y-1257119D01*
X13113979Y-1272359D02*
G01*
X13302020Y-1272359D01*
X13317260Y-774880D02*
G01*
X13317260Y-923378D01*
X13098739Y-923378D02*
G01*
X13098739Y-774880D01*
X13113979Y-759640D02*
G01*
X13302020Y-759640D01*
D14*
X16678909Y-7541260D02*
G01*
X16678909Y-7195820D01*
X15991840Y-7195820D01*
X15831820Y-7355839D01*
X15831820Y-7541260D01*
X16678909Y-7698739D02*
G01*
X16678909Y-8046720D01*
X15994379Y-8046720D01*
X15831820Y-7884160D01*
X15831820Y-7698739D01*
D11*
X16014880Y-6967260D02*
G01*
X16163378Y-6967260D01*
X16163378Y-6748739D02*
G01*
X16014880Y-6748739D01*
X15999640Y-6763979D02*
G01*
X15999640Y-6952020D01*
X16497119Y-6967260D02*
G01*
X16348621Y-6967260D01*
X16348621Y-6748739D02*
G01*
X16497119Y-6748739D01*
X16512359Y-6763979D02*
G01*
X16512359Y-6952020D01*
X15735119Y-4462739D02*
G01*
X15586621Y-4462739D01*
X15586621Y-4681260D02*
G01*
X15735119Y-4681260D01*
X15750359Y-4666020D02*
G01*
X15750359Y-4477979D01*
X15252880Y-4462739D02*
G01*
X15401378Y-4462739D01*
X15401378Y-4681260D02*
G01*
X15252880Y-4681260D01*
X15237640Y-4666020D02*
G01*
X15237640Y-4477979D01*
D14*
X14810740Y-2708910D02*
G01*
X15156179Y-2708910D01*
X15156179Y-2021839D01*
X14996159Y-1861820D01*
X14810740Y-1861820D01*
X14653259Y-2708910D02*
G01*
X14305279Y-2708910D01*
X14305279Y-2024379D01*
X14467840Y-1861820D01*
X14653259Y-1861820D01*
X16678909Y-8557260D02*
G01*
X16678909Y-8211820D01*
X15991840Y-8211820D01*
X15831820Y-8371839D01*
X15831820Y-8557260D01*
X16678909Y-8714739D02*
G01*
X16678909Y-9062720D01*
X15994379Y-9062720D01*
X15831820Y-8900160D01*
X15831820Y-8714739D01*
D11*
X16014880Y-6713260D02*
G01*
X16163378Y-6713260D01*
X16163378Y-6494739D02*
G01*
X16014880Y-6494739D01*
X15999640Y-6509979D02*
G01*
X15999640Y-6698020D01*
X16497119Y-6713260D02*
G01*
X16348621Y-6713260D01*
X16348621Y-6494739D02*
G01*
X16497119Y-6494739D01*
X16512359Y-6509979D02*
G01*
X16512359Y-6698020D01*
X16497119Y-3700739D02*
G01*
X16348621Y-3700739D01*
X16348621Y-3919260D02*
G01*
X16497119Y-3919260D01*
X16512359Y-3904020D02*
G01*
X16512359Y-3715979D01*
X16014880Y-3700739D02*
G01*
X16163378Y-3700739D01*
X16163378Y-3919260D02*
G01*
X16014880Y-3919260D01*
X15999640Y-3904020D02*
G01*
X15999640Y-3715979D01*
D14*
X16087090Y-4650739D02*
G01*
X16087090Y-4996179D01*
X16774159Y-4996179D01*
X16934179Y-4836160D01*
X16934179Y-4650739D01*
X16087090Y-4493260D02*
G01*
X16087090Y-4145279D01*
X16771620Y-4145279D01*
X16934179Y-4307839D01*
X16934179Y-4493260D01*
D11*
X13606739Y-2298880D02*
G01*
X13606739Y-2447378D01*
X13825260Y-2447378D02*
G01*
X13825260Y-2298880D01*
X13810020Y-2283640D02*
G01*
X13621979Y-2283640D01*
X13606739Y-2781119D02*
G01*
X13606739Y-2632621D01*
X13825260Y-2632621D02*
G01*
X13825260Y-2781119D01*
X13810020Y-2796359D02*
G01*
X13621979Y-2796359D01*
X1765119Y-9796739D02*
G01*
X1616621Y-9796739D01*
X1616621Y-10015260D02*
G01*
X1765119Y-10015260D01*
X1780359Y-10000020D02*
G01*
X1780359Y-9811979D01*
X1282880Y-9796739D02*
G01*
X1431378Y-9796739D01*
X1431378Y-10015260D02*
G01*
X1282880Y-10015260D01*
X1267640Y-10000020D02*
G01*
X1267640Y-9811979D01*
X13606739Y-5346880D02*
G01*
X13606739Y-5495378D01*
X13825260Y-5495378D02*
G01*
X13825260Y-5346880D01*
X13810020Y-5331640D02*
G01*
X13621979Y-5331640D01*
X13606739Y-5829119D02*
G01*
X13606739Y-5680621D01*
X13825260Y-5680621D02*
G01*
X13825260Y-5829119D01*
X13810020Y-5844359D02*
G01*
X13621979Y-5844359D01*
D15*
X8765143Y-463138D02*
G01*
X8570142Y-463138D01*
X8570142Y-383242D01*
X8765143Y-383242D01*
X8765143Y-380349D01*
X8765146Y-633138D02*
G01*
X8570145Y-633138D01*
X8570145Y-553247D01*
X8765146Y-553247D01*
X8765146Y-550351D01*
X8765138Y-803140D02*
G01*
X8570137Y-803140D01*
X8570137Y-723244D01*
X8765138Y-723244D01*
X8765138Y-720349D01*
X8765146Y-973145D02*
G01*
X8570145Y-973145D01*
X8570145Y-893251D01*
X8765146Y-893251D01*
X8765146Y-890358D01*
X8765148Y-1143147D02*
G01*
X8570147Y-1143147D01*
X8570147Y-1063254D01*
X8765148Y-1063254D01*
X8765148Y-1060361D01*
X8765148Y-1295654D02*
G01*
X8765148Y-228854D01*
X8765148Y-228854D02*
G01*
X9781148Y-228854D01*
X9781148Y-1282666D02*
G01*
X9781148Y-1295654D01*
X8765148Y-1295654D01*
X9781148Y-228854D02*
G01*
X9781148Y-241841D01*
D11*
X16610081Y-9817079D02*
G01*
X16610081Y-9994920D01*
X16917918Y-9817079D02*
G01*
X16917918Y-9994920D01*
D14*
X15851972Y-10370820D02*
G01*
X16151986Y-10370820D01*
X16151986Y-9944100D01*
X16148278Y-9944100D02*
G01*
X15851987Y-9944100D01*
X15851972Y-10083800D02*
G01*
X15851972Y-9944100D01*
X15851972Y-10370820D02*
G01*
X15851972Y-10231120D01*
D11*
X14820920Y-4418081D02*
G01*
X14643079Y-4418081D01*
X14820920Y-4725918D02*
G01*
X14643079Y-4725918D01*
X16409918Y-5930920D02*
G01*
X16409918Y-5753079D01*
X16102081Y-5930920D02*
G01*
X16102081Y-5753079D01*
D14*
X3293236Y-8758681D02*
G01*
X3853230Y-8758681D01*
X3853230Y-9558680D01*
X3293236Y-9558680D01*
X3293236Y-8758681D01*
D11*
X11526954Y-8460620D02*
G01*
X11526954Y-7795379D01*
X11821233Y-7795379D01*
X11821233Y-8460620D01*
X11526954Y-8460620D01*
X12436381Y-2762140D02*
G01*
X12436381Y-2317859D01*
X13471618Y-2317859D01*
X13471618Y-2762140D01*
X12436381Y-2762140D01*
X12436381Y-5822840D02*
G01*
X12436381Y-5378559D01*
X13471618Y-5378559D01*
X13471618Y-5822840D01*
X12436381Y-5822840D01*
D14*
X15875111Y-11555001D02*
G01*
X16128888Y-11555001D01*
X15875111Y-11304998D02*
G01*
X16128888Y-11304998D01*
X15849711Y-12177301D02*
G01*
X16103488Y-12177301D01*
X15849711Y-11927298D02*
G01*
X16103488Y-11927298D01*
X729792Y-1007998D02*
G01*
X729792Y-8001D01*
X115366Y-1008532D02*
G01*
X98000Y-1048004D01*
X198000Y-1048004D01*
X178307Y-1008532D01*
X48000Y-1007998D02*
G01*
X48000Y-8001D01*
X48000Y-1007998D02*
G01*
X807999Y-1007998D01*
X48000Y-8001D02*
G01*
X807999Y-8001D01*
X807999Y-1007998D02*
G01*
X807999Y-8001D01*
X267919Y-1007998D02*
G01*
X267919Y-8001D01*
X14764207Y-8644001D02*
G01*
X14764207Y-9643999D01*
X15378633Y-8643467D02*
G01*
X15395999Y-8603995D01*
X15295999Y-8603995D01*
X15315691Y-8643467D01*
X15445999Y-8644001D02*
G01*
X15445999Y-9643999D01*
X15445999Y-8644001D02*
G01*
X14686000Y-8644001D01*
X15445999Y-9643999D02*
G01*
X14686000Y-9643999D01*
X14686000Y-8644001D02*
G01*
X14686000Y-9643999D01*
X15226080Y-8644001D02*
G01*
X15226080Y-9643999D01*
X13722322Y-12690904D02*
G01*
X16322316Y-12690904D01*
X16322316Y-14090901D01*
X13722322Y-14090901D01*
X13722322Y-12690904D01*
X12524077Y-14088285D02*
G01*
X17524067Y-14088285D01*
X17524067Y-14588284D01*
X12524077Y-14588284D01*
X12524077Y-14088285D01*
X16718856Y-11507111D02*
G01*
X16804700Y-11507111D01*
X16840774Y-11471043D01*
X16840774Y-11387985D01*
X16718856Y-11351668D02*
G01*
X16804706Y-11351668D01*
X16840774Y-11387736D01*
X16840774Y-11470794D01*
X16718851Y-12015109D02*
G01*
X16804695Y-12015109D01*
X16840768Y-11979043D01*
X16840768Y-11895985D01*
X16718851Y-11859671D02*
G01*
X16804700Y-11859671D01*
X16840768Y-11895734D01*
X16840768Y-11978792D01*
X16718856Y-12367656D02*
G01*
X16804706Y-12367656D01*
X16840774Y-12403724D01*
X16840774Y-12486782D01*
X16718856Y-12523099D02*
G01*
X16804700Y-12523099D01*
X16840774Y-12487031D01*
X16840774Y-12403973D01*
X16796057Y-11176096D02*
G01*
X16796057Y-12700099D01*
X17410483Y-11176099D02*
G01*
X17427846Y-11136101D01*
X17327852Y-11136101D01*
X17347539Y-11176099D01*
X17477849Y-11176096D02*
G01*
X17477849Y-12700099D01*
X17477849Y-11176099D02*
G01*
X16717850Y-11176099D01*
X17477849Y-12700099D02*
G01*
X16717850Y-12700099D01*
X16717850Y-11176096D02*
G01*
X16717850Y-12700099D01*
X17257930Y-11176096D02*
G01*
X17257930Y-12700099D01*
X4981956Y-12606528D02*
G01*
X4981956Y-12585700D01*
X4787900Y-12585700D01*
X4737100Y-12534900D01*
X4737100Y-12357100D01*
X4787900Y-12306300D01*
X4981956Y-12306300D01*
X4981956Y-13114528D02*
G01*
X4981956Y-13093700D01*
X4787900Y-13093700D01*
X4737100Y-13042900D01*
X4737100Y-12865100D01*
X4787900Y-12814300D01*
X4981956Y-12814300D01*
X4375043Y-13208000D02*
G01*
X4375043Y-12192000D01*
X4838700Y-13208000D02*
G01*
X4838700Y-13271500D01*
X4924381Y-13271500D01*
X4924381Y-13208000D01*
X4283118Y-13208000D02*
G01*
X4283118Y-13271500D01*
X4368800Y-13271500D01*
X4368800Y-13208000D01*
X4981996Y-13208000D02*
G01*
X4981996Y-12192000D01*
X4162003Y-12192000D02*
G01*
X4981996Y-12192000D01*
X4162003Y-13208000D02*
G01*
X4981996Y-13208000D01*
X4162003Y-13208000D02*
G01*
X4162003Y-12192000D01*
D12*
X10096500Y-8001000D02*
G01*
X10287000Y-8001000D01*
X10287000Y-7747000D01*
X8763000Y-7747000D01*
X8763000Y-8001000D01*
D16*
X8763000Y-8001000D02*
G01*
X10096500Y-8001000D01*
D14*
X12358997Y-1391996D02*
G01*
X11009002Y-1391998D01*
X11009002Y-132001D02*
G01*
X12358997Y-132001D01*
X12358997Y-539023D01*
X12358997Y-984976D02*
G01*
X12358997Y-1391996D01*
X11009002Y-132001D02*
G01*
X11009002Y-539023D01*
X11009002Y-984976D02*
G01*
X11009002Y-1391998D01*
X14470989Y-6495999D02*
G01*
X14470989Y-5576011D01*
X15501010Y-5696000D02*
G01*
X15501010Y-6615988D01*
X14470379Y-6495999D02*
G01*
X14584679Y-6614160D01*
X15387320Y-5575300D02*
G01*
X15501620Y-5692139D01*
X14584679Y-6614160D02*
G01*
X14737885Y-6614160D01*
X15234114Y-6614160D02*
G01*
X15501010Y-6614160D01*
X14470989Y-5576011D02*
G01*
X14737885Y-5576011D01*
X15234114Y-5576011D02*
G01*
X15387320Y-5576011D01*
X15501010Y-7220000D02*
G01*
X15501010Y-8139988D01*
X14470989Y-8019999D02*
G01*
X14470989Y-7100011D01*
X15501620Y-7220000D02*
G01*
X15387320Y-7101839D01*
X14584679Y-8140700D02*
G01*
X14470379Y-8023860D01*
X15387320Y-7101839D02*
G01*
X15234114Y-7101839D01*
X14737885Y-7101839D02*
G01*
X14470989Y-7101839D01*
X15501010Y-8139988D02*
G01*
X15234114Y-8139988D01*
X14737885Y-8139988D02*
G01*
X14584679Y-8139988D01*
X10767999Y-13092986D02*
G01*
X10867999Y-13092986D01*
X10817999Y-13142991D02*
G01*
X10817999Y-13042978D01*
X10797999Y-1809054D02*
G01*
X10538000Y-1809054D01*
X11813999Y-1809054D02*
G01*
X11554000Y-1809054D01*
X8765999Y-3333054D02*
G01*
X8506000Y-3333054D01*
X9781999Y-3333054D02*
G01*
X9522000Y-3333054D01*
X10797999Y-3333054D02*
G01*
X10538000Y-3333054D01*
X11813999Y-3333054D02*
G01*
X11554000Y-3333054D01*
X8765999Y-4857054D02*
G01*
X8506000Y-4857054D01*
X9781999Y-4857054D02*
G01*
X9522000Y-4857054D01*
X9751999Y-13102892D02*
G01*
X9851999Y-13102892D01*
X9801999Y-13152897D02*
G01*
X9801999Y-13052884D01*
X10797999Y-4857054D02*
G01*
X10538000Y-4857054D01*
X8506000Y-13431047D02*
G01*
X8765999Y-13431047D01*
X11813999Y-4857054D02*
G01*
X11554000Y-4857054D01*
X8765999Y-6381054D02*
G01*
X8506000Y-6381054D01*
X9781999Y-6381054D02*
G01*
X9522000Y-6381054D01*
X10797999Y-6381054D02*
G01*
X10538000Y-6381054D01*
X11813999Y-6381054D02*
G01*
X11554000Y-6381054D01*
X8498837Y-8269663D02*
G01*
X10297157Y-8269663D01*
X10045189Y-10813902D02*
G01*
X10297157Y-10813902D01*
X8498837Y-10813902D02*
G01*
X8755885Y-10813902D01*
X10297157Y-10737194D02*
G01*
X10297157Y-10813902D01*
X10297157Y-8263742D02*
G01*
X10297157Y-8939890D01*
X8498837Y-10737194D02*
G01*
X8498837Y-10813902D01*
X8498837Y-8263742D02*
G01*
X8498837Y-8939890D01*
X8635997Y-8952082D02*
G01*
X10159997Y-8952082D01*
X10074996Y-8426584D02*
G01*
X10074996Y-8887584D01*
X8632675Y-8824584D02*
G01*
X8632675Y-8425583D01*
X8949674Y-8425583D01*
X8949674Y-8722583D01*
X9229674Y-8722583D01*
X9229674Y-8425583D01*
X9569673Y-8425583D01*
X9569673Y-8722583D01*
X9851674Y-8722583D01*
X9851674Y-8426584D01*
X10149672Y-8426584D01*
X10149672Y-8900584D01*
D13*
X508000Y-12573000D02*
G01*
X508000Y-12446000D01*
X508000Y-12319000D01*
X508000Y-10731500D01*
X508000Y-9842500D01*
X508000Y-9525000D01*
X609600Y-9525000D01*
X609600Y-9779000D01*
X609600Y-10795000D01*
X609600Y-11176000D01*
X609600Y-11684000D01*
X609600Y-12255500D01*
X609600Y-12509500D01*
X609600Y-12573000D01*
X508000Y-12573000D01*
X609600Y-9779000D02*
G01*
X863600Y-9779000D01*
X863600Y-9867900D01*
X863600Y-9944100D01*
X863600Y-10121900D01*
X863600Y-10198100D01*
X863600Y-10375900D01*
X863600Y-10452100D01*
X863600Y-10629900D01*
X863600Y-10706100D01*
X863600Y-10795000D01*
X609600Y-10795000D01*
X609600Y-12255500D02*
G01*
X863600Y-12255500D01*
X863600Y-12344400D01*
X863600Y-12420600D01*
X863600Y-12509500D01*
X609600Y-12509500D01*
X863600Y-12344400D02*
G01*
X927100Y-12344400D01*
X863600Y-12420600D02*
G01*
X927100Y-12420600D01*
X863600Y-10706100D02*
G01*
X927100Y-10706100D01*
X863600Y-10629900D02*
G01*
X927100Y-10629900D01*
X863600Y-10452100D02*
G01*
X927100Y-10452100D01*
X863600Y-10198100D02*
G01*
X927100Y-10198100D01*
X863600Y-9944100D02*
G01*
X927100Y-9944100D01*
X863600Y-10375900D02*
G01*
X927100Y-10375900D01*
X863600Y-10121900D02*
G01*
X927100Y-10121900D01*
X863600Y-9867900D02*
G01*
X927100Y-9867900D01*
X1092200Y-10477500D02*
G01*
X1206500Y-10477500D01*
X1206500Y-11176000D01*
X609600Y-11176000D01*
X609600Y-11684000D02*
G01*
X1143000Y-11684000D01*
X1143000Y-12255500D01*
X863600Y-12255500D01*
X508000Y-9842500D02*
G01*
X317500Y-9842500D01*
X317500Y-10731500D01*
X508000Y-10731500D01*
X508000Y-12319000D02*
G01*
X317500Y-12319000D01*
X317500Y-12446000D01*
X508000Y-12446000D01*
D11*
X5226080Y-12795095D02*
G01*
X5226080Y-12931086D01*
X5441899Y-12931086D01*
X5441899Y-12795095D01*
X5226080Y-12604854D02*
G01*
X5226080Y-12468862D01*
X5441899Y-12468862D01*
X5441899Y-12604854D01*
X8743909Y-2698879D02*
G01*
X8743909Y-2562887D01*
X8528090Y-2562887D01*
X8528090Y-2698879D01*
X8743909Y-2889120D02*
G01*
X8743909Y-3025112D01*
X8528090Y-3025112D01*
X8528090Y-2889120D01*
X10306090Y-12541120D02*
G01*
X10306090Y-12677112D01*
X10521909Y-12677112D01*
X10521909Y-12541120D01*
X10306090Y-12350879D02*
G01*
X10306090Y-12214887D01*
X10521909Y-12214887D01*
X10521909Y-12350879D01*
X9759909Y-2698879D02*
G01*
X9759909Y-2562887D01*
X9544090Y-2562887D01*
X9544090Y-2698879D01*
X9759909Y-2889120D02*
G01*
X9759909Y-3025112D01*
X9544090Y-3025112D01*
X9544090Y-2889120D01*
X10725279Y-2432090D02*
G01*
X10589287Y-2432090D01*
X10589287Y-2647909D01*
X10725279Y-2647909D01*
X10915520Y-2432090D02*
G01*
X11051512Y-2432090D01*
X11051512Y-2647909D01*
X10915520Y-2647909D01*
X12299909Y-1936879D02*
G01*
X12299909Y-1800887D01*
X12084090Y-1800887D01*
X12084090Y-1936879D01*
X12299909Y-2127120D02*
G01*
X12299909Y-2263112D01*
X12084090Y-2263112D01*
X12084090Y-2127120D01*
X8743909Y-4222879D02*
G01*
X8743909Y-4086887D01*
X8528090Y-4086887D01*
X8528090Y-4222879D01*
X8743909Y-4413120D02*
G01*
X8743909Y-4549112D01*
X8528090Y-4549112D01*
X8528090Y-4413120D01*
X9759909Y-4222879D02*
G01*
X9759909Y-4086887D01*
X9544090Y-4086887D01*
X9544090Y-4222879D01*
X9759909Y-4413120D02*
G01*
X9759909Y-4549112D01*
X9544090Y-4549112D01*
X9544090Y-4413120D01*
X10775909Y-4222879D02*
G01*
X10775909Y-4086887D01*
X10560090Y-4086887D01*
X10560090Y-4222879D01*
X10775909Y-4413120D02*
G01*
X10775909Y-4549112D01*
X10560090Y-4549112D01*
X10560090Y-4413120D01*
X11791909Y-4222879D02*
G01*
X11791909Y-4086887D01*
X11576090Y-4086887D01*
X11576090Y-4222879D01*
X11791909Y-4413120D02*
G01*
X11791909Y-4549112D01*
X11576090Y-4549112D01*
X11576090Y-4413120D01*
X8743909Y-5746879D02*
G01*
X8743909Y-5610887D01*
X8528090Y-5610887D01*
X8528090Y-5746879D01*
X8743909Y-5937120D02*
G01*
X8743909Y-6073112D01*
X8528090Y-6073112D01*
X8528090Y-5937120D01*
X9759909Y-5746879D02*
G01*
X9759909Y-5610887D01*
X9544090Y-5610887D01*
X9544090Y-5746879D01*
X9759909Y-5937120D02*
G01*
X9759909Y-6073112D01*
X9544090Y-6073112D01*
X9544090Y-5937120D01*
X9544090Y-12531214D02*
G01*
X9544090Y-12667206D01*
X9759909Y-12667206D01*
X9759909Y-12531214D01*
X9544090Y-12340973D02*
G01*
X9544090Y-12204981D01*
X9759909Y-12204981D01*
X9759909Y-12340973D01*
X10725279Y-5480090D02*
G01*
X10589287Y-5480090D01*
X10589287Y-5695909D01*
X10725279Y-5695909D01*
X10915520Y-5480090D02*
G01*
X11051512Y-5480090D01*
X11051512Y-5695909D01*
X10915520Y-5695909D01*
X8528090Y-12541120D02*
G01*
X8528090Y-12677112D01*
X8743909Y-12677112D01*
X8743909Y-12541120D01*
X8528090Y-12350879D02*
G01*
X8528090Y-12214887D01*
X8743909Y-12214887D01*
X8743909Y-12350879D01*
X12299909Y-4984879D02*
G01*
X12299909Y-4848887D01*
X12084090Y-4848887D01*
X12084090Y-4984879D01*
X12299909Y-5175120D02*
G01*
X12299909Y-5311112D01*
X12084090Y-5311112D01*
X12084090Y-5175120D01*
X8743909Y-7270879D02*
G01*
X8743909Y-7134887D01*
X8528090Y-7134887D01*
X8528090Y-7270879D01*
X8743909Y-7461120D02*
G01*
X8743909Y-7597112D01*
X8528090Y-7597112D01*
X8528090Y-7461120D01*
X9759909Y-7270879D02*
G01*
X9759909Y-7134887D01*
X9544090Y-7134887D01*
X9544090Y-7270879D01*
X9759909Y-7461120D02*
G01*
X9759909Y-7597112D01*
X9544090Y-7597112D01*
X9544090Y-7461120D01*
X10775909Y-7270879D02*
G01*
X10775909Y-7134887D01*
X10560090Y-7134887D01*
X10560090Y-7270879D01*
X10775909Y-7461120D02*
G01*
X10775909Y-7597112D01*
X10560090Y-7597112D01*
X10560090Y-7461120D01*
X1619120Y-10394909D02*
G01*
X1755112Y-10394909D01*
X1755112Y-10179090D01*
X1619120Y-10179090D01*
X1428879Y-10394909D02*
G01*
X1292887Y-10394909D01*
X1292887Y-10179090D01*
X1428879Y-10179090D01*
X11791909Y-7270879D02*
G01*
X11791909Y-7134887D01*
X11576090Y-7134887D01*
X11576090Y-7270879D01*
X11791909Y-7461120D02*
G01*
X11791909Y-7597112D01*
X11576090Y-7597112D01*
X11576090Y-7461120D01*
D14*
X4065353Y-912086D02*
G01*
X4053677Y-912086D01*
X4051388Y-914374D01*
X4051388Y-927061D01*
X4065353Y-939766D01*
X4038683Y-939766D01*
X4065353Y-611868D02*
G01*
X4053682Y-611868D01*
X4051388Y-609574D01*
X4051388Y-584166D01*
X4086346Y-611868D02*
G01*
X4065353Y-611868D01*
X3543391Y-618853D02*
G01*
X3543391Y-584166D01*
X3581483Y-584166D01*
X3543391Y-914366D02*
G01*
X3543391Y-905080D01*
X4038777Y-939749D02*
G01*
X3581577Y-939749D01*
X3581577Y-939749D01*
X3543391Y-939766D01*
X3543391Y-914366D01*
X4065353Y-611868D02*
G01*
X4065353Y-584179D01*
X3581483Y-584166D02*
G01*
X4065262Y-584166D01*
X4086346Y-611868D02*
G01*
X4086346Y-584179D01*
X4065262Y-584179D01*
X4038683Y-939766D02*
G01*
X4065353Y-939766D01*
X4065353Y-912086D02*
G01*
X4065353Y-927066D01*
X4065353Y-939766D02*
G01*
X4086352Y-939766D01*
X4086352Y-912086D01*
X4086352Y-912086D02*
G01*
X4065353Y-912086D01*
X3759283Y-863566D02*
G01*
X3759283Y-660366D01*
X3924383Y-761966D02*
G01*
X3695783Y-761966D01*
X3860878Y-863572D02*
G01*
X3860883Y-660366D01*
X3759266Y-863579D02*
G01*
X3860866Y-761979D01*
X3759266Y-660379D01*
X10564200Y-760709D02*
G01*
X10564200Y-772386D01*
X10566488Y-774674D01*
X10579176Y-774674D01*
X10591881Y-760709D01*
X10591881Y-787379D01*
X10263982Y-760709D02*
G01*
X10263982Y-772380D01*
X10261688Y-774674D01*
X10236281Y-774674D01*
X10263982Y-739716D02*
G01*
X10263982Y-760709D01*
X10270967Y-1282672D02*
G01*
X10236281Y-1282672D01*
X10236281Y-1244579D01*
X10566481Y-1282672D02*
G01*
X10557195Y-1282672D01*
X10591863Y-787285D02*
G01*
X10591863Y-1244485D01*
X10591863Y-1244485D01*
X10591881Y-1282672D01*
X10566481Y-1282672D01*
X10263982Y-760709D02*
G01*
X10236293Y-760709D01*
X10236281Y-1244579D02*
G01*
X10236281Y-760801D01*
X10263982Y-739716D02*
G01*
X10236293Y-739716D01*
X10236293Y-760801D01*
X10591881Y-787379D02*
G01*
X10591881Y-760709D01*
X10564200Y-760709D02*
G01*
X10579181Y-760709D01*
X10591881Y-760709D02*
G01*
X10591881Y-739711D01*
X10564200Y-739711D01*
X10564200Y-739711D02*
G01*
X10564200Y-760709D01*
X10515681Y-1066779D02*
G01*
X10312481Y-1066779D01*
X10414081Y-901679D02*
G01*
X10414081Y-1130279D01*
X10515686Y-965184D02*
G01*
X10312481Y-965179D01*
X10515693Y-1066797D02*
G01*
X10414093Y-965197D01*
X10312493Y-1066797D01*
X15495353Y-5230086D02*
G01*
X15483677Y-5230086D01*
X15481388Y-5232374D01*
X15481388Y-5245061D01*
X15495353Y-5257766D01*
X15468683Y-5257766D01*
X15495353Y-4929868D02*
G01*
X15483682Y-4929868D01*
X15481388Y-4927574D01*
X15481388Y-4902166D01*
X15516346Y-4929868D02*
G01*
X15495353Y-4929868D01*
X14973391Y-4936853D02*
G01*
X14973391Y-4902166D01*
X15011483Y-4902166D01*
X14973391Y-5232366D02*
G01*
X14973391Y-5223080D01*
X15468777Y-5257749D02*
G01*
X15011577Y-5257749D01*
X15011577Y-5257749D01*
X14973391Y-5257766D01*
X14973391Y-5232366D01*
X15495353Y-4929868D02*
G01*
X15495353Y-4902179D01*
X15011483Y-4902166D02*
G01*
X15495262Y-4902166D01*
X15516346Y-4929868D02*
G01*
X15516346Y-4902179D01*
X15495262Y-4902179D01*
X15468683Y-5257766D02*
G01*
X15495353Y-5257766D01*
X15495353Y-5230086D02*
G01*
X15495353Y-5245066D01*
X15495353Y-5257766D02*
G01*
X15516352Y-5257766D01*
X15516352Y-5230086D01*
X15516352Y-5230086D02*
G01*
X15495353Y-5230086D01*
X15189283Y-5181566D02*
G01*
X15189283Y-4978366D01*
X15354383Y-5079966D02*
G01*
X15125783Y-5079966D01*
X15290878Y-5181572D02*
G01*
X15290883Y-4978366D01*
X15189266Y-5181579D02*
G01*
X15290866Y-5079979D01*
X15189266Y-4978379D01*
X17422200Y-4570709D02*
G01*
X17422200Y-4582386D01*
X17424488Y-4584674D01*
X17437176Y-4584674D01*
X17449881Y-4570709D01*
X17449881Y-4597379D01*
X17121982Y-4570709D02*
G01*
X17121982Y-4582380D01*
X17119688Y-4584674D01*
X17094281Y-4584674D01*
X17121982Y-4549716D02*
G01*
X17121982Y-4570709D01*
X17128967Y-5092672D02*
G01*
X17094281Y-5092672D01*
X17094281Y-5054579D01*
X17424481Y-5092672D02*
G01*
X17415195Y-5092672D01*
X17449863Y-4597285D02*
G01*
X17449863Y-5054485D01*
X17449863Y-5054485D01*
X17449881Y-5092672D01*
X17424481Y-5092672D01*
X17121982Y-4570709D02*
G01*
X17094293Y-4570709D01*
X17094281Y-5054579D02*
G01*
X17094281Y-4570801D01*
X17121982Y-4549716D02*
G01*
X17094293Y-4549716D01*
X17094293Y-4570801D01*
X17449881Y-4597379D02*
G01*
X17449881Y-4570709D01*
X17422200Y-4570709D02*
G01*
X17437181Y-4570709D01*
X17449881Y-4570709D02*
G01*
X17449881Y-4549711D01*
X17422200Y-4549711D01*
X17422200Y-4549711D02*
G01*
X17422200Y-4570709D01*
X17373681Y-4876779D02*
G01*
X17170481Y-4876779D01*
X17272081Y-4711679D02*
G01*
X17272081Y-4940279D01*
X17373686Y-4775184D02*
G01*
X17170481Y-4775179D01*
X17373693Y-4876797D02*
G01*
X17272093Y-4775197D01*
X17170493Y-4876797D01*
D11*
X2176739Y-266880D02*
G01*
X2176739Y-415378D01*
X2395260Y-415378D02*
G01*
X2395260Y-266880D01*
X2380020Y-251640D02*
G01*
X2191979Y-251640D01*
X2176739Y-749119D02*
G01*
X2176739Y-600621D01*
X2395260Y-600621D02*
G01*
X2395260Y-749119D01*
X2380020Y-764359D02*
G01*
X2191979Y-764359D01*
D14*
X1445260Y-85089D02*
G01*
X1099820Y-85089D01*
X1099820Y-772160D01*
X1259839Y-932179D01*
X1445260Y-932179D01*
X1602739Y-85089D02*
G01*
X1950720Y-85089D01*
X1950720Y-769620D01*
X1788160Y-932179D01*
X1602739Y-932179D01*
D11*
X17284880Y-9507260D02*
G01*
X17433378Y-9507260D01*
X17433378Y-9288739D02*
G01*
X17284880Y-9288739D01*
X17269640Y-9303979D02*
G01*
X17269640Y-9492020D01*
X17767119Y-9507260D02*
G01*
X17618621Y-9507260D01*
X17618621Y-9288739D02*
G01*
X17767119Y-9288739D01*
X17782359Y-9303979D02*
G01*
X17782359Y-9492020D01*
X3695519Y-9707839D02*
G01*
X3547021Y-9707839D01*
X3547021Y-9926360D02*
G01*
X3695519Y-9926360D01*
X3710759Y-9911120D02*
G01*
X3710759Y-9723079D01*
X3213280Y-9707839D02*
G01*
X3361778Y-9707839D01*
X3361778Y-9926360D02*
G01*
X3213280Y-9926360D01*
X3198040Y-9911120D02*
G01*
X3198040Y-9723079D01*
X11925119Y-8526739D02*
G01*
X11776621Y-8526739D01*
X11776621Y-8745260D02*
G01*
X11925119Y-8745260D01*
X11940359Y-8730020D02*
G01*
X11940359Y-8541979D01*
X11442880Y-8526739D02*
G01*
X11591378Y-8526739D01*
X11591378Y-8745260D02*
G01*
X11442880Y-8745260D01*
X11427640Y-8730020D02*
G01*
X11427640Y-8541979D01*
X6801063Y-705233D02*
G01*
X6801063Y-569241D01*
X6585244Y-569241D01*
X6585244Y-705233D01*
X6801063Y-895474D02*
G01*
X6801063Y-1031466D01*
X6585244Y-1031466D01*
X6585244Y-895474D01*
X6457909Y-412879D02*
G01*
X6457909Y-276887D01*
X6242090Y-276887D01*
X6242090Y-412879D01*
X6457909Y-603120D02*
G01*
X6457909Y-739112D01*
X6242090Y-739112D01*
X6242090Y-603120D01*
X7055063Y-705233D02*
G01*
X7055063Y-569241D01*
X6839244Y-569241D01*
X6839244Y-705233D01*
X7055063Y-895474D02*
G01*
X7055063Y-1031466D01*
X6839244Y-1031466D01*
X6839244Y-895474D01*
X7309063Y-705233D02*
G01*
X7309063Y-569241D01*
X7093244Y-569241D01*
X7093244Y-705233D01*
X7309063Y-895474D02*
G01*
X7309063Y-1031466D01*
X7093244Y-1031466D01*
X7093244Y-895474D01*
X16160879Y-1924090D02*
G01*
X16024887Y-1924090D01*
X16024887Y-2139909D01*
X16160879Y-2139909D01*
X16351120Y-1924090D02*
G01*
X16487112Y-1924090D01*
X16487112Y-2139909D01*
X16351120Y-2139909D01*
X17189579Y-2559090D02*
G01*
X17053587Y-2559090D01*
X17053587Y-2774909D01*
X17189579Y-2774909D01*
X17379820Y-2559090D02*
G01*
X17515812Y-2559090D01*
X17515812Y-2774909D01*
X17379820Y-2774909D01*
X15386090Y-692020D02*
G01*
X15386090Y-828012D01*
X15601909Y-828012D01*
X15601909Y-692020D01*
X15386090Y-501779D02*
G01*
X15386090Y-365787D01*
X15601909Y-365787D01*
X15601909Y-501779D01*
X14890879Y-654090D02*
G01*
X14754887Y-654090D01*
X14754887Y-869909D01*
X14890879Y-869909D01*
X15081120Y-654090D02*
G01*
X15217112Y-654090D01*
X15217112Y-869909D01*
X15081120Y-869909D01*
X17252873Y-8528161D02*
G01*
X17252873Y-8392170D01*
X17037055Y-8392170D01*
X17037055Y-8528161D01*
X17252873Y-8718402D02*
G01*
X17252873Y-8854394D01*
X17037055Y-8854394D01*
X17037055Y-8718402D01*
X16605120Y-9505909D02*
G01*
X16741112Y-9505909D01*
X16741112Y-9290090D01*
X16605120Y-9290090D01*
X16414879Y-9505909D02*
G01*
X16278887Y-9505909D01*
X16278887Y-9290090D01*
X16414879Y-9290090D01*
X14839909Y-3460879D02*
G01*
X14839909Y-3324887D01*
X14624090Y-3324887D01*
X14624090Y-3460879D01*
X14839909Y-3651120D02*
G01*
X14839909Y-3787112D01*
X14624090Y-3787112D01*
X14624090Y-3651120D01*
X15093909Y-3460879D02*
G01*
X15093909Y-3324887D01*
X14878090Y-3324887D01*
X14878090Y-3460879D01*
X15093909Y-3651120D02*
G01*
X15093909Y-3787112D01*
X14878090Y-3787112D01*
X14878090Y-3651120D01*
X15347909Y-3460879D02*
G01*
X15347909Y-3324887D01*
X15132090Y-3324887D01*
X15132090Y-3460879D01*
X15347909Y-3651120D02*
G01*
X15347909Y-3787112D01*
X15132090Y-3787112D01*
X15132090Y-3651120D01*
X15093909Y-3968879D02*
G01*
X15093909Y-3832887D01*
X14878090Y-3832887D01*
X14878090Y-3968879D01*
X15093909Y-4159120D02*
G01*
X15093909Y-4295112D01*
X14878090Y-4295112D01*
X14878090Y-4159120D01*
X908090Y-8223120D02*
G01*
X908090Y-8359112D01*
X1123909Y-8359112D01*
X1123909Y-8223120D01*
X908090Y-8032879D02*
G01*
X908090Y-7896887D01*
X1123909Y-7896887D01*
X1123909Y-8032879D01*
X908090Y-8985120D02*
G01*
X908090Y-9121112D01*
X1123909Y-9121112D01*
X1123909Y-8985120D01*
X908090Y-8794879D02*
G01*
X908090Y-8658887D01*
X1123909Y-8658887D01*
X1123909Y-8794879D01*
X17621120Y-5949909D02*
G01*
X17757112Y-5949909D01*
X17757112Y-5734090D01*
X17621120Y-5734090D01*
X17430879Y-5949909D02*
G01*
X17294887Y-5949909D01*
X17294887Y-5734090D01*
X17430879Y-5734090D01*
X17621120Y-6203909D02*
G01*
X17757112Y-6203909D01*
X17757112Y-5988090D01*
X17621120Y-5988090D01*
X17430879Y-6203909D02*
G01*
X17294887Y-6203909D01*
X17294887Y-5988090D01*
X17430879Y-5988090D01*
X17621120Y-6457909D02*
G01*
X17757112Y-6457909D01*
X17757112Y-6242090D01*
X17621120Y-6242090D01*
X17430879Y-6457909D02*
G01*
X17294887Y-6457909D01*
X17294887Y-6242090D01*
X17430879Y-6242090D01*
X17113120Y-6457909D02*
G01*
X17249112Y-6457909D01*
X17249112Y-6242090D01*
X17113120Y-6242090D01*
X16922879Y-6457909D02*
G01*
X16786887Y-6457909D01*
X16786887Y-6242090D01*
X16922879Y-6242090D01*
D14*
X1948997Y-12567975D02*
G01*
X1948997Y-11417978D01*
X3638994Y-11417978D01*
X3638994Y-12567975D01*
X1949996Y-12567975D01*
X2494165Y-13217974D02*
G01*
X2494165Y-14067972D01*
X3093994Y-14067972D01*
X3093994Y-13217974D01*
X2444353Y-12567975D02*
G01*
X2444353Y-13217974D01*
X3143994Y-13217974D01*
X3143994Y-12567975D01*
D11*
X4083171Y-11563367D02*
G01*
X3947180Y-11563367D01*
X3947180Y-11779186D01*
X4083171Y-11779186D01*
X4273412Y-11563367D02*
G01*
X4409404Y-11563367D01*
X4409404Y-11779186D01*
X4273412Y-11779186D01*
D14*
X8997002Y-14082951D02*
G01*
X8997002Y-13944000D01*
X10306999Y-13944000D01*
X10306999Y-14082951D01*
X8997002Y-14365048D02*
G01*
X8997002Y-14503999D01*
X9352000Y-14503999D01*
X9352000Y-15005997D01*
X9650999Y-15005997D01*
X9650999Y-14502998D01*
X10306999Y-14502998D01*
X10306999Y-14365048D01*
D11*
X16090679Y-2505478D02*
G01*
X16090679Y-2650721D01*
X16193841Y-2650721D01*
X16395920Y-2505478D02*
G01*
X16395920Y-2650721D01*
X16292758Y-2650721D01*
X16197760Y-2505478D02*
G01*
X16288839Y-2505478D01*
D14*
X5350509Y-12337999D02*
G01*
X5269001Y-12337999D01*
X5269001Y-12272010D01*
X5269001Y-12111989D02*
G01*
X5269001Y-12046000D01*
X5269001Y-12111989D01*
X5269001Y-12046000D01*
X5350509Y-12046000D01*
D15*
X5423992Y-12221997D02*
G01*
X5423992Y-12162002D01*
D17*
G75*
G01*
X2667211Y-2024708D02*
G02*
X2666779Y-2024708I-216J-19988D01*
G75*
G01*
X5969206Y-2024708D02*
G02*
X5968774Y-2024708I-216J-19988D01*
G75*
G01*
X7620201Y-2024708D02*
G02*
X7619769Y-2024708I-216J-19988D01*
G75*
G01*
X2667211Y-3548705D02*
G02*
X2666779Y-3548705I-216J-19989D01*
G75*
G01*
X4318208Y-3548705D02*
G02*
X4317776Y-3548705I-216J-19989D01*
G75*
G01*
X2667211Y-5072703D02*
G02*
X2666779Y-5072703I-216J-19988D01*
G75*
G01*
X4318208Y-5072703D02*
G02*
X4317776Y-5072703I-216J-19988D01*
G75*
G01*
X5969206Y-5072703D02*
G02*
X5968774Y-5072703I-216J-19988D01*
G75*
G01*
X7620201Y-5072703D02*
G02*
X7619769Y-5072703I-216J-19988D01*
G75*
G01*
X2667211Y-6596698D02*
G02*
X2666779Y-6596698I-216J-19988D01*
G75*
G01*
X4318208Y-6596698D02*
G02*
X4317776Y-6596698I-216J-19988D01*
G75*
G01*
X5969206Y-6596698D02*
G02*
X5968774Y-6596698I-216J-19988D01*
G75*
G01*
X7620201Y-6596698D02*
G02*
X7619769Y-6596698I-216J-19988D01*
G75*
G01*
X5969206Y-3548705D02*
G02*
X5968774Y-3548705I-216J-19989D01*
G75*
G01*
X7620201Y-3548705D02*
G02*
X7619769Y-3548705I-216J-19989D01*
G75*
G01*
X4318208Y-2024708D02*
G02*
X4317776Y-2024708I-216J-19988D01*
D14*
G75*
G01*
X8497806Y-1811828D02*
G03*
X8774158Y-1811828I138176J-220244D01*
G75*
G01*
X9513804Y-1811828D02*
G03*
X9790156Y-1811828I138176J-220244D01*
D11*
G75*
G01*
X5951261Y-266880D02*
G03*
X5936021Y-251640I-15240J0D01*
G75*
G01*
X5747979Y-251640D02*
G03*
X5732739Y-266880I0J-15240D01*
G75*
G01*
X5951261Y-749120D02*
G02*
X5936021Y-764360I-15240J0D01*
G75*
G01*
X5747979Y-764360D02*
G02*
X5732739Y-749120I0J15240D01*
D14*
G75*
G01*
X4747260Y-113538D02*
G03*
X4742688Y-888492I96991J-388063D01*
G75*
G01*
X4902454Y-891794D02*
G03*
X4904486Y-114046I-92664J389119D01*
G75*
G01*
X14048740Y-1156462D02*
G03*
X14053312Y-381508I-96991J388063D01*
G75*
G01*
X13893546Y-378206D02*
G03*
X13891514Y-1155954I92664J-389119D01*
D11*
G75*
G01*
X13098739Y-1257120D02*
G03*
X13113979Y-1272360I15240J0D01*
G75*
G01*
X13302021Y-1272360D02*
G03*
X13317261Y-1257120I0J15240D01*
G75*
G01*
X13098739Y-774880D02*
G02*
X13113979Y-759640I15240J0D01*
G75*
G01*
X13302021Y-759640D02*
G02*
X13317261Y-774880I0J-15240D01*
D14*
G75*
G01*
X16650462Y-7541260D02*
G03*
X15875508Y-7536688I-388063J-96991D01*
G75*
G01*
X15872206Y-7696454D02*
G03*
X16649954Y-7698486I389119J92664D01*
D11*
G75*
G01*
X16014880Y-6748739D02*
G03*
X15999640Y-6763979I0J-15240D01*
G75*
G01*
X15999640Y-6952021D02*
G03*
X16014880Y-6967261I15240J0D01*
G75*
G01*
X16497120Y-6748739D02*
G02*
X16512360Y-6763979I0J-15240D01*
G75*
G01*
X16512360Y-6952021D02*
G02*
X16497120Y-6967261I-15240J0D01*
G75*
G01*
X15735120Y-4681261D02*
G03*
X15750360Y-4666021I0J15240D01*
G75*
G01*
X15750360Y-4477979D02*
G03*
X15735120Y-4462739I-15240J0D01*
G75*
G01*
X15252880Y-4681261D02*
G02*
X15237640Y-4666021I0J15240D01*
G75*
G01*
X15237640Y-4477979D02*
G02*
X15252880Y-4462739I15240J0D01*
D14*
G75*
G01*
X14810740Y-2680462D02*
G03*
X14815312Y-1905508I-96991J388063D01*
G75*
G01*
X14655546Y-1902206D02*
G03*
X14653514Y-2679954I92664J-389119D01*
G75*
G01*
X16650462Y-8557260D02*
G03*
X15875508Y-8552688I-388063J-96991D01*
G75*
G01*
X15872206Y-8712454D02*
G03*
X16649954Y-8714486I389119J92664D01*
D11*
G75*
G01*
X16014880Y-6494739D02*
G03*
X15999640Y-6509979I0J-15240D01*
G75*
G01*
X15999640Y-6698021D02*
G03*
X16014880Y-6713261I15240J0D01*
G75*
G01*
X16497120Y-6494739D02*
G02*
X16512360Y-6509979I0J-15240D01*
G75*
G01*
X16512360Y-6698021D02*
G02*
X16497120Y-6713261I-15240J0D01*
G75*
G01*
X16497120Y-3919261D02*
G03*
X16512360Y-3904021I0J15240D01*
G75*
G01*
X16512360Y-3715979D02*
G03*
X16497120Y-3700739I-15240J0D01*
G75*
G01*
X16014880Y-3919261D02*
G02*
X15999640Y-3904021I0J15240D01*
G75*
G01*
X15999640Y-3715979D02*
G02*
X16014880Y-3700739I15240J0D01*
D14*
G75*
G01*
X16115538Y-4650740D02*
G03*
X16890492Y-4655312I388063J96991D01*
G75*
G01*
X16893794Y-4495546D02*
G03*
X16116046Y-4493514I-389119J-92664D01*
D11*
G75*
G01*
X13825261Y-2298880D02*
G03*
X13810021Y-2283640I-15240J0D01*
G75*
G01*
X13621979Y-2283640D02*
G03*
X13606739Y-2298880I0J-15240D01*
G75*
G01*
X13825261Y-2781120D02*
G02*
X13810021Y-2796360I-15240J0D01*
G75*
G01*
X13621979Y-2796360D02*
G02*
X13606739Y-2781120I0J15240D01*
G75*
G01*
X1765120Y-10015261D02*
G03*
X1780360Y-10000021I0J15240D01*
G75*
G01*
X1780360Y-9811979D02*
G03*
X1765120Y-9796739I-15240J0D01*
G75*
G01*
X1282880Y-10015261D02*
G02*
X1267640Y-10000021I0J15240D01*
G75*
G01*
X1267640Y-9811979D02*
G02*
X1282880Y-9796739I15240J0D01*
G75*
G01*
X13825261Y-5346880D02*
G03*
X13810021Y-5331640I-15240J0D01*
G75*
G01*
X13621979Y-5331640D02*
G03*
X13606739Y-5346880I0J-15240D01*
G75*
G01*
X13825261Y-5829120D02*
G02*
X13810021Y-5844360I-15240J0D01*
G75*
G01*
X13621979Y-5844360D02*
G02*
X13606739Y-5829120I0J15240D01*
D18*
G75*
G01*
X15828251Y-10416540D02*
G03*
X15828505Y-10416540I127J-15001D01*
D14*
G75*
G01*
X15851972Y-10083800D02*
G02*
X15851972Y-10228580I0J-72390D01*
G75*
G01*
X16103600Y-11430000D02*
G02*
X16002000Y-11430000I-50800J0D01*
G75*
G01*
X15900400Y-11430000D02*
G02*
X16002000Y-11430000I50800J0D01*
G75*
G01*
X16078200Y-12052300D02*
G02*
X15976600Y-12052300I-50800J0D01*
G75*
G01*
X15875000Y-12052300D02*
G02*
X15976600Y-12052300I50800J0D01*
G75*
G01*
X10529824Y-1811884D02*
G03*
X10806176Y-1811884I138176J-220244D01*
G75*
G01*
X11545824Y-1811884D02*
G03*
X11822176Y-1811884I138176J-220244D01*
G75*
G01*
X8497824Y-3335884D02*
G03*
X8774176Y-3335884I138176J-220244D01*
G75*
G01*
X9513824Y-3335884D02*
G03*
X9790176Y-3335884I138176J-220244D01*
G75*
G01*
X10529824Y-3335884D02*
G03*
X10806176Y-3335884I138176J-220244D01*
G75*
G01*
X11545824Y-3335884D02*
G03*
X11822176Y-3335884I138176J-220244D01*
G75*
G01*
X8497824Y-4859884D02*
G03*
X8774176Y-4859884I138176J-220244D01*
G75*
G01*
X9513824Y-4859884D02*
G03*
X9790176Y-4859884I138176J-220244D01*
G75*
G01*
X10529824Y-4859884D02*
G03*
X10806176Y-4859884I138176J-220244D01*
G75*
G01*
X8774176Y-13428218D02*
G03*
X8497824Y-13428218I-138176J220244D01*
G75*
G01*
X11545824Y-4859884D02*
G03*
X11822176Y-4859884I138176J-220244D01*
G75*
G01*
X8497824Y-6383884D02*
G03*
X8774176Y-6383884I138176J-220244D01*
G75*
G01*
X9513824Y-6383884D02*
G03*
X9790176Y-6383884I138176J-220244D01*
G75*
G01*
X10529824Y-6383884D02*
G03*
X10806176Y-6383884I138176J-220244D01*
G75*
G01*
X11545824Y-6383884D02*
G03*
X11822176Y-6383884I138176J-220244D01*
D11*
G75*
G01*
X2395261Y-266880D02*
G03*
X2380021Y-251640I-15240J0D01*
G75*
G01*
X2191979Y-251640D02*
G03*
X2176739Y-266880I0J-15240D01*
G75*
G01*
X2395261Y-749120D02*
G02*
X2380021Y-764360I-15240J0D01*
G75*
G01*
X2191979Y-764360D02*
G02*
X2176739Y-749120I0J15240D01*
D14*
G75*
G01*
X1445260Y-113538D02*
G03*
X1440688Y-888492I96991J-388063D01*
G75*
G01*
X1600454Y-891794D02*
G03*
X1602486Y-114046I-92664J389119D01*
D11*
G75*
G01*
X17284880Y-9288739D02*
G03*
X17269640Y-9303979I0J-15240D01*
G75*
G01*
X17269640Y-9492021D02*
G03*
X17284880Y-9507261I15240J0D01*
G75*
G01*
X17767120Y-9288739D02*
G02*
X17782360Y-9303979I0J-15240D01*
G75*
G01*
X17782360Y-9492021D02*
G02*
X17767120Y-9507261I-15240J0D01*
G75*
G01*
X3695520Y-9926361D02*
G03*
X3710760Y-9911121I0J15240D01*
G75*
G01*
X3710760Y-9723079D02*
G03*
X3695520Y-9707839I-15240J0D01*
G75*
G01*
X3213280Y-9926361D02*
G02*
X3198040Y-9911121I0J15240D01*
G75*
G01*
X3198040Y-9723079D02*
G02*
X3213280Y-9707839I15240J0D01*
G75*
G01*
X11925120Y-8745261D02*
G03*
X11940360Y-8730021I0J15240D01*
G75*
G01*
X11940360Y-8541979D02*
G03*
X11925120Y-8526739I-15240J0D01*
G75*
G01*
X11442880Y-8745261D02*
G02*
X11427640Y-8730021I0J15240D01*
G75*
G01*
X11427640Y-8541979D02*
G02*
X11442880Y-8526739I15240J0D01*
D18*
G75*
G01
X16945839Y-9775850D02*
G03X16945839Y-9775850I-15011J0D01*
G75*
G01
X14877161Y-4738827D02*
G03X14877161Y-4738827I-15011J0D01*
G75*
G01
X16104184Y-5972150D02*
G03X16104184Y-5972150I-15011J0D01*
D14*
G75*
G01
X3427120Y-8843340D02*
G03X3427120Y-8843340I-44145J0D01*
D18*
G75*
G01
X12524511Y-2686914D02*
G03X12524511Y-2686914I-15011J0D01*
G75*
G01
X12448311Y-2895600D02*
G03X12448311Y-2895600I-15011J0D01*
G75*
G01
X12524511Y-5747614D02*
G03X12524511Y-5747614I-15011J0D01*
G75*
G01
X12448311Y-5956300D02*
G03X12448311Y-5956300I-15011J0D01*
D14*
G75*
G01
X15279929Y-6096000D02*
G03X15279929Y-6096000I-293929J0D01*
G75*
G01
X15279929Y-7620000D02*
G03X15279929Y-7620000I-293929J0D01*
G75*
G01
X10918012Y-13187985D02*
G03X10918012Y-13187985I-250012J0D01*
G75*
G01
X9902012Y-13197891D02*
G03X9902012Y-13197891I-250012J0D01*
D19*
G75*
G01
X8441004Y-8909075D02*
G03X8441004Y-8909075I-19990J0D01*
M02*
