G04 Layer: BottomLayer*
G04 EasyEDA v6.5.40, 2024-05-11 17:08:49*
G04 43c8e0cd1118455ea74be200e722eb6b,361a7d54fb4a4915a4e9984872de9782,10*
G04 Gerber Generator version 0.2*
G04 Scale: 100 percent, Rotated: No, Reflected: No *
G04 Dimensions in millimeters *
G04 leading zeros omitted , absolute positions ,4 integer and 5 decimal *
%FSLAX45Y45*%
%MOMM*%

%ADD10C,0.3000*%
%ADD11C,1.0000*%
%ADD12C,0.5000*%
%ADD13C,1.5000*%
%ADD14C,2.0000*%
%ADD15C,3.0000*%
%ADD16R,3.2000X4.0000*%
%ADD17R,1.2680X1.5000*%
%ADD18C,1.6510*%
%ADD19C,4.0000*%
%ADD20C,1.5748*%
%ADD21R,1.5748X1.5748*%
%ADD22R,1.5080X1.5080*%
%ADD23C,1.5080*%
%ADD24C,2.5000*%
%ADD25C,0.0147*%

%LPD*%
D10*
X4063984Y-8648684D02*
G01*
X4063984Y-7886697D01*
D11*
X13842972Y-2158994D02*
G01*
X13842972Y-6349989D01*
X1409700Y-10914379D02*
G01*
X1409700Y-13601700D01*
X1524000Y-13716000D01*
X7366000Y-13716000D01*
X8382000Y-12700000D01*
X10922000Y-12700000D01*
D12*
X1777994Y-10667977D02*
G01*
X1015992Y-10667956D01*
D11*
X10413974Y-11683974D02*
G01*
X4064000Y-11683982D01*
X3047997Y-10667979D01*
X2146294Y-10667979D01*
X10274279Y-11937974D02*
G01*
X5841989Y-11937979D01*
D12*
X8889974Y-7873974D02*
G01*
X8889974Y-8381982D01*
X8013687Y-8381982D01*
X8013687Y-9512282D01*
X6858000Y-10667969D01*
X6858000Y-11175974D01*
X12788900Y-4965700D02*
G01*
X12788900Y-6350000D01*
X13462000Y-7023100D01*
X13462000Y-7620000D01*
X12954000Y-8128000D01*
X12953974Y-10413979D01*
X13715974Y-9397974D02*
G01*
X14211300Y-8902649D01*
X14211300Y-1727200D01*
D11*
X1777997Y-11175977D02*
G01*
X1777997Y-12699974D01*
X3301992Y-12699974D01*
X3293993Y-12691976D01*
X3293993Y-12187976D01*
D12*
X12953974Y-4660889D02*
G01*
X10921974Y-4660887D01*
D11*
X11938000Y-8890000D02*
G01*
X12446000Y-9398000D01*
X12446000Y-10668000D01*
X12700000Y-10922000D01*
X14478000Y-10922000D01*
X14732000Y-10668000D01*
D13*
X17525964Y-9283682D02*
G01*
X17525964Y-8127984D01*
D14*
X17017966Y-5587989D02*
G01*
X17017966Y-6857987D01*
D11*
X4762489Y-10921977D02*
G01*
X4495774Y-10667974D01*
X3962400Y-10134600D01*
X3949687Y-10109200D01*
X8381982Y-8635982D02*
G01*
X8635982Y-8889982D01*
X10667918Y-8889982D01*
X8381982Y-8635982D02*
G01*
X8381982Y-11112477D01*
X8750282Y-11112477D01*
D10*
X7492997Y-6680202D02*
G01*
X7492997Y-6743702D01*
X7746997Y-6997702D01*
X7746984Y-9448784D01*
D14*
X14224000Y-1270000D02*
G01*
X15493969Y-1269997D01*
X15748000Y-1524000D01*
X15748000Y-2286000D01*
X15747969Y-2539994D01*
X15748000Y-2540000D01*
X14477972Y-1777997D02*
G01*
X14731969Y-2031994D01*
X14731969Y-3047994D01*
D11*
X10667918Y-8889982D02*
G01*
X11937977Y-8889982D01*
D12*
X11429977Y-9143982D02*
G01*
X11683977Y-9397982D01*
X8885930Y-9900920D02*
G01*
X8890000Y-9906000D01*
X9144000Y-9906000D01*
X9906025Y-9143974D01*
X11429977Y-9143982D01*
D13*
X14986000Y-9906000D02*
G01*
X15608300Y-9283700D01*
X16901922Y-9283700D01*
X17525964Y-9283682D01*
D14*
X14985974Y-9395460D02*
G01*
X15490416Y-8890000D01*
X17018815Y-8889982D01*
D11*
X10680700Y-9779000D02*
G01*
X10668000Y-9791700D01*
X10668000Y-11430000D01*
X4318000Y-11430000D01*
X3682992Y-10769579D01*
X3451859Y-10528300D01*
X3454400Y-8839174D02*
G01*
X3452032Y-10528300D01*
D14*
X16763974Y-3245485D02*
G01*
X16834459Y-3245485D01*
X17525964Y-3936989D01*
X17525964Y-7111984D01*
X17018815Y-7619133D01*
X17018815Y-8889982D01*
D11*
X8890000Y-7874000D02*
G01*
X8890000Y-8382000D01*
X10833049Y-8382000D01*
X11061674Y-8153374D01*
D12*
X10921974Y-9397974D02*
G01*
X10922002Y-11938000D01*
X10921979Y-12191974D01*
X10921979Y-11937974D01*
X9652000Y-14224000D02*
G01*
X9652000Y-13716000D01*
X10922000Y-13716000D01*
X11176000Y-13462000D01*
X11176000Y-12446000D01*
X10922000Y-12192000D01*
D10*
X2539997Y-3632309D02*
G01*
X2285997Y-3886309D01*
X2285997Y-6362809D01*
X2286195Y-9029857D01*
X2539997Y-2108309D02*
G01*
X2158997Y-2489309D01*
X2158997Y-7632684D01*
X2527508Y-8964584D02*
G01*
X2527508Y-7899186D01*
X2539997Y-7886684D01*
X4190984Y-3632197D02*
G01*
X3936984Y-3886197D01*
X3936984Y-6362697D01*
X3936984Y-7886585D01*
X2679697Y-9245584D02*
G01*
X2679697Y-8015483D01*
X5841984Y-2108197D02*
G01*
X5460984Y-2489197D01*
X5460984Y-8013684D01*
X5841997Y-6680309D02*
G01*
X5841997Y-6743809D01*
X6095997Y-6997809D01*
X6095997Y-9334477D01*
X4190997Y-2108309D02*
G01*
X3809997Y-2489309D01*
X3809997Y-7759684D01*
X2031997Y-7759684D02*
G01*
X2032208Y-7759882D01*
X2032208Y-9315775D01*
X2539997Y-6680309D02*
G01*
X2539997Y-6743809D01*
X2793997Y-6997809D01*
X2793997Y-7632684D01*
X5079984Y-7632684D02*
G01*
X5080195Y-7632895D01*
X5080195Y-9169557D01*
D15*
X3124194Y-7030994D02*
G01*
X3124200Y-5282529D01*
X3124200Y-2235809D02*
G01*
X3124200Y-2459616D01*
X3124194Y-5282531D02*
G01*
X3124197Y-3982239D01*
X4768850Y-254000D02*
G01*
X3604262Y-255915D01*
X3124200Y-762000D02*
G01*
X2666994Y-761997D01*
X4773828Y-1856757D02*
G01*
X4768842Y-253997D01*
X4778562Y-3378093D02*
G01*
X4773828Y-1856757D01*
X4783305Y-4902288D02*
G01*
X4778562Y-3378093D01*
X4787900Y-6426200D02*
G01*
X4787900Y-6197574D01*
X4787900Y-6197574D02*
G01*
X4787900Y-4906876D01*
X4783310Y-4902286D01*
X3124197Y-3982239D02*
G01*
X3124197Y-3758641D01*
X3124197Y-3758641D02*
G01*
X3124200Y-2459616D01*
X3124200Y-2459616D02*
G01*
X3124200Y-2235804D01*
X3124200Y-2235200D02*
G01*
X3124200Y-762000D01*
X4065798Y-254000D02*
G01*
X3835400Y-254000D01*
D14*
X15316200Y-4216400D02*
G01*
X15316200Y-3987800D01*
X15595091Y-3708907D01*
X15748000Y-3556000D01*
X15748000Y-2540000D02*
G01*
X15748000Y-3149600D01*
X15748000Y-2540000D02*
G01*
X15748000Y-3556000D01*
X17018000Y-4826000D01*
X17017966Y-5686552D01*
D11*
X1409694Y-11048977D02*
G01*
X1409694Y-10691268D01*
D12*
X8636000Y-13334974D02*
G01*
X8762997Y-13461972D01*
X9143982Y-13461972D01*
X9347182Y-13665172D01*
X9347182Y-13690572D01*
X9352000Y-13695390D01*
X9352000Y-14223974D01*
X12191974Y-1905000D02*
G01*
X12191974Y-3187694D01*
X12191974Y-1905000D02*
G01*
X12636474Y-1904994D01*
D11*
X16383000Y-9969500D02*
G01*
X16383000Y-9652000D01*
X17272000Y-9652000D01*
X15747956Y-5460977D02*
G01*
X15747992Y-6350010D01*
X1015997Y-10667974D02*
G01*
X1016000Y-10668000D01*
X1778000Y-10668000D01*
X2286000Y-10160000D01*
X2285994Y-10159979D01*
D12*
X3162300Y-8648700D02*
G01*
X3162300Y-9283700D01*
X1777997Y-10667979D01*
D11*
X16763974Y-10470489D02*
G01*
X16820481Y-10413982D01*
X17691061Y-10413982D01*
X6349987Y-9905977D02*
G01*
X6349987Y-11175977D01*
D12*
X6858000Y-11175974D02*
G01*
X6858000Y-10921974D01*
D11*
X7365984Y-1130297D02*
G01*
X7378684Y-1142997D01*
X12699974Y-1142997D01*
D14*
X7823200Y-520700D02*
G01*
X10668000Y-520700D01*
X10668000Y-520700D01*
D11*
X6095987Y-1015997D02*
G01*
X6603987Y-254000D01*
X7874190Y-254175D01*
D12*
X3695692Y-10350479D02*
G01*
X3695692Y-10020279D01*
X3809992Y-9905979D01*
X4406889Y-9905979D01*
X4571989Y-10071079D01*
X12788900Y-1905000D02*
G01*
X12788900Y-1803400D01*
X12839700Y-1752600D01*
X13563600Y-1752600D01*
X13589000Y-1778000D01*
X13589000Y-4953000D01*
X13462000Y-5080000D01*
X12966700Y-4965700D02*
G01*
X12966700Y-4889500D01*
X13271500Y-4584700D01*
X13271500Y-3810000D01*
X12966700Y-3505200D01*
X12966700Y-1905000D01*
X12191974Y-4965700D02*
G01*
X12611074Y-4965694D01*
X12191974Y-4965700D02*
G01*
X12191974Y-6248394D01*
X12865074Y-6908787D02*
G01*
X12865074Y-6794487D01*
X12649200Y-7124700D02*
G01*
X12865074Y-6908794D01*
X12903174Y-7429494D02*
G01*
X12953974Y-7378694D01*
X12992074Y-7086600D02*
G01*
X12953974Y-7378694D01*
X13119074Y-7340594D02*
G01*
X13119074Y-7556494D01*
X12953974Y-7721587D01*
X12953974Y-7721589D02*
G01*
X10921974Y-7721587D01*
X10159974Y-7429494D02*
G01*
X12903174Y-7429492D01*
X9143982Y-7124692D02*
G01*
X12649174Y-7124692D01*
X12611074Y-4965694D02*
G01*
X12636474Y-4965694D01*
X10159974Y-4368794D02*
G01*
X12903174Y-4368792D01*
X9143982Y-4063992D02*
G01*
X12649174Y-4063992D01*
X13119074Y-4279894D02*
G01*
X13119074Y-4495794D01*
X12953974Y-4660887D01*
X12649200Y-4064000D02*
G01*
X12865074Y-3848094D01*
X12865074Y-3848087D02*
G01*
X12865074Y-3733787D01*
X12992074Y-4025900D02*
G01*
X12953974Y-4317994D01*
X12903174Y-4368794D02*
G01*
X12953974Y-4317994D01*
D10*
X2832097Y-8140684D02*
G01*
X2832295Y-8888371D01*
X4825984Y-7886684D02*
G01*
X4826195Y-9233057D01*
X5841997Y-5156309D02*
G01*
X5714997Y-5283309D01*
X5715195Y-8902857D01*
X1778195Y-9448957D02*
G01*
X1777997Y-7632684D01*
X1993897Y-7632684D01*
X2158997Y-7632684D01*
X4305495Y-8890157D02*
G01*
X4064182Y-8648844D01*
X1778208Y-9448957D02*
G01*
X1778208Y-9307347D01*
X7492997Y-5156309D02*
G01*
X7366195Y-5283103D01*
X7366195Y-9029857D01*
X7492984Y-2108197D02*
G01*
X7111984Y-2489197D01*
X7111984Y-8267684D01*
X7492984Y-3632197D02*
G01*
X7238984Y-3886197D01*
X7238984Y-6362697D01*
X7241540Y-8394684D01*
X2539997Y-5156309D02*
G01*
X2413208Y-5283103D01*
X2413208Y-8521857D01*
X5841997Y-3632309D02*
G01*
X5587997Y-3886309D01*
X5587984Y-8140684D01*
X4825984Y-7886684D02*
G01*
X4444984Y-7886697D01*
X4190984Y-6680197D02*
G01*
X4190984Y-6743697D01*
X4444984Y-6997697D01*
X4444984Y-7886697D01*
X4190984Y-5156197D02*
G01*
X4063984Y-5283197D01*
X4063984Y-7886697D01*
X4063984Y-7632585D01*
D12*
X12966700Y-4965700D02*
G01*
X12966700Y-6235700D01*
X13589000Y-6858000D01*
X13589000Y-7747000D01*
X13208000Y-8128000D01*
X13207974Y-10159979D01*
X13144500Y-4965700D02*
G01*
X13423900Y-4686300D01*
X13423900Y-3683000D01*
X13144500Y-3403600D01*
X13144500Y-1905000D01*
X13144500Y-4965700D02*
G01*
X13144500Y-6096000D01*
X13716000Y-6667500D01*
X13716000Y-7874000D01*
X13462000Y-8128000D01*
X13461972Y-10028936D01*
X11175974Y-9397974D02*
G01*
X11175974Y-11937974D01*
X11175974Y-11937974D01*
D16*
G01*
X16764000Y-10470489D03*
G01*
X16764000Y-3245510D03*
D17*
G01*
X2793974Y-1727200D03*
D13*
G01*
X2540000Y-1854200D03*
G01*
X2794000Y-1981200D03*
G01*
X2540000Y-2108200D03*
G01*
X2794000Y-2235200D03*
G01*
X2540000Y-2362200D03*
D17*
G01*
X6095974Y-1727200D03*
D13*
G01*
X5842000Y-1854200D03*
G01*
X6096000Y-1981200D03*
G01*
X5842000Y-2108200D03*
G01*
X6096000Y-2235200D03*
G01*
X5842000Y-2362200D03*
D17*
G01*
X7746974Y-1727200D03*
D13*
G01*
X7492974Y-1854200D03*
G01*
X7746974Y-1981200D03*
G01*
X7492974Y-2108200D03*
G01*
X7746974Y-2235200D03*
G01*
X7492974Y-2362200D03*
D17*
G01*
X2793974Y-3251200D03*
D13*
G01*
X2540000Y-3378200D03*
G01*
X2794000Y-3505200D03*
G01*
X2540000Y-3632200D03*
G01*
X2794000Y-3759200D03*
G01*
X2540000Y-3886200D03*
D17*
G01*
X4444974Y-3251200D03*
D13*
G01*
X4191000Y-3378200D03*
G01*
X4445000Y-3505200D03*
G01*
X4191000Y-3632200D03*
G01*
X4445000Y-3759200D03*
G01*
X4191000Y-3886200D03*
D17*
G01*
X2793974Y-4775200D03*
D13*
G01*
X2540000Y-4902200D03*
G01*
X2794000Y-5029200D03*
G01*
X2540000Y-5156200D03*
G01*
X2794000Y-5283200D03*
G01*
X2540000Y-5410200D03*
D17*
G01*
X4444974Y-4775200D03*
D13*
G01*
X4191000Y-4902200D03*
G01*
X4445000Y-5029200D03*
G01*
X4191000Y-5156200D03*
G01*
X4445000Y-5283200D03*
G01*
X4191000Y-5410200D03*
D17*
G01*
X6095974Y-4775200D03*
D13*
G01*
X5842000Y-4902200D03*
G01*
X6096000Y-5029200D03*
G01*
X5842000Y-5156200D03*
G01*
X6096000Y-5283200D03*
G01*
X5842000Y-5410200D03*
D17*
G01*
X7746974Y-4775200D03*
D13*
G01*
X7492974Y-4902200D03*
G01*
X7746974Y-5029200D03*
G01*
X7492974Y-5156200D03*
G01*
X7746974Y-5283200D03*
G01*
X7492974Y-5410200D03*
D17*
G01*
X2793974Y-6299200D03*
D13*
G01*
X2540000Y-6426200D03*
G01*
X2794000Y-6553200D03*
G01*
X2540000Y-6680200D03*
G01*
X2794000Y-6807200D03*
G01*
X2540000Y-6934200D03*
D17*
G01*
X4444974Y-6299200D03*
D13*
G01*
X4191000Y-6426200D03*
G01*
X4445000Y-6553200D03*
G01*
X4191000Y-6680200D03*
G01*
X4445000Y-6807200D03*
G01*
X4191000Y-6934200D03*
D17*
G01*
X6095974Y-6299200D03*
D13*
G01*
X5842000Y-6426200D03*
G01*
X6096000Y-6553200D03*
G01*
X5842000Y-6680200D03*
G01*
X6096000Y-6807200D03*
G01*
X5842000Y-6934200D03*
D17*
G01*
X7746974Y-6299200D03*
D13*
G01*
X7492974Y-6426200D03*
G01*
X7746974Y-6553200D03*
G01*
X7492974Y-6680200D03*
G01*
X7746974Y-6807200D03*
G01*
X7492974Y-6934200D03*
D17*
G01*
X6095974Y-3251200D03*
D13*
G01*
X5842000Y-3378200D03*
G01*
X6096000Y-3505200D03*
G01*
X5842000Y-3632200D03*
G01*
X6096000Y-3759200D03*
G01*
X5842000Y-3886200D03*
D17*
G01*
X7746974Y-3251200D03*
D13*
G01*
X7492974Y-3378200D03*
G01*
X7746974Y-3505200D03*
G01*
X7492974Y-3632200D03*
G01*
X7746974Y-3759200D03*
G01*
X7492974Y-3886200D03*
D17*
G01*
X4444974Y-1727200D03*
D13*
G01*
X4191000Y-1854200D03*
G01*
X4445000Y-1981200D03*
G01*
X4191000Y-2108200D03*
G01*
X4445000Y-2235200D03*
G01*
X4191000Y-2362200D03*
D18*
G01*
X8635974Y-2159000D03*
G01*
X8635974Y-1905000D03*
G01*
X9651974Y-2159000D03*
G01*
X9651974Y-1905000D03*
D15*
G01*
X16764000Y-3251200D03*
G01*
X16764000Y-10470489D03*
G01*
X508000Y-758444D03*
G01*
X508000Y-257555D03*
G01*
X14986000Y-8893555D03*
G01*
X14986000Y-9394444D03*
D19*
G01*
X14328924Y-12678204D03*
G01*
X15028669Y-12678204D03*
G01*
X15728922Y-12678204D03*
D15*
G01*
X17017852Y-12446091D03*
G01*
X17017852Y-11430091D03*
G01*
X17017852Y-11938091D03*
G01*
X4572000Y-12954000D03*
G01*
X4572000Y-12446000D03*
D20*
G01*
X8890000Y-7874000D03*
G01*
X9144000Y-7874000D03*
G01*
X9398000Y-7874000D03*
G01*
X9652000Y-7874000D03*
G01*
X9906000Y-7874000D03*
D21*
G01*
X10160000Y-7874000D03*
D18*
G01*
X10668000Y-13060984D03*
G01*
X10668000Y-13314984D03*
G01*
X10668000Y-2159050D03*
G01*
X10668000Y-1905050D03*
G01*
X11684000Y-2159050D03*
G01*
X11684000Y-1905050D03*
G01*
X8636000Y-3683050D03*
G01*
X8636000Y-3429050D03*
G01*
X9652000Y-3683050D03*
G01*
X9652000Y-3429050D03*
G01*
X10668000Y-3683050D03*
G01*
X10668000Y-3429050D03*
G01*
X11684000Y-3683050D03*
G01*
X11684000Y-3429050D03*
G01*
X8636000Y-5207050D03*
G01*
X8636000Y-4953050D03*
G01*
X9652000Y-5207050D03*
G01*
X9652000Y-4953050D03*
G01*
X9652000Y-13070890D03*
G01*
X9652000Y-13324890D03*
G01*
X10668000Y-5207050D03*
G01*
X10668000Y-4953050D03*
G01*
X8636000Y-13081050D03*
G01*
X8636000Y-13335050D03*
G01*
X11684000Y-5207050D03*
G01*
X11684000Y-4953050D03*
G01*
X8636000Y-6731050D03*
G01*
X8636000Y-6477050D03*
G01*
X9652000Y-6731050D03*
G01*
X9652000Y-6477050D03*
G01*
X10668000Y-6731050D03*
G01*
X10668000Y-6477050D03*
G01*
X11684000Y-6731050D03*
G01*
X11684000Y-6477050D03*
D22*
G01*
X1016000Y-9906000D03*
D23*
G01*
X1016000Y-10160000D03*
G01*
X1016000Y-10414000D03*
G01*
X1016000Y-10668000D03*
G01*
X1016000Y-12382500D03*
D24*
G01*
X2293995Y-12187976D03*
G01*
X2793994Y-12187976D03*
G01*
X3293993Y-12187976D03*
G01*
X3293993Y-11687977D03*
G01*
X2793994Y-11687977D03*
G01*
X2293995Y-11687977D03*
D14*
G01*
X9352000Y-14224000D03*
G01*
X9652000Y-14224000D03*
G01*
X9951999Y-14224000D03*
D15*
G01*
X9017000Y-14224000D03*
G01*
X10287000Y-14224000D03*
D11*
G01*
X2832303Y-8888374D03*
G01*
X4305503Y-8890152D03*
G01*
X2629103Y-9231274D03*
G01*
X2286203Y-9029852D03*
G01*
X2413203Y-8521852D03*
G01*
X2794000Y-7632674D03*
G01*
X5080203Y-9169552D03*
G01*
X5080000Y-7632674D03*
G01*
X1778203Y-9448952D03*
G01*
X2032000Y-7759674D03*
G01*
X2032203Y-9315780D03*
G01*
X3810000Y-7759674D03*
G01*
X2540000Y-7886674D03*
G01*
X3937000Y-7886674D03*
G01*
X4826203Y-9233052D03*
G01*
X2679700Y-8013674D03*
G01*
X5461000Y-8013674D03*
G01*
X5588000Y-8140674D03*
G01*
X2832100Y-8140674D03*
G01*
X5715203Y-8902852D03*
G01*
X6096000Y-9334474D03*
G01*
X7112000Y-8267674D03*
G01*
X7239000Y-8394674D03*
G01*
X7366203Y-9029852D03*
G01*
X7721574Y-9436074D03*
G01*
X3454400Y-8839174D03*
G01*
X12611074Y-1905000D03*
G01*
X12191974Y-3187700D03*
G01*
X13119074Y-4279900D03*
G01*
X10921974Y-4635500D03*
G01*
X12992074Y-4025900D03*
G01*
X10159974Y-4368800D03*
G01*
X9143974Y-4064000D03*
G01*
X12865074Y-3733800D03*
G01*
X12788874Y-1905000D03*
G01*
X13144474Y-1905000D03*
G01*
X12966674Y-1905000D03*
G01*
X12191974Y-6248400D03*
G01*
X12611074Y-4965700D03*
G01*
X9143974Y-7124700D03*
G01*
X10159974Y-7429500D03*
G01*
X10921974Y-7696200D03*
G01*
X13119074Y-7340600D03*
G01*
X12865074Y-6794500D03*
G01*
X12992074Y-7086600D03*
G01*
X12966674Y-4965700D03*
G01*
X13144474Y-4965700D03*
G01*
X12788874Y-4965700D03*
G01*
X12611074Y-4965700D03*
G01*
X13461974Y-5080000D03*
G01*
X13842974Y-3048000D03*
G01*
X13842974Y-2159000D03*
G01*
X4572000Y-10071074D03*
G01*
X3949700Y-10109174D03*
G01*
X3695700Y-10350474D03*
D14*
G01*
X7912074Y-215900D03*
G01*
X6096000Y-1016000D03*
G01*
X7823174Y-520700D03*
G01*
X10668000Y-520700D03*
D11*
G01*
X7365974Y-1130300D03*
G01*
X12699974Y-1143000D03*
D14*
G01*
X4787889Y-6426187D03*
G01*
X3835392Y-254000D03*
G01*
X4065803Y-254000D03*
G01*
X4773828Y-1856765D03*
G01*
X4778552Y-3378098D03*
G01*
X4783302Y-4902301D03*
G01*
X3124194Y-6807187D03*
G01*
X3124200Y-5282539D03*
G01*
X3124200Y-3758641D03*
G01*
X3124200Y-2235809D03*
G01*
X3124200Y-762000D03*
G01*
X2895594Y-761997D03*
D11*
G01*
X3162300Y-8648674D03*
D14*
G01*
X2285994Y-10159979D03*
G01*
X4745456Y-10921974D03*
G01*
X8381982Y-8635982D03*
D11*
G01*
X12950037Y-10410037D03*
G01*
X13204037Y-10156037D03*
G01*
X13461974Y-10028936D03*
D14*
G01*
X2146294Y-10667979D03*
D11*
G01*
X10413974Y-11683974D03*
G01*
X10680674Y-9778974D03*
D14*
G01*
X11061677Y-8153384D03*
D11*
G01*
X11175974Y-11937974D03*
G01*
X11175977Y-9397982D03*
G01*
X10921974Y-9397974D03*
G01*
X16383000Y-9969500D03*
G01*
X17271974Y-9651974D03*
D14*
G01*
X17691074Y-10413974D03*
D11*
G01*
X6349987Y-11175977D03*
G01*
X10274279Y-11937974D03*
G01*
X5841989Y-11937979D03*
D14*
G01*
X8750282Y-11112477D03*
D11*
G01*
X6857987Y-11175977D03*
G01*
X14211300Y-1727200D03*
G01*
X8886040Y-9902037D03*
G01*
X11683977Y-9397982D03*
G01*
X13715972Y-9397982D03*
D14*
G01*
X17017966Y-6857987D03*
G01*
X15747992Y-6350010D03*
G01*
X15747966Y-5465338D03*
D11*
G01*
X6349987Y-9905979D03*
G01*
X13842972Y-6349989D03*
D14*
G01*
X11937977Y-8889982D03*
G01*
X10667918Y-8889982D03*
G01*
X15316169Y-4216392D03*
D18*
G01*
X8635974Y-1905688D03*
G01*
X9651974Y-1905688D03*
G01*
X10668000Y-1905690D03*
G01*
X11683987Y-1905690D03*
D14*
G01*
X15747969Y-2539994D03*
G01*
X14223972Y-1269997D03*
G01*
X14477972Y-1777997D03*
G01*
X14731969Y-3047994D03*
G01*
X17017966Y-8127984D03*
G01*
X1777997Y-11175977D03*
D11*
G01*
X10922000Y-12700000D03*
D14*
G01*
X15747969Y-2793994D03*
G01*
X2666994Y-761997D03*
G01*
X3604262Y-255915D03*
G01*
X3124200Y-2459616D03*
G01*
X3124197Y-3982239D03*
G01*
X3124200Y-5506346D03*
G01*
X3124194Y-7030994D03*
G01*
X4787889Y-6197587D03*
G01*
X4783302Y-4673701D03*
G01*
X4783302Y-4902197D03*
G01*
X4778552Y-3149498D03*
G01*
X4778552Y-3378197D03*
G01*
X4773828Y-1628165D03*
G01*
X4773828Y-1854197D03*
D11*
G01*
X2527508Y-8964584D03*
D14*
G01*
X17525964Y-8127984D03*
G01*
X14986000Y-9906000D03*
G01*
X14732000Y-10668000D03*
G01*
X13461972Y-10921977D03*
M02*
